<?xml version="1.0" encoding="utf-8"?>
<!-- Generator: Adobe Illustrator 27.0.1, SVG Export Plug-In . SVG Version: 6.00 Build 0)  -->
<svg version="1.1" id="chat-icon" xmlns="http://www.w3.org/2000/svg" xmlns:xlink="http://www.w3.org/1999/xlink" x="0px" y="0px"
	 viewBox="0 0 20 20" style="enable-background:new 0 0 20 20;" xml:space="preserve">
<path id="path" style="fill-rule:evenodd;clip-rule:evenodd;fill:#347C84;" d="M10,0C4.5,0,0,4.5,0,10c0,1.7,0.4,3.4,1.3,4.9l-1.2,3
	c-0.5,1.2,0.7,2.4,1.9,1.9l3-1.2C6.6,19.5,8.3,20,10,20c5.5,0,10-4.5,10-10S15.5,0,10,0z M5.3,9.3C5.5,9.1,5.7,9,6,9
	s0.5,0.1,0.7,0.3C6.9,9.5,7,9.7,7,10s-0.1,0.5-0.3,0.7C6.5,10.9,6.3,11,6,11s-0.5-0.1-0.7-0.3C5.1,10.5,5,10.3,5,10S5.1,9.5,5.3,9.3
	z M9.3,9.3C9.5,9.1,9.7,9,10,9s0.5,0.1,0.7,0.3C10.9,9.5,11,9.7,11,10s-0.1,0.5-0.3,0.7C10.5,10.9,10.3,11,10,11s-0.5-0.1-0.7-0.3
	C9.1,10.5,9,10.3,9,10S9.1,9.5,9.3,9.3z M14,9c-0.3,0-0.5,0.1-0.7,0.3C13.1,9.5,13,9.7,13,10s0.1,0.5,0.3,0.7
	c0.2,0.2,0.4,0.3,0.7,0.3s0.5-0.1,0.7-0.3c0.2-0.2,0.3-0.4,0.3-0.7s-0.1-0.5-0.3-0.7C14.5,9.1,14.3,9,14,9z"/>
</svg>
