<svg width="173" height="182" viewBox="0 0 173 182" fill="none" xmlns="http://www.w3.org/2000/svg">
<g clip-path="url(#clip0_863_3271)">
<path d="M3.35529 114.8C4.01262 112.902 3.92944 110.827 3.12236 108.988C3.04224 108.806 3.32958 108.691 3.4096 108.873C4.24589 110.788 4.32805 112.948 3.63967 114.921C3.57393 115.109 3.28991 114.987 3.35529 114.8Z" fill="white"/>
<path d="M171.62 28.5874H127.574V31.4164C127.574 31.5612 127.623 31.7018 127.715 31.814C127.626 34.0252 127.574 36.848 127.574 39.9155V115.548C127.574 122.637 127.859 128.406 128.208 128.406H170.986C171.335 128.406 171.62 122.637 171.62 115.548V39.9155C171.62 36.848 171.568 34.0252 171.479 31.814C171.571 31.7018 171.62 31.5612 171.62 31.4164L171.62 28.5874Z" fill="white"/>
<path d="M170.985 128.711H128.208C127.875 128.711 127.654 128.711 127.454 124.65C127.334 122.213 127.268 118.981 127.268 115.548V39.9156C127.268 36.9508 127.318 34.0693 127.409 31.8017C127.466 30.4402 127.531 29.3496 127.603 28.5598C127.744 27.0136 127.877 26.7524 128.208 26.7524H170.985C171.316 26.7524 171.45 27.0136 171.591 28.5598C171.662 29.3526 171.728 30.4432 171.785 31.8011L171.785 31.8017C171.876 34.0669 171.926 36.9485 171.926 39.9156V115.548C171.926 118.981 171.86 122.214 171.739 124.65C171.539 128.711 171.319 128.711 170.985 128.711ZM128.382 128.1H170.811C171.033 127.264 171.313 122.726 171.313 115.548V39.9156C171.313 36.9565 171.263 34.0839 171.172 31.8268H171.172C171.116 30.4786 171.051 29.398 170.981 28.6151C170.953 28.1945 170.896 27.7765 170.808 27.3641H128.385C128.298 27.7765 128.24 28.1945 128.213 28.6151C128.142 29.395 128.078 30.4756 128.021 31.8268C127.93 34.0859 127.88 36.9588 127.88 39.9156V115.548C127.88 122.726 128.16 127.264 128.382 128.1Z" fill="#C9CCD0"/>
<path d="M170.986 27.0581H128.208C128.04 27.0584 127.879 27.1252 127.76 27.2439C127.642 27.3625 127.575 27.5234 127.574 27.6912V31.4162C127.574 31.5611 127.623 31.7017 127.715 31.8138C127.775 31.8872 127.85 31.9463 127.935 31.9871C128.021 32.0278 128.114 32.0491 128.208 32.0493H170.986C171.08 32.0491 171.174 32.0278 171.259 31.987C171.344 31.9463 171.419 31.8872 171.479 31.8138C171.571 31.7017 171.62 31.5611 171.62 31.4162V27.6912C171.619 27.5234 171.553 27.3625 171.434 27.2439C171.315 27.1252 171.154 27.0584 170.986 27.0581Z" fill="#E4E5E7"/>
<path d="M131.256 30.2712C131.753 30.2712 132.156 29.8687 132.156 29.3722C132.156 28.8757 131.753 28.4731 131.256 28.4731C130.759 28.4731 130.355 28.8757 130.355 29.3722C130.355 29.8687 130.759 30.2712 131.256 30.2712Z" fill="white"/>
<path d="M134.674 30.2712C135.171 30.2712 135.574 29.8687 135.574 29.3722C135.574 28.8757 135.171 28.4731 134.674 28.4731C134.177 28.4731 133.773 28.8757 133.773 29.3722C133.773 29.8687 134.177 30.2712 134.674 30.2712Z" fill="white"/>
<path d="M138.092 30.2712C138.589 30.2712 138.992 29.8687 138.992 29.3722C138.992 28.8757 138.589 28.4731 138.092 28.4731C137.595 28.4731 137.191 28.8757 137.191 29.3722C137.191 29.8687 137.595 30.2712 138.092 30.2712Z" fill="white"/>
<path d="M167.637 28.1714H163.701C163.624 28.1719 163.55 28.2027 163.496 28.2572C163.442 28.3117 163.411 28.3854 163.41 28.4624C163.409 28.5062 163.42 28.5496 163.441 28.588C163.464 28.6373 163.501 28.679 163.547 28.7083C163.593 28.7376 163.647 28.7532 163.701 28.7534H167.637C167.692 28.7537 167.747 28.7383 167.793 28.709C167.84 28.6797 167.877 28.6377 167.901 28.588C167.92 28.5488 167.929 28.5058 167.928 28.4624C167.928 28.4242 167.921 28.3863 167.906 28.351C167.892 28.3157 167.87 28.2836 167.843 28.2566C167.816 28.2295 167.784 28.2081 167.749 28.1935C167.713 28.1789 167.676 28.1714 167.637 28.1714Z" fill="white"/>
<path d="M167.637 29.2632H163.701C163.624 29.2632 163.55 29.2938 163.495 29.3484C163.441 29.403 163.41 29.477 163.41 29.5542C163.41 29.6314 163.441 29.7054 163.495 29.76C163.55 29.8145 163.624 29.8452 163.701 29.8452H167.637C167.715 29.8452 167.789 29.8145 167.843 29.76C167.898 29.7054 167.928 29.6314 167.928 29.5542C167.928 29.477 167.898 29.403 167.843 29.3484C167.789 29.2938 167.715 29.2632 167.637 29.2632Z" fill="white"/>
<path d="M167.637 30.3555H163.701C163.624 30.3555 163.55 30.3861 163.495 30.4407C163.441 30.4953 163.41 30.5693 163.41 30.6465C163.41 30.7236 163.441 30.7977 163.495 30.8522C163.55 30.9068 163.624 30.9375 163.701 30.9375H167.637C167.715 30.9375 167.789 30.9068 167.843 30.8522C167.898 30.7977 167.928 30.7236 167.928 30.6465C167.928 30.5693 167.898 30.4953 167.843 30.4407C167.789 30.3861 167.715 30.3555 167.637 30.3555Z" fill="white"/>
<path d="M153.853 40.2153H145.754C145.348 40.2155 144.959 40.3767 144.671 40.6634C144.384 40.9501 144.223 41.339 144.223 41.7445V48.7481C144.223 49.1535 144.385 49.542 144.672 49.8286C144.959 50.1153 145.348 50.2766 145.754 50.2773H153.853C154.259 50.2761 154.648 50.1146 154.935 49.8281C155.222 49.5416 155.384 49.1533 155.385 48.7481V41.7445C155.384 41.3391 155.223 40.9506 154.936 40.664C154.648 40.3773 154.259 40.216 153.853 40.2153Z" fill="#347C84"/>
<path d="M163.916 54.8525H135.689C135.504 54.8525 135.327 54.9257 135.197 55.0559C135.066 55.1861 134.993 55.3627 134.993 55.5468C134.993 55.7309 135.066 55.9075 135.197 56.0377C135.327 56.1679 135.504 56.241 135.689 56.241H163.916C164.1 56.241 164.277 56.1679 164.407 56.0377C164.538 55.9075 164.611 55.7309 164.611 55.5468C164.611 55.3627 164.538 55.1861 164.407 55.0559C164.277 54.9257 164.1 54.8525 163.916 54.8525Z" fill="#C9CCD0"/>
<path d="M146.41 58.1064H135.689C135.504 58.1064 135.327 58.1796 135.197 58.3098C135.066 58.44 134.993 58.6166 134.993 58.8007C134.993 58.9848 135.066 59.1614 135.197 59.2916C135.327 59.4218 135.504 59.4949 135.689 59.4949H146.41C146.594 59.4949 146.771 59.4218 146.901 59.2916C147.032 59.1614 147.105 58.9848 147.105 58.8007C147.105 58.6166 147.032 58.44 146.901 58.3098C146.771 58.1796 146.594 58.1064 146.41 58.1064Z" fill="#C9CCD0"/>
<path d="M153.853 70.4927H145.754C145.348 70.4928 144.959 70.654 144.671 70.9407C144.384 71.2275 144.223 71.6163 144.223 72.0218V79.0255C144.223 79.4308 144.385 79.8194 144.672 80.106C144.959 80.3926 145.348 80.5539 145.754 80.5546H153.853C154.259 80.5534 154.648 80.3919 154.935 80.1054C155.222 79.8189 155.384 79.4306 155.385 79.0255V72.0218C155.384 71.6165 155.223 71.2279 154.936 70.9413C154.648 70.6547 154.259 70.4933 153.853 70.4927Z" fill="#347C84"/>
<path d="M163.916 85.1299H135.689C135.504 85.1299 135.327 85.203 135.197 85.3332C135.066 85.4634 134.993 85.64 134.993 85.8241C134.993 86.0082 135.066 86.1848 135.197 86.315C135.327 86.4452 135.504 86.5184 135.689 86.5184H163.916C164.1 86.5184 164.277 86.4452 164.407 86.315C164.538 86.1848 164.611 86.0082 164.611 85.8241C164.611 85.64 164.538 85.4634 164.407 85.3332C164.277 85.203 164.1 85.1299 163.916 85.1299Z" fill="#C9CCD0"/>
<path d="M146.41 88.3843H135.689C135.504 88.3843 135.327 88.4574 135.197 88.5876C135.066 88.7178 134.993 88.8944 134.993 89.0785C134.993 89.2627 135.066 89.4392 135.197 89.5694C135.327 89.6996 135.504 89.7728 135.689 89.7728H146.41C146.594 89.7728 146.771 89.6996 146.901 89.5694C147.032 89.4392 147.105 89.2627 147.105 89.0785C147.105 88.8944 147.032 88.7178 146.901 88.5876C146.771 88.4574 146.594 88.3843 146.41 88.3843Z" fill="#C9CCD0"/>
<path d="M153.853 100.771H145.754C145.348 100.771 144.959 100.932 144.671 101.219C144.384 101.505 144.223 101.894 144.223 102.3V109.303C144.223 109.709 144.385 110.097 144.672 110.384C144.959 110.67 145.348 110.832 145.754 110.832H153.853C154.259 110.831 154.648 110.67 154.935 110.383C155.222 110.097 155.384 109.708 155.385 109.303V102.3C155.384 101.894 155.223 101.506 154.936 101.219C154.648 100.933 154.259 100.771 153.853 100.771Z" fill="#347C84"/>
<path d="M163.916 115.408H135.689C135.504 115.408 135.327 115.481 135.197 115.611C135.066 115.741 134.993 115.918 134.993 116.102C134.993 116.286 135.066 116.463 135.197 116.593C135.327 116.723 135.504 116.796 135.689 116.796H163.916C164.1 116.796 164.277 116.723 164.407 116.593C164.538 116.463 164.611 116.286 164.611 116.102C164.611 115.918 164.538 115.741 164.407 115.611C164.277 115.481 164.1 115.408 163.916 115.408Z" fill="#C9CCD0"/>
<path d="M146.41 118.662H135.689C135.504 118.662 135.327 118.735 135.197 118.865C135.066 118.995 134.993 119.172 134.993 119.356C134.993 119.54 135.066 119.717 135.197 119.847C135.327 119.977 135.504 120.05 135.689 120.05H146.41C146.594 120.05 146.771 119.977 146.901 119.847C147.032 119.717 147.105 119.54 147.105 119.356C147.105 119.172 147.032 118.995 146.901 118.865C146.771 118.735 146.594 118.662 146.41 118.662Z" fill="#C9CCD0"/>
<path d="M115.563 24.9387C115.563 24.7709 115.496 24.6101 115.377 24.4915C115.258 24.3728 115.097 24.306 114.929 24.3057H1.69863C1.53055 24.306 1.36945 24.3728 1.2506 24.4914C1.13174 24.6101 1.06481 24.7709 1.06446 24.9387V28.6638C1.06392 28.8189 1.12191 28.9685 1.22689 29.0828C1.12578 31.612 1.06446 34.9456 1.06446 38.5973V122.674C1.06446 130.559 1.34939 136.969 1.69863 136.969H114.929C115.278 136.969 115.563 130.559 115.563 122.674V38.5973C115.563 34.9456 115.502 31.612 115.401 29.0828C115.506 28.9685 115.564 28.8189 115.563 28.6638V24.9387Z" fill="white"/>
<path d="M114.929 137.275H1.69831C1.35217 137.275 1.14321 137.275 0.944213 132.792C0.823996 130.084 0.757812 126.491 0.757812 122.674V38.5975C0.757812 35.0781 0.815583 31.6948 0.920507 29.0708C1.12186 24 1.35119 24 1.69831 24H114.929C115.276 24 115.505 24.0009 115.707 29.0708C115.811 31.6924 115.869 35.0757 115.869 38.5975V122.674C115.869 126.491 115.803 130.084 115.683 132.792C115.484 137.275 115.275 137.275 114.929 137.275ZM1.87712 136.663H114.75C115.001 135.704 115.256 130.32 115.256 122.674V38.5975C115.256 35.0836 115.199 31.7089 115.094 29.0952V29.0951C114.967 25.8828 114.818 24.9053 114.747 24.6117H1.88044C1.80921 24.9053 1.66024 25.8828 1.53262 29.0951C1.42803 31.7114 1.37045 35.086 1.37045 38.5975V122.674C1.37045 130.32 1.62642 135.704 1.87712 136.663Z" fill="#C9CCD0"/>
<path d="M114.929 24.3057H1.69863C1.53055 24.306 1.36945 24.3728 1.2506 24.4914C1.13174 24.6101 1.06481 24.7709 1.06446 24.9387V28.6638C1.06392 28.8189 1.12191 28.9685 1.22689 29.0828C1.28575 29.1499 1.35828 29.2037 1.43962 29.2406C1.52097 29.2776 1.60927 29.2967 1.69862 29.2969H114.929C115.018 29.2967 115.107 29.2776 115.188 29.2406C115.269 29.2037 115.342 29.1499 115.401 29.0828C115.506 28.9685 115.564 28.8189 115.563 28.6638V24.9387C115.563 24.771 115.496 24.6101 115.377 24.4915C115.258 24.3728 115.097 24.306 114.929 24.3057Z" fill="#E4E5E7"/>
<path d="M4.74616 27.5188C5.24347 27.5188 5.64662 27.1163 5.64662 26.6197C5.64662 26.1232 5.24347 25.7207 4.74616 25.7207C4.24885 25.7207 3.8457 26.1232 3.8457 26.6197C3.8457 27.1163 4.24885 27.5188 4.74616 27.5188Z" fill="white"/>
<path d="M8.16413 27.5188C8.66144 27.5188 9.06459 27.1163 9.06459 26.6197C9.06459 26.1232 8.66144 25.7207 8.16413 25.7207C7.66682 25.7207 7.26367 26.1232 7.26367 26.6197C7.26367 27.1163 7.66682 27.5188 8.16413 27.5188Z" fill="white"/>
<path d="M11.5821 27.5188C12.0794 27.5188 12.4826 27.1163 12.4826 26.6197C12.4826 26.1232 12.0794 25.7207 11.5821 25.7207C11.0848 25.7207 10.6816 26.1232 10.6816 26.6197C10.6816 27.1163 11.0848 27.5188 11.5821 27.5188Z" fill="white"/>
<path d="M111.581 25.4189H107.645C107.567 25.4189 107.493 25.4496 107.439 25.5042C107.384 25.5588 107.354 25.6328 107.354 25.7099C107.354 25.7871 107.384 25.8611 107.439 25.9157C107.493 25.9703 107.567 26.001 107.645 26.001H111.581C111.658 26.001 111.732 25.9703 111.787 25.9157C111.841 25.8611 111.872 25.7871 111.872 25.7099C111.872 25.6328 111.841 25.5588 111.787 25.5042C111.732 25.4496 111.658 25.4189 111.581 25.4189Z" fill="white"/>
<path d="M111.581 26.5107H107.645C107.567 26.5107 107.493 26.5414 107.439 26.596C107.384 26.6505 107.354 26.7246 107.354 26.8017C107.354 26.8789 107.384 26.9529 107.439 27.0075C107.493 27.0621 107.567 27.0927 107.645 27.0927H111.581C111.658 27.0927 111.732 27.0621 111.787 27.0075C111.841 26.9529 111.872 26.8789 111.872 26.8017C111.872 26.7246 111.841 26.6505 111.787 26.596C111.732 26.5414 111.658 26.5107 111.581 26.5107Z" fill="white"/>
<path d="M111.581 27.6025H107.645C107.567 27.6025 107.493 27.6332 107.439 27.6878C107.384 27.7423 107.354 27.8164 107.354 27.8935C107.354 27.9707 107.384 28.0447 107.439 28.0993C107.493 28.1539 107.567 28.1845 107.645 28.1845H111.581C111.658 28.1845 111.732 28.1539 111.787 28.0993C111.841 28.0447 111.872 27.9707 111.872 27.8935C111.872 27.8164 111.841 27.7423 111.787 27.6878C111.732 27.6332 111.658 27.6025 111.581 27.6025Z" fill="white"/>
<path d="M38.298 42.9678H25.0466C24.3823 42.9686 23.7455 43.2324 23.2757 43.7014C22.806 44.1704 22.5418 44.8063 22.541 45.4695V56.9291C22.5418 57.5923 22.806 58.2282 23.2757 58.6972C23.7455 59.1662 24.3823 59.43 25.0466 59.4308H38.298C38.9623 59.43 39.5991 59.1662 40.0689 58.6972C40.5386 58.2282 40.8028 57.5923 40.8036 56.9291V45.4695C40.8028 44.8063 40.5386 44.1704 40.0689 43.7014C39.5991 43.2324 38.9623 42.9686 38.298 42.9678Z" fill="#347C84"/>
<path d="M92.9535 47.3994H46.7669C46.4651 47.3994 46.1756 47.5191 45.9622 47.7322C45.7488 47.9453 45.6289 48.2343 45.6289 48.5356C45.6289 48.8369 45.7488 49.1259 45.9622 49.339C46.1756 49.5521 46.4651 49.6718 46.7669 49.6718H92.9535C93.2553 49.6718 93.5447 49.5521 93.7581 49.339C93.9715 49.1259 94.0914 48.8369 94.0914 48.5356C94.0914 48.2343 93.9715 47.9453 93.7581 47.7322C93.5447 47.5191 93.2553 47.3994 92.9535 47.3994Z" fill="#C9CCD0"/>
<path d="M64.3097 52.7241H46.7669C46.4651 52.7241 46.1756 52.8438 45.9622 53.0569C45.7488 53.27 45.6289 53.559 45.6289 53.8603C45.6289 54.1616 45.7488 54.4506 45.9622 54.6637C46.1756 54.8768 46.4651 54.9965 46.7669 54.9965H64.3097C64.6115 54.9965 64.901 54.8768 65.1144 54.6637C65.3278 54.4506 65.4477 54.1616 65.4477 53.8603C65.4477 53.559 65.3278 53.27 65.1144 53.0569C64.901 52.8438 64.6115 52.7241 64.3097 52.7241Z" fill="#C9CCD0"/>
<path d="M38.298 73.5513H25.0466C24.3823 73.5521 23.7455 73.8159 23.2757 74.2849C22.806 74.7539 22.5418 75.3898 22.541 76.053V87.5126C22.5418 88.1758 22.806 88.8117 23.2757 89.2807C23.7455 89.7497 24.3823 90.0135 25.0466 90.0143H38.298C38.9623 90.0135 39.5991 89.7497 40.0689 89.2807C40.5386 88.8117 40.8028 88.1758 40.8036 87.5126V76.053C40.8028 75.3898 40.5386 74.7539 40.0689 74.2849C39.5991 73.8159 38.9623 73.5521 38.298 73.5513Z" fill="#347C84"/>
<path d="M92.9535 77.9829H46.7669C46.4651 77.9829 46.1756 78.1026 45.9622 78.3157C45.7488 78.5288 45.6289 78.8178 45.6289 79.1191C45.6289 79.4204 45.7488 79.7094 45.9622 79.9225C46.1756 80.1355 46.4651 80.2553 46.7669 80.2553H92.9535C93.2553 80.2553 93.5447 80.1355 93.7581 79.9225C93.9715 79.7094 94.0914 79.4204 94.0914 79.1191C94.0914 78.8178 93.9715 78.5288 93.7581 78.3157C93.5447 78.1026 93.2553 77.9829 92.9535 77.9829Z" fill="#C9CCD0"/>
<path d="M64.3097 83.3071H46.7669C46.4651 83.3071 46.1756 83.4268 45.9622 83.6399C45.7488 83.853 45.6289 84.142 45.6289 84.4433C45.6289 84.7446 45.7488 85.0336 45.9622 85.2467C46.1756 85.4598 46.4651 85.5795 46.7669 85.5795H64.3097C64.6115 85.5795 64.901 85.4598 65.1144 85.2467C65.3278 85.0336 65.4477 84.7446 65.4477 84.4433C65.4477 84.142 65.3278 83.853 65.1144 83.6399C64.901 83.4268 64.6115 83.3071 64.3097 83.3071Z" fill="#C9CCD0"/>
<path d="M38.298 104.135H25.0466C24.3823 104.136 23.7455 104.399 23.2757 104.868C22.806 105.337 22.5418 105.973 22.541 106.636V118.096C22.5418 118.759 22.806 119.395 23.2757 119.864C23.7455 120.333 24.3823 120.597 25.0466 120.598H38.298C38.9623 120.597 39.5991 120.333 40.0689 119.864C40.5386 119.395 40.8028 118.759 40.8036 118.096V106.636C40.8028 105.973 40.5386 105.337 40.0689 104.868C39.5991 104.399 38.9623 104.136 38.298 104.135Z" fill="#347C84"/>
<path d="M92.9535 108.566H46.7669C46.4651 108.566 46.1756 108.686 45.9622 108.899C45.7488 109.112 45.6289 109.401 45.6289 109.703C45.6289 110.004 45.7488 110.293 45.9622 110.506C46.1756 110.719 46.4651 110.839 46.7669 110.839H92.9535C93.2553 110.839 93.5447 110.719 93.7581 110.506C93.9715 110.293 94.0914 110.004 94.0914 109.703C94.0914 109.401 93.9715 109.112 93.7581 108.899C93.5447 108.686 93.2553 108.566 92.9535 108.566Z" fill="#C9CCD0"/>
<path d="M64.3097 113.891H46.7669C46.4651 113.891 46.1756 114.01 45.9622 114.223C45.7488 114.436 45.6289 114.725 45.6289 115.027C45.6289 115.328 45.7488 115.617 45.9622 115.83C46.1756 116.043 46.4651 116.163 46.7669 116.163H64.3097C64.6115 116.163 64.901 116.043 65.1144 115.83C65.3278 115.617 65.4477 115.328 65.4477 115.027C65.4477 114.725 65.3278 114.436 65.1144 114.223C64.901 114.01 64.6115 113.891 64.3097 113.891Z" fill="#C9CCD0"/>
<path d="M135.147 157.154H59.2876C58.9378 157.154 58.6533 151.787 58.6533 145.189V74.8061C58.6533 68.208 58.9378 62.8408 59.2876 62.8408H135.147C135.497 62.8408 135.781 68.208 135.781 74.8061V145.189C135.781 151.787 135.497 157.154 135.147 157.154Z" fill="white"/>
<path d="M135.148 157.46H59.2882C58.9673 157.46 58.7354 157.46 58.5341 153.662C58.4138 151.394 58.3477 148.385 58.3477 145.189V74.8058C58.3477 71.6096 58.4138 68.6004 58.5341 66.3328C58.7354 62.5347 58.9673 62.5347 59.2882 62.5347H135.148C135.468 62.5347 135.7 62.5347 135.902 66.3328C136.022 68.6004 136.088 71.6096 136.088 74.8058V145.189C136.088 148.385 136.022 151.394 135.902 153.662C135.7 157.46 135.468 157.46 135.148 157.46ZM59.4578 156.848H134.978C135.198 156.056 135.476 151.834 135.476 145.189V74.8058C135.476 68.1602 135.198 63.9387 134.978 63.1463H59.4578C59.2379 63.9387 58.9603 68.1602 58.9603 74.8058V145.189C58.9603 151.834 59.2379 156.056 59.4578 156.848Z" fill="#C9CCD0"/>
<path d="M135.147 67.8322H59.2876C59.1194 67.832 58.9582 67.7652 58.8393 67.6465C58.7204 67.5278 58.6535 67.3668 58.6533 67.1989V63.4741C58.6535 63.3062 58.7204 63.1452 58.8393 63.0265C58.9582 62.9078 59.1194 62.841 59.2876 62.8408H135.147C135.315 62.841 135.476 62.9078 135.595 63.0265C135.714 63.1452 135.781 63.3062 135.781 63.4741V67.1989C135.781 67.3668 135.714 67.5278 135.595 67.6465C135.476 67.7652 135.315 67.832 135.147 67.8322Z" fill="#E4E5E7"/>
<path d="M62.334 66.0539C62.8314 66.0539 63.2345 65.6514 63.2345 65.1549C63.2345 64.6584 62.8314 64.2559 62.334 64.2559C61.8367 64.2559 61.4336 64.6584 61.4336 65.1549C61.4336 65.6514 61.8367 66.0539 62.334 66.0539Z" fill="white"/>
<path d="M65.752 66.0539C66.2493 66.0539 66.6525 65.6514 66.6525 65.1549C66.6525 64.6584 66.2493 64.2559 65.752 64.2559C65.2547 64.2559 64.8516 64.6584 64.8516 65.1549C64.8516 65.6514 65.2547 66.0539 65.752 66.0539Z" fill="white"/>
<path d="M69.17 66.0539C69.6673 66.0539 70.0704 65.6514 70.0704 65.1549C70.0704 64.6584 69.6673 64.2559 69.17 64.2559C68.6727 64.2559 68.2695 64.6584 68.2695 65.1549C68.2695 65.6514 68.6727 66.0539 69.17 66.0539Z" fill="white"/>
<path d="M131.799 64.5367H127.863C127.785 64.5367 127.711 64.506 127.657 64.4513C127.602 64.3966 127.571 64.3225 127.571 64.2452C127.571 64.1678 127.602 64.0937 127.657 64.039C127.711 63.9843 127.785 63.9536 127.863 63.9536H131.799C131.876 63.9539 131.95 63.9847 132.004 64.0393C132.059 64.094 132.089 64.168 132.089 64.2452C132.089 64.3223 132.059 64.3963 132.004 64.451C131.95 64.5056 131.876 64.5364 131.799 64.5367Z" fill="white"/>
<path d="M131.799 65.6285H127.863C127.785 65.6285 127.711 65.5978 127.657 65.5431C127.602 65.4884 127.571 65.4143 127.571 65.3369C127.571 65.2596 127.602 65.1855 127.657 65.1308C127.711 65.0761 127.785 65.0454 127.863 65.0454H131.799C131.876 65.0454 131.95 65.0761 132.005 65.1308C132.059 65.1855 132.09 65.2596 132.09 65.3369C132.09 65.4143 132.059 65.4884 132.005 65.5431C131.95 65.5978 131.876 65.6285 131.799 65.6285Z" fill="white"/>
<path d="M131.799 66.7198H127.863C127.785 66.7198 127.711 66.6891 127.657 66.6344C127.602 66.5797 127.571 66.5056 127.571 66.4283C127.571 66.3509 127.602 66.2768 127.657 66.2221C127.711 66.1674 127.785 66.1367 127.863 66.1367H131.799C131.876 66.137 131.95 66.1678 132.004 66.2224C132.059 66.2771 132.089 66.3511 132.089 66.4283C132.089 66.5054 132.059 66.5794 132.004 66.6341C131.95 66.6887 131.876 66.7195 131.799 66.7198Z" fill="white"/>
<path d="M82.5985 90.9522H72.9209C72.4357 90.9517 71.9705 90.759 71.6275 90.4164C71.2844 90.0739 71.0914 89.6095 71.0908 89.125V80.7564C71.0914 80.272 71.2844 79.8075 71.6275 79.465C71.9705 79.1224 72.4357 78.9298 72.9209 78.9292H82.5985C83.0837 78.9298 83.5489 79.1224 83.892 79.465C84.2351 79.8075 84.4281 80.272 84.4286 80.7564V89.125C84.4281 89.6095 84.2351 90.0739 83.892 90.4164C83.5489 90.759 83.0837 90.9517 82.5985 90.9522Z" fill="#347C84"/>
<path d="M122.513 83.8261H88.784C88.5636 83.8261 88.3523 83.7387 88.1965 83.5831C88.0407 83.4276 87.9531 83.2166 87.9531 82.9966C87.9531 82.7765 88.0407 82.5655 88.1965 82.41C88.3523 82.2544 88.5636 82.167 88.784 82.167H122.513C122.733 82.167 122.945 82.2544 123.1 82.41C123.256 82.5655 123.344 82.7765 123.344 82.9966C123.344 83.2166 123.256 83.4276 123.1 83.5831C122.945 83.7387 122.733 83.8261 122.513 83.8261Z" fill="#C9CCD0"/>
<path d="M101.595 87.7143H88.784C88.5636 87.7143 88.3523 87.6269 88.1965 87.4713C88.0407 87.3158 87.9531 87.1048 87.9531 86.8847C87.9531 86.6647 88.0407 86.4537 88.1965 86.2982C88.3523 86.1426 88.5636 86.0552 88.784 86.0552H101.595C101.704 86.055 101.812 86.0763 101.913 86.1179C102.014 86.1595 102.106 86.2205 102.183 86.2976C102.261 86.3746 102.322 86.4662 102.364 86.5669C102.406 86.6677 102.427 86.7757 102.427 86.8847C102.427 86.9938 102.406 87.1018 102.364 87.2026C102.322 87.3033 102.261 87.3948 102.183 87.4719C102.106 87.549 102.014 87.61 101.913 87.6516C101.812 87.6932 101.704 87.7145 101.595 87.7143Z" fill="#C9CCD0"/>
<path d="M82.5985 115.725H72.9209C72.4357 115.724 71.9705 115.531 71.6275 115.189C71.2844 114.846 71.0914 114.382 71.0908 113.897V105.529C71.0914 105.044 71.2844 104.58 71.6275 104.237C71.9705 103.895 72.4357 103.702 72.9209 103.702H82.5985C83.0837 103.702 83.5489 103.895 83.892 104.237C84.2351 104.58 84.4281 105.044 84.4286 105.529V113.897C84.4281 114.382 84.2351 114.846 83.892 115.189C83.5489 115.531 83.0837 115.724 82.5985 115.725Z" fill="#347C84"/>
<path d="M122.513 108.599H88.784C88.5636 108.599 88.3523 108.511 88.1965 108.356C88.0407 108.2 87.9531 107.989 87.9531 107.769C87.9531 107.549 88.0407 107.338 88.1965 107.182C88.3523 107.027 88.5636 106.939 88.784 106.939H122.513C122.733 106.939 122.945 107.027 123.1 107.182C123.256 107.338 123.344 107.549 123.344 107.769C123.344 107.989 123.256 108.2 123.1 108.356C122.945 108.511 122.733 108.599 122.513 108.599Z" fill="#C9CCD0"/>
<path d="M101.595 112.487H88.784C88.5636 112.487 88.3523 112.399 88.1965 112.244C88.0407 112.088 87.9531 111.877 87.9531 111.657C87.9531 111.437 88.0407 111.226 88.1965 111.071C88.3523 110.915 88.5636 110.828 88.784 110.828H101.595C101.704 110.827 101.812 110.849 101.913 110.89C102.014 110.932 102.106 110.993 102.183 111.07C102.261 111.147 102.322 111.239 102.364 111.339C102.406 111.44 102.427 111.548 102.427 111.657C102.427 111.766 102.406 111.874 102.364 111.975C102.322 112.076 102.261 112.167 102.183 112.244C102.106 112.321 102.014 112.382 101.913 112.424C101.812 112.466 101.704 112.487 101.595 112.487Z" fill="#C9CCD0"/>
<path d="M82.5985 140.497H72.9209C72.4357 140.497 71.9705 140.304 71.6275 139.961C71.2844 139.619 71.0914 139.154 71.0908 138.67V130.301C71.0914 129.817 71.2844 129.352 71.6275 129.01C71.9705 128.667 72.4357 128.475 72.9209 128.474H82.5985C83.0837 128.475 83.5489 128.667 83.892 129.01C84.2351 129.352 84.4281 129.817 84.4286 130.301V138.67C84.4281 139.154 84.2351 139.619 83.892 139.961C83.5489 140.304 83.0837 140.497 82.5985 140.497Z" fill="#347C84"/>
<path d="M122.513 133.371H88.784C88.5636 133.371 88.3523 133.284 88.1965 133.128C88.0407 132.973 87.9531 132.761 87.9531 132.541C87.9531 132.321 88.0407 132.11 88.1965 131.955C88.3523 131.799 88.5636 131.712 88.784 131.712H122.513C122.733 131.712 122.945 131.799 123.1 131.955C123.256 132.11 123.344 132.321 123.344 132.541C123.344 132.761 123.256 132.973 123.1 133.128C122.945 133.284 122.733 133.371 122.513 133.371Z" fill="#C9CCD0"/>
<path d="M101.595 137.259H88.784C88.5636 137.259 88.3523 137.172 88.1965 137.016C88.0407 136.861 87.9531 136.65 87.9531 136.43C87.9531 136.21 88.0407 135.999 88.1965 135.843C88.3523 135.687 88.5636 135.6 88.784 135.6H101.595C101.704 135.6 101.812 135.621 101.913 135.663C102.014 135.704 102.106 135.765 102.183 135.843C102.261 135.92 102.322 136.011 102.364 136.112C102.406 136.213 102.427 136.321 102.427 136.43C102.427 136.539 102.406 136.647 102.364 136.747C102.322 136.848 102.261 136.94 102.183 137.017C102.106 137.094 102.014 137.155 101.913 137.197C101.812 137.238 101.704 137.259 101.595 137.259Z" fill="#C9CCD0"/>
</g>
<defs>
<clipPath id="clip0_863_3271">
<rect width="172" height="134" fill="white" transform="translate(0.5 24)"/>
</clipPath>
</defs>
</svg>
