<svg width="20" height="20" viewBox="0 0 20 20" fill="none" xmlns="http://www.w3.org/2000/svg">
<path fill-rule="evenodd" clip-rule="evenodd" d="M7 2C5.896 2 5 2.896 5 4C5 5.104 5.896 6 7 6C8.104 6 9 5.104 9 4C9 2.896 8.104 2 7 2ZM7 8C5.896 8 5 8.896 5 10C5 11.104 5.896 12 7 12C8.104 12 9 11.104 9 10C9 8.896 8.104 8 7 8ZM7 14C5.896 14 5 14.896 5 16C5 17.104 5.896 18 7 18C8.104 18 9 17.104 9 16C9 14.896 8.104 14 7 14ZM13 6C14.104 6 15 5.104 15 4C15 2.896 14.104 2 13 2C11.896 2 11 2.896 11 4C11 5.104 11.896 6 13 6ZM13 8C11.896 8 11 8.896 11 10C11 11.104 11.896 12 13 12C14.104 12 15 11.104 15 10C15 8.896 14.104 8 13 8ZM13 14C11.896 14 11 14.896 11 16C11 17.104 11.896 18 13 18C14.104 18 15 17.104 15 16C15 14.896 14.104 14 13 14Z" fill="#5C5F62"/>
</svg>
