<svg width="173" height="204" viewBox="0 0 173 204" fill="none" xmlns="http://www.w3.org/2000/svg">
<g clip-path="url(#clip0_863_3333)">
<path d="M75.6748 153.02H3.90792C3.0044 153.019 2.13817 152.658 1.49928 152.018C0.860392 151.377 0.501017 150.509 0.5 149.603V51.934C0.501017 51.0282 0.860392 50.1598 1.49928 49.5193C2.13817 48.8789 3.0044 48.5186 3.90792 48.5176H75.6748C76.5783 48.5186 77.4446 48.8789 78.0835 49.5193C78.7223 50.1598 79.0817 51.0282 79.0827 51.934V149.603C79.0817 150.509 78.7223 151.377 78.0835 152.018C77.4446 152.658 76.5783 153.019 75.6748 153.02V153.02Z" fill="white"/>
<path d="M36.5559 73.9363C36.5559 76.7571 35.6658 79.5056 34.0129 81.7884C32.36 84.0712 30.0291 85.7713 27.3538 86.6453C27.2738 86.6709 27.1938 86.6964 27.1126 86.7207C26.7661 86.8276 26.4147 86.9187 26.0572 86.9964C25.4102 87.1371 24.7536 87.2285 24.0929 87.2697C23.8058 87.2892 23.517 87.2989 23.2265 87.2989C21.7259 87.3004 20.2358 87.0474 18.8193 86.5506C18.7781 86.536 18.737 86.5214 18.697 86.5069C16.402 85.6759 14.3785 84.2295 12.8471 82.3251C11.3156 80.4208 10.3349 78.1316 10.0119 75.7069C9.68883 73.2823 10.0358 70.8153 11.015 68.5748C11.9942 66.3342 13.568 64.4061 15.565 63.0005C17.562 61.5948 19.9055 60.7656 22.3402 60.6032C24.7748 60.4408 27.2073 60.9514 29.3724 62.0794C31.5376 63.2074 33.3524 64.9095 34.619 67.0003C35.8857 69.091 36.5557 71.4902 36.5559 73.9363V73.9363Z" fill="white"/>
<path d="M22.9071 82.7899C26.4888 82.7899 29.3924 79.8791 29.3924 76.2885C29.3924 72.6979 26.4888 69.7871 22.9071 69.7871C19.3254 69.7871 16.4219 72.6979 16.4219 76.2885C16.4219 79.8791 19.3254 82.7899 22.9071 82.7899Z" fill="#347C84"/>
<path d="M23.2858 79.7912L23.2926 79.5483C22.8417 79.5357 22.4442 79.5073 22.1455 79.2886C22.0609 79.223 21.9913 79.14 21.9415 79.0451C21.8917 78.9501 21.8629 78.8456 21.857 78.7385C21.8517 78.6731 21.8616 78.6073 21.8858 78.5463C21.9101 78.4853 21.948 78.4308 21.9967 78.3869C22.1095 78.3183 22.2387 78.2815 22.3707 78.2803C22.5026 78.2791 22.6325 78.3137 22.7465 78.3802L22.947 78.4724L22.5625 75.6553L22.3224 75.6883L22.6495 78.0846C22.5156 78.0348 22.3714 78.0194 22.23 78.0398C22.0887 78.0602 21.9547 78.1157 21.8402 78.2013C21.7632 78.2687 21.7028 78.353 21.6637 78.4477C21.6246 78.5424 21.6079 78.6448 21.6148 78.747C21.6219 78.8909 21.6603 79.0315 21.7272 79.1589C21.7942 79.2864 21.8882 79.3976 22.0026 79.4848C22.3864 79.766 22.8851 79.7799 23.2858 79.7912Z" fill="#6D7175"/>
<path d="M21.1353 75.895H19.8301V76.1374H21.1353V75.895Z" fill="#6D7175"/>
<path d="M25.2554 75.895H23.9502V76.1374H25.2554V75.895Z" fill="#6D7175"/>
<path d="M24.75 85.3775C24.7672 85.2976 24.7761 85.2162 24.7767 85.1345C24.7762 84.8286 24.6548 84.5353 24.439 84.319C24.2232 84.1027 23.9307 83.981 23.6255 83.9805H21.929C21.6238 83.9807 21.3312 84.1024 21.1153 84.3188C20.8995 84.5351 20.7781 84.8285 20.7779 85.1345C20.7778 85.2166 20.7867 85.2985 20.8045 85.3787C20.1641 85.581 19.5587 85.8813 19.0099 86.2691C18.9032 86.3432 18.7979 86.4234 18.6973 86.5072C18.7373 86.5218 18.7785 86.5364 18.8196 86.5509C20.2361 87.0477 21.7262 87.3007 23.2268 87.2992C23.5176 87.2992 23.8064 87.2895 24.0932 87.2701C24.7539 87.2289 25.4106 87.1375 26.0575 86.9968C26.415 86.919 26.7664 86.8279 27.1129 86.721C26.4273 86.113 25.6224 85.6553 24.75 85.3775V85.3775Z" fill="#6D7175"/>
<path d="M24.5314 87.1153C24.3742 87.1269 24.2228 87.18 24.0928 87.2692C24.7535 87.2281 25.4101 87.137 26.057 86.9966L24.5314 87.1153Z" fill="#6D7175"/>
<path d="M28.7895 74.744L17.5233 70.6122C17.4025 70.5679 17.3043 70.4774 17.2502 70.3605C17.196 70.2436 17.1904 70.1099 17.2346 69.9889L17.2727 69.8083C18.1526 67.3971 21.0689 65.8797 23.474 66.7618L26.9409 68.0332C29.346 68.9153 30.3914 71.7703 29.5115 74.1815L29.4112 74.4546C29.367 74.5756 29.2767 74.6741 29.1601 74.7283C29.0435 74.7826 28.9102 74.7882 28.7895 74.744V74.744Z" fill="#6D7175"/>
<path d="M29.3963 74.973C13.6934 75.5539 12.3213 73.5759 17.1059 70.4656L18.1209 68.5933L29.7538 72.845L29.3963 74.973Z" fill="#6D7175"/>
<path d="M26.3173 67.7365C26.404 67.4474 26.0326 67.0799 25.4878 66.9157C24.9431 66.7516 24.4312 66.8529 24.3445 67.142C24.2578 67.4311 24.6291 67.7986 25.1739 67.9628C25.7187 68.1269 26.2306 68.0256 26.3173 67.7365Z" fill="#6D7175"/>
<path d="M23.2271 87.6633C21.6855 87.665 20.1548 87.405 18.6997 86.8945L18.5733 86.8493C15.5254 85.7451 12.967 83.593 11.3531 80.7757C9.73913 77.9585 9.17424 74.6587 9.75885 71.4631C10.3435 68.2676 12.0397 65.3835 14.5459 63.3238C17.0521 61.2641 20.2058 60.1622 23.4461 60.2142C26.6864 60.2661 29.8034 61.4685 32.2426 63.6075C34.6818 65.7466 36.2851 68.6836 36.7675 71.8962C37.2499 75.1088 36.58 78.3888 34.877 81.1529C33.174 83.917 30.5483 85.986 27.4668 86.9919C27.3807 87.0194 27.2996 87.0452 27.2172 87.0698C26.8731 87.176 26.5079 87.2714 26.1348 87.3525C25.4699 87.497 24.7949 87.5909 24.1159 87.6334C23.8241 87.6532 23.5244 87.6633 23.2271 87.6633ZM23.2271 60.9381C20.176 60.9386 17.2228 62.0175 14.8869 63.9851C12.5509 65.9527 10.9818 68.6831 10.4556 71.6959C9.92937 74.7088 10.4797 77.8111 12.0097 80.4574C13.5398 83.1037 15.9516 85.1243 18.821 86.164L18.9411 86.2069C20.3186 86.6901 21.7677 86.9361 23.2271 86.9344C23.5081 86.9344 23.7913 86.9249 24.069 86.9061C24.7121 86.8659 25.3512 86.777 25.9809 86.6402C26.3338 86.5635 26.6788 86.4733 27.0063 86.3724C27.0874 86.348 27.1644 86.3235 27.2414 86.2989C30.1763 85.3406 32.674 83.3642 34.2855 80.725C35.897 78.0858 36.5165 74.9569 36.0328 71.9007C35.549 68.8446 33.9937 66.0617 31.6464 64.0522C29.2991 62.0427 26.3138 60.9385 23.2271 60.9381V60.9381Z" fill="#DBDDDF"/>
<path d="M75.6748 153.02H3.90792C3.0044 153.019 2.13817 152.658 1.49928 152.018C0.860392 151.377 0.501017 150.509 0.5 149.603V51.934C0.501017 51.0282 0.860392 50.1598 1.49928 49.5193C2.13817 48.8789 3.0044 48.5186 3.90792 48.5176H75.6748C76.5783 48.5186 77.4446 48.8789 78.0835 49.5193C78.7223 50.1598 79.0817 51.0282 79.0827 51.934V149.603C79.0817 150.509 78.7223 151.377 78.0835 152.018C77.4446 152.658 76.5783 153.019 75.6748 153.02V153.02ZM3.90792 48.9195C3.1107 48.9204 2.34639 49.2383 1.78266 49.8034C1.21894 50.3686 0.901836 51.1348 0.900932 51.934V149.603C0.901836 150.402 1.21893 151.169 1.78265 151.734C2.34638 152.299 3.11069 152.617 3.90792 152.618H75.6748C76.472 152.617 77.2363 152.299 77.8001 151.734C78.3638 151.169 78.6809 150.402 78.6818 149.603V51.934C78.6809 51.1348 78.3638 50.3686 77.8001 49.8034C77.2363 49.2383 76.472 48.9204 75.6748 48.9195H3.90792Z" fill="#DBDDDF"/>
<path d="M61.7813 73.8847H41.4737C41.048 73.8842 40.6398 73.7143 40.339 73.4123C40.0381 73.1103 39.8691 72.7009 39.8691 72.2741C39.8691 71.8473 40.0381 71.438 40.339 71.136C40.6398 70.834 41.048 70.6641 41.4737 70.6636H61.7813C61.9924 70.6633 62.2015 70.7048 62.3967 70.7856C62.5918 70.8664 62.7692 70.985 62.9186 71.1346C63.068 71.2842 63.1865 71.4618 63.2673 71.6573C63.3482 71.8529 63.3898 72.0625 63.3898 72.2741C63.3898 72.4858 63.3482 72.6954 63.2673 72.8909C63.1865 73.0865 63.068 73.2641 62.9186 73.4137C62.7692 73.5633 62.5918 73.6819 62.3967 73.7627C62.2015 73.8435 61.9924 73.885 61.7813 73.8847V73.8847Z" fill="#E4E5E7"/>
<path d="M68.4083 79.3202H41.4737C41.048 79.3197 40.6398 79.1498 40.339 78.8478C40.0381 78.5458 39.8691 78.1365 39.8691 77.7097C39.8691 77.2829 40.0381 76.8735 40.339 76.5716C40.6398 76.2696 41.048 76.0996 41.4737 76.0991H68.4083C68.8341 76.0996 69.2422 76.2696 69.543 76.5716C69.8439 76.8735 70.0129 77.2829 70.0129 77.7097C70.0129 78.1365 69.8439 78.5458 69.543 78.8478C69.2422 79.1498 68.8341 79.3197 68.4083 79.3202V79.3202Z" fill="#E4E5E7"/>
<path d="M61.7519 100.168H11.174C10.9628 100.168 10.7537 100.127 10.5586 100.046C10.3634 99.9651 10.1861 99.8465 10.0367 99.6969C9.88728 99.5473 9.76877 99.3697 9.68791 99.1741C9.60705 98.9786 9.56543 98.769 9.56543 98.5573C9.56543 98.3457 9.60705 98.1361 9.68791 97.9405C9.76877 97.745 9.88728 97.5674 10.0367 97.4178C10.1861 97.2682 10.3634 97.1496 10.5586 97.0688C10.7537 96.988 10.9628 96.9465 11.174 96.9468H61.7519C62.1777 96.9473 62.5858 97.1172 62.8866 97.4192C63.1875 97.7212 63.3565 98.1305 63.3565 98.5573C63.3565 98.9841 63.1875 99.3935 62.8866 99.6955C62.5858 99.9975 62.1777 100.167 61.7519 100.168V100.168Z" fill="#E4E5E7"/>
<path d="M68.379 105.604H11.174C10.9628 105.604 10.7537 105.563 10.5586 105.482C10.3634 105.401 10.1861 105.282 10.0367 105.133C9.88728 104.983 9.76877 104.806 9.68791 104.61C9.60705 104.415 9.56543 104.205 9.56543 103.993C9.56543 103.782 9.60705 103.572 9.68791 103.377C9.76877 103.181 9.88728 103.003 10.0367 102.854C10.1861 102.704 10.3634 102.586 10.5586 102.505C10.7537 102.424 10.9628 102.383 11.174 102.383H68.379C68.5901 102.383 68.7992 102.424 68.9944 102.505C69.1895 102.586 69.3669 102.704 69.5163 102.854C69.6657 103.003 69.7842 103.181 69.865 103.377C69.9459 103.572 69.9875 103.782 69.9875 103.993C69.9875 104.205 69.9459 104.415 69.865 104.61C69.7842 104.806 69.6657 104.983 69.5163 105.133C69.3669 105.282 69.1895 105.401 68.9944 105.482C68.7992 105.563 68.5901 105.604 68.379 105.604V105.604Z" fill="#E4E5E7"/>
<path d="M61.7519 118.097H11.1739C10.7479 118.097 10.3392 117.927 10.0379 117.625C9.73664 117.323 9.56738 116.914 9.56738 116.487C9.56738 116.059 9.73664 115.65 10.0379 115.348C10.3392 115.046 10.7479 114.876 11.1739 114.876H61.7519C62.178 114.876 62.5866 115.046 62.8879 115.348C63.1892 115.65 63.3584 116.059 63.3584 116.487C63.3584 116.914 63.1892 117.323 62.8879 117.625C62.5866 117.927 62.178 118.097 61.7519 118.097V118.097Z" fill="#E4E5E7"/>
<path d="M68.3789 123.533H11.1739C10.7479 123.533 10.3392 123.363 10.0379 123.061C9.73664 122.759 9.56738 122.349 9.56738 121.922C9.56738 121.495 9.73664 121.085 10.0379 120.783C10.3392 120.481 10.7479 120.312 11.1739 120.312H68.3789C68.805 120.312 69.2137 120.481 69.5149 120.783C69.8162 121.085 69.9855 121.495 69.9855 121.922C69.9855 122.349 69.8162 122.759 69.5149 123.061C69.2137 123.363 68.805 123.533 68.3789 123.533V123.533Z" fill="#E4E5E7"/>
<path d="M61.7519 136.026H11.1739C10.7479 136.026 10.3392 135.856 10.0379 135.554C9.73664 135.252 9.56738 134.842 9.56738 134.415C9.56738 133.988 9.73664 133.578 10.0379 133.276C10.3392 132.974 10.7479 132.805 11.1739 132.805H61.7519C62.178 132.805 62.5866 132.974 62.8879 133.276C63.1892 133.578 63.3584 133.988 63.3584 134.415C63.3584 134.842 63.1892 135.252 62.8879 135.554C62.5866 135.856 62.178 136.026 61.7519 136.026V136.026Z" fill="#E4E5E7"/>
<path d="M68.3789 141.461H11.1739C10.7479 141.461 10.3392 141.292 10.0379 140.99C9.73664 140.688 9.56738 140.278 9.56738 139.851C9.56738 139.424 9.73664 139.014 10.0379 138.712C10.3392 138.41 10.7479 138.24 11.1739 138.24H68.3789C68.805 138.24 69.2137 138.41 69.5149 138.712C69.8162 139.014 69.9855 139.424 69.9855 139.851C69.9855 140.278 69.8162 140.688 69.5149 140.99C69.2137 141.292 68.805 141.461 68.3789 141.461V141.461Z" fill="#E4E5E7"/>
<path d="M169.092 128.502L97.325 128.502C96.4215 128.501 95.5553 128.141 94.9164 127.5C94.2775 126.86 93.9181 125.991 93.9171 125.086L93.917 27.4165C93.918 26.5107 94.2774 25.6423 94.9163 25.0018C95.5552 24.3613 96.4214 24.0011 97.3249 24.0001L169.092 24C169.995 24.001 170.862 24.3613 171.5 25.0018C172.139 25.6422 172.499 26.5106 172.5 27.4164L172.5 125.086C172.499 125.991 172.139 126.86 171.501 127.5C170.862 128.141 169.995 128.501 169.092 128.502V128.502Z" fill="white"/>
<path d="M169.092 128.502L97.325 128.502C96.4215 128.501 95.5553 128.141 94.9164 127.5C94.2775 126.86 93.9181 125.991 93.9171 125.086L93.917 27.4165C93.918 26.5107 94.2774 25.6423 94.9163 25.0018C95.5552 24.3613 96.4214 24.0011 97.3249 24.0001L169.092 24C169.995 24.001 170.862 24.3613 171.5 25.0018C172.139 25.6422 172.499 26.5106 172.5 27.4164L172.5 125.086C172.499 125.991 172.139 126.86 171.501 127.5C170.862 128.141 169.995 128.501 169.092 128.502V128.502ZM97.3249 24.402C96.5277 24.4029 95.7634 24.7208 95.1996 25.2859C94.6359 25.851 94.3188 26.6173 94.3179 27.4165L94.318 125.086C94.3189 125.885 94.636 126.651 95.1997 127.216C95.7635 127.781 96.5278 128.099 97.325 128.1L169.092 128.1C169.889 128.099 170.653 127.781 171.217 127.216C171.781 126.651 172.098 125.885 172.099 125.086L172.099 27.4164C172.098 26.6172 171.781 25.851 171.217 25.2859C170.653 24.7207 169.889 24.4028 169.092 24.4019L97.3249 24.402Z" fill="#DBDDDF"/>
<path d="M130.007 49.2854C130.007 51.9283 129.226 54.5118 127.761 56.7093C126.296 58.9068 124.215 60.6195 121.779 61.6309C119.343 62.6422 116.663 62.9069 114.078 62.3913C111.492 61.8757 109.117 60.603 107.253 58.7342C105.389 56.8654 104.119 54.4844 103.605 51.8924C103.09 49.3003 103.354 46.6135 104.363 44.1718C105.372 41.7301 107.081 39.6432 109.273 38.1749C111.465 36.7066 114.042 35.9229 116.678 35.9229C120.213 35.924 123.603 37.3322 126.102 39.8379C128.602 42.3436 130.006 45.7418 130.007 49.2854V49.2854Z" fill="white"/>
<path d="M122.839 51.5722C122.693 60.1183 110.013 60.1169 109.868 51.5719C110.014 43.0261 122.694 43.0274 122.839 51.5722Z" fill="#347C84"/>
<path d="M116.096 54.2248L116.089 53.9819C117.759 54.2054 118.119 52.1301 116.434 52.906L116.819 50.0889L117.059 50.1218L116.732 52.5182C118.506 52.2535 117.85 54.4676 116.096 54.2248Z" fill="#6D7175"/>
<path d="M119.551 50.3281H118.246V50.5705H119.551V50.3281Z" fill="#6D7175"/>
<path d="M115.431 50.3281H114.126V50.5705H115.431V50.3281Z" fill="#6D7175"/>
<path d="M118.455 60.662C118.71 58.9407 116.7 59.2808 115.636 59.2638C115.464 59.2643 115.295 59.3032 115.14 59.3776C114.985 59.452 114.849 59.5601 114.742 59.6939C114.634 59.8278 114.557 59.984 114.517 60.1513C114.478 60.3185 114.475 60.4926 114.511 60.6608C113.688 60.916 112.925 61.3377 112.271 61.8999C115.029 62.8641 118.026 62.8974 120.805 61.9946C120.128 61.3847 119.326 60.93 118.455 60.662Z" fill="#6D7175"/>
<path d="M113.304 48.4969C114.506 47.8005 115.964 48.3348 117.205 48.6268C119.56 49.3527 122.864 48.4437 123.15 45.6309C123.448 43.0149 119.878 41.5568 118.737 44.1605L119.07 44.117C115.369 38.6041 108.933 38.8132 108.975 46.3925C108.961 46.6266 109.325 46.6258 109.338 46.3923C109.202 41.926 112.151 38.8729 116.319 41.7432C117.25 42.4737 118.07 43.3352 118.756 44.301C119.19 44.7886 119.284 42.6884 121.362 43.2385C123.648 44.1265 122.902 47.4087 120.858 48.1292C118.333 49.4225 115.599 46.915 113.121 48.182C113.081 48.2073 113.052 48.2471 113.041 48.293C113.03 48.339 113.037 48.3875 113.061 48.4283C113.085 48.4692 113.123 48.4991 113.169 48.5119C113.214 48.5247 113.263 48.5193 113.304 48.4969V48.4969Z" fill="#6D7175"/>
<path d="M116.678 63.0125C113.235 63.0096 109.921 61.706 107.395 59.3618C104.869 57.0175 103.317 53.8049 103.049 50.3646C102.781 46.9243 103.817 43.5092 105.949 40.8003C108.082 38.0915 111.154 36.288 114.554 35.7496C117.955 35.2111 121.432 35.9773 124.294 37.8953C127.155 39.8133 129.19 42.7422 129.993 46.0978C130.796 49.4533 130.308 52.989 128.626 55.9997C126.943 59.0103 124.191 61.2747 120.917 62.3411C119.548 62.7875 118.117 63.0141 116.678 63.0125ZM116.678 36.2873C114.113 36.287 111.605 37.0491 109.473 38.4775C107.34 39.9058 105.677 41.9361 104.696 44.3116C103.714 46.6871 103.457 49.3011 103.957 51.823C104.458 54.345 105.693 56.6615 107.506 58.4797C109.32 60.2979 111.631 61.5361 114.146 62.0376C116.662 62.5392 119.27 62.2816 121.639 61.2974C124.009 60.3132 126.034 58.6467 127.459 56.5086C128.884 54.3705 129.644 51.8568 129.644 49.2855C129.64 45.8393 128.272 42.5355 125.842 40.0987C123.411 37.6619 120.115 36.2912 116.678 36.2873V36.2873Z" fill="#DBDDDF"/>
<path d="M155.199 49.3666L134.892 49.3666C134.466 49.3666 134.057 49.197 133.756 48.8949C133.454 48.5929 133.285 48.1832 133.285 47.7561C133.285 47.3289 133.454 46.9193 133.756 46.6172C134.057 46.3152 134.466 46.1455 134.892 46.1455L155.199 46.1455C155.625 46.1455 156.034 46.3152 156.335 46.6172C156.637 46.9193 156.806 47.3289 156.806 47.7561C156.806 48.1832 156.637 48.5929 156.335 48.8949C156.034 49.1969 155.625 49.3666 155.199 49.3666V49.3666Z" fill="#E4E5E7"/>
<path d="M161.825 54.8022L134.891 54.8022C134.68 54.8025 134.47 54.761 134.275 54.6802C134.08 54.5994 133.903 54.4808 133.753 54.3312C133.604 54.1816 133.486 54.004 133.405 53.8084C133.324 53.6129 133.282 53.4033 133.282 53.1916C133.282 52.98 133.324 52.7704 133.405 52.5748C133.486 52.3793 133.604 52.2017 133.753 52.0521C133.903 51.9025 134.08 51.7839 134.275 51.7031C134.47 51.6223 134.68 51.5808 134.891 51.5811L161.825 51.5811C162.251 51.5811 162.66 51.7507 162.961 52.0528C163.263 52.3548 163.432 52.7645 163.432 53.1916C163.432 53.6188 163.263 54.0284 162.961 54.3305C162.66 54.6325 162.251 54.8022 161.825 54.8022Z" fill="#E4E5E7"/>
<path d="M155.169 75.6503L104.591 75.6504C104.165 75.6498 103.757 75.4799 103.456 75.1779C103.155 74.876 102.986 74.4666 102.986 74.0398C102.986 73.613 103.155 73.2036 103.456 72.9017C103.757 72.5997 104.165 72.4298 104.591 72.4292L155.169 72.4292C155.595 72.4292 156.004 72.5989 156.305 72.9009C156.606 73.203 156.775 73.6126 156.775 74.0398C156.775 74.4669 156.606 74.8766 156.305 75.1786C156.004 75.4806 155.595 75.6503 155.169 75.6503V75.6503Z" fill="#E4E5E7"/>
<path d="M161.796 81.0859L104.591 81.0859C104.38 81.0862 104.171 81.0447 103.976 80.9639C103.78 80.8831 103.603 80.7645 103.454 80.6149C103.304 80.4653 103.186 80.2877 103.105 80.0921C103.024 79.8966 102.982 79.687 102.982 79.4754C102.982 79.2637 103.024 79.0541 103.105 78.8586C103.186 78.663 103.304 78.4854 103.454 78.3358C103.603 78.1862 103.78 78.0676 103.976 77.9868C104.171 77.906 104.38 77.8645 104.591 77.8648L161.796 77.8647C162.222 77.8647 162.631 78.0344 162.932 78.3365C163.233 78.6385 163.403 79.0482 163.403 79.4753C163.403 79.9025 163.233 80.3121 162.932 80.6141C162.631 80.9162 162.222 81.0859 161.796 81.0859V81.0859Z" fill="#E4E5E7"/>
<path d="M155.169 93.579L104.591 93.5791C104.165 93.5785 103.757 93.4086 103.456 93.1066C103.155 92.8047 102.986 92.3953 102.986 91.9685C102.986 91.5417 103.155 91.1324 103.456 90.8304C103.757 90.5284 104.165 90.3585 104.591 90.3579L155.169 90.3579C155.595 90.3579 156.004 90.5276 156.305 90.8296C156.606 91.1317 156.775 91.5413 156.775 91.9685C156.775 92.3956 156.606 92.8053 156.305 93.1073C156.004 93.4093 155.595 93.579 155.169 93.579Z" fill="#E4E5E7"/>
<path d="M161.796 99.0146L104.591 99.0146C104.38 99.0149 104.171 98.9734 103.976 98.8926C103.78 98.8118 103.603 98.6932 103.454 98.5436C103.304 98.394 103.186 98.2164 103.105 98.0209C103.024 97.8253 102.982 97.6157 102.982 97.4041C102.982 97.1924 103.024 96.9828 103.105 96.7873C103.186 96.5917 103.304 96.4141 103.454 96.2645C103.603 96.1149 103.78 95.9963 103.976 95.9155C104.171 95.8347 104.38 95.7932 104.591 95.7935L161.796 95.7935C162.222 95.7935 162.631 95.9631 162.932 96.2652C163.233 96.5672 163.403 96.9769 163.403 97.404C163.403 97.8312 163.233 98.2408 162.932 98.5429C162.631 98.8449 162.222 99.0146 161.796 99.0146V99.0146Z" fill="#E4E5E7"/>
<path d="M155.169 111.508L104.591 111.508C104.165 111.508 103.756 111.338 103.455 111.036C103.154 110.734 102.984 110.324 102.984 109.897C102.984 109.47 103.154 109.06 103.455 108.758C103.756 108.456 104.165 108.287 104.591 108.287L155.169 108.287C155.595 108.287 156.004 108.456 156.305 108.758C156.606 109.06 156.775 109.47 156.775 109.897C156.775 110.324 156.606 110.734 156.305 111.036C156.004 111.338 155.595 111.508 155.169 111.508V111.508Z" fill="#E4E5E7"/>
<path d="M161.796 116.944L104.591 116.944C104.165 116.944 103.756 116.774 103.455 116.472C103.154 116.17 102.984 115.76 102.984 115.333C102.984 114.906 103.154 114.496 103.455 114.194C103.756 113.892 104.165 113.723 104.591 113.723L161.796 113.723C162.222 113.723 162.631 113.892 162.932 114.194C163.233 114.496 163.402 114.906 163.402 115.333C163.402 115.76 163.233 116.17 162.932 116.472C162.631 116.774 162.222 116.944 161.796 116.944V116.944Z" fill="#E4E5E7"/>
<path d="M125.791 170.504H54.0241C53.1206 170.503 52.2544 170.143 51.6155 169.502C50.9766 168.862 50.6172 167.993 50.6162 167.088V69.4184C50.6172 68.5126 50.9766 67.6442 51.6155 67.0037C52.2544 66.3632 53.1206 66.003 54.0241 66.002H125.791C126.695 66.003 127.561 66.3632 128.2 67.0037C128.839 67.6442 129.198 68.5126 129.199 69.4184V167.088C129.198 167.993 128.839 168.862 128.2 169.502C127.561 170.143 126.695 170.503 125.791 170.504V170.504Z" fill="white"/>
<path d="M60.0098 91.1458C60.0075 92.9046 60.3525 94.6464 61.0251 96.2708C61.6977 97.8952 62.6845 99.37 63.9286 100.61C64.0329 100.713 64.1395 100.817 64.2473 100.917C64.8969 101.526 65.6057 102.068 66.3631 102.534C66.5084 102.624 66.6539 102.71 66.8029 102.794C67.5688 103.227 68.3758 103.582 69.2119 103.855C69.3561 103.902 69.5027 103.947 69.6493 103.988C72.3071 104.753 75.1357 104.673 77.7464 103.76C77.7972 103.742 77.8481 103.724 77.8978 103.705C80.1896 102.87 82.2087 101.419 83.7355 99.513C85.2622 97.6066 86.238 95.3168 86.5566 92.893C86.8752 90.4691 86.5245 88.0041 85.5426 85.7662C84.5606 83.5284 82.9852 81.6034 80.9876 80.2009C78.9901 78.7984 76.6471 77.9721 74.2136 77.8119C71.7801 77.6518 69.3494 78.1639 67.1861 79.2925C65.0229 80.4212 63.2099 82.1232 61.9445 84.2131C60.6792 86.3031 60.01 88.701 60.0098 91.1458V91.1458Z" fill="white"/>
<path d="M70.5245 97.6953C70.531 98.7305 70.1504 99.7306 69.4577 100.498C68.7723 101.253 67.752 101.753 66.7223 101.546C65.7742 101.355 65.0038 100.524 65.0999 99.5195C65.1159 99.3018 65.179 99.0902 65.2848 98.8995C65.3907 98.7088 65.5368 98.5435 65.7129 98.4152C65.889 98.2869 66.091 98.1986 66.3046 98.1566C66.5182 98.1145 66.7384 98.1197 66.9499 98.1717C67.8505 98.406 68.2094 99.7073 67.4589 100.318C67.2788 100.465 67.0201 100.208 67.2018 100.06C67.3139 99.9576 67.3985 99.8283 67.4478 99.6843C67.4972 99.5403 67.5097 99.3862 67.4842 99.2361C67.4587 99.086 67.3961 98.9447 67.302 98.8251C67.208 98.7055 67.0855 98.6116 66.9458 98.5517C66.781 98.4988 66.6064 98.4842 66.4351 98.509C66.2638 98.5338 66.1004 98.5973 65.9572 98.6947C65.814 98.7922 65.6949 98.921 65.6087 99.0714C65.5225 99.2219 65.4716 99.39 65.4598 99.5631C65.4004 100.41 66.0478 101.048 66.8417 101.199C67.7006 101.361 68.5522 100.92 69.1341 100.312C69.8011 99.6058 70.1692 98.6678 70.161 97.6952C70.1626 97.648 70.1824 97.6032 70.2163 97.5703C70.2502 97.5374 70.2956 97.519 70.3427 97.519C70.3899 97.519 70.4353 97.5374 70.4692 97.5703C70.5031 97.6032 70.5229 97.648 70.5245 97.6952V97.6953Z" fill="#6D7175"/>
<path d="M74.0741 100.012C77.6558 100.012 80.5594 97.1013 80.5594 93.5107C80.5594 89.9201 77.6558 87.0093 74.0741 87.0093C70.4924 87.0093 67.5889 89.9201 67.5889 93.5107C67.5889 97.1013 70.4924 100.012 74.0741 100.012Z" fill="#347C84"/>
<path d="M73.7421 96.2849L73.7354 96.0419C74.1862 96.0293 74.5837 96.001 74.8824 95.7822C74.9671 95.7167 75.0367 95.6336 75.0865 95.5387C75.1362 95.4438 75.1651 95.3392 75.171 95.2321C75.1762 95.1667 75.1663 95.1009 75.1421 95.04C75.1179 94.979 75.0799 94.9244 75.0313 94.8805C74.9184 94.8119 74.7892 94.7751 74.6572 94.774C74.5253 94.7728 74.3955 94.8073 74.2814 94.8739L74.0809 94.9661L74.4654 92.1489L74.7055 92.1819L74.3785 94.5782C74.5123 94.5284 74.6565 94.513 74.7979 94.5334C74.9392 94.5538 75.0732 94.6094 75.1877 94.695C75.2647 94.7624 75.3251 94.8467 75.3642 94.9413C75.4033 95.036 75.4201 95.1385 75.4131 95.2407C75.4061 95.3846 75.3677 95.5251 75.3007 95.6526C75.2337 95.78 75.1397 95.8912 75.0253 95.9784C74.6416 96.2596 74.1428 96.2736 73.7421 96.2849Z" fill="#6D7175"/>
<path d="M77.1988 92.3887H75.8936V92.631H77.1988V92.3887Z" fill="#6D7175"/>
<path d="M73.0787 92.3887H71.7734V92.631H73.0787V92.3887Z" fill="#6D7175"/>
<path d="M69.6494 103.989C72.3072 104.753 75.1358 104.673 77.7465 103.76C77.7973 103.742 77.8482 103.724 77.8979 103.705C77.2827 103.23 76.5869 102.869 75.844 102.641C75.8965 102.455 75.8957 102.257 75.8415 102.07C75.768 101.834 75.6204 101.628 75.4206 101.483C75.2208 101.337 74.9796 101.261 74.7328 101.264H73.1527C72.9063 101.26 72.6654 101.337 72.466 101.482C72.2666 101.627 72.1194 101.833 72.0463 102.069C71.9922 102.256 71.9914 102.454 72.0439 102.641C71.3895 102.842 70.771 103.146 70.2117 103.541C70.099 103.62 69.9899 103.703 69.8846 103.789C69.8046 103.854 69.7258 103.92 69.6494 103.989Z" fill="#6D7175"/>
<path d="M79.1543 92.8209C79.1543 93.9166 79.6923 94.8253 80.3915 94.9832C80.4627 94.9992 80.5354 95.0073 80.6084 95.0075C81.4094 95.0075 82.0625 94.0271 82.0625 92.8209C82.0806 92.199 81.8827 91.5902 81.5027 91.0983C81.3845 90.9549 81.2391 90.8364 81.0749 90.7497C80.9309 90.6743 80.7709 90.6347 80.6084 90.6343C80.3852 90.637 80.1686 90.7101 79.9892 90.8432C79.496 91.1931 79.1543 91.9474 79.1543 92.8209Z" fill="#6D7175"/>
<path d="M66.1886 92.8209C66.1886 93.7635 66.586 94.5677 67.1434 94.8751C67.296 94.9608 67.4678 95.0064 67.6427 95.0075C67.6816 95.0075 67.7205 95.0051 67.759 95.0002C68.5054 94.9115 69.0968 93.9689 69.0968 92.8209C69.0968 91.9013 68.7175 91.1129 68.1819 90.791C68.0199 90.6902 67.8334 90.6359 67.6427 90.6343C67.4802 90.6347 67.3202 90.6743 67.1762 90.7497C67.0116 90.8368 66.8658 90.9557 66.7472 91.0995C66.3683 91.5914 66.1709 92.1996 66.1886 92.8209V92.8209Z" fill="#6D7175"/>
<path d="M67.2342 94.6655C67.263 94.6655 67.2915 94.6586 67.3171 94.6454C67.3428 94.6322 67.365 94.613 67.3818 94.5895C67.3986 94.566 67.4096 94.5389 67.4139 94.5103C67.4182 94.4816 67.4156 94.4524 67.4064 94.425C67.059 93.3894 66.9545 92.2874 67.1011 91.2047C67.2476 90.122 67.6411 89.0878 68.2512 88.1824C68.8612 87.277 69.6713 86.5247 70.6185 85.9842C71.5657 85.4437 72.6244 85.1294 73.7125 85.0657C74.8005 85.0021 75.8886 85.1908 76.892 85.6173C77.8955 86.0437 78.7873 86.6964 79.4983 87.5245C80.2092 88.3527 80.7201 89.334 80.9912 90.3923C81.2623 91.4506 81.2863 92.5572 81.0614 93.6263C81.0516 93.6736 81.0609 93.7228 81.0872 93.7632C81.1135 93.8036 81.1548 93.8319 81.2019 93.8419C81.249 93.8518 81.2981 93.8427 81.3385 93.8164C81.3788 93.79 81.4071 93.7488 81.4172 93.7015C81.6538 92.5775 81.6286 91.4139 81.3437 90.3012C81.0587 89.1885 80.5216 88.1567 79.7742 87.2859C79.0268 86.4152 78.0891 85.7289 77.034 85.2806C75.979 84.8322 74.835 84.6337 73.6911 84.7007C72.5471 84.7676 71.4339 85.0981 70.4381 85.6665C69.4422 86.2349 68.5905 87.0258 67.9492 87.9779C67.3079 88.9299 66.8942 90.0173 66.7404 91.1557C66.5865 92.2941 66.6965 93.4527 67.0619 94.5415C67.0741 94.5776 67.0973 94.609 67.1282 94.6313C67.1591 94.6535 67.1961 94.6655 67.2342 94.6655V94.6655Z" fill="#6D7175"/>
<path d="M77.3324 89.2985C77.44 89.4746 77.4847 89.6822 77.4592 89.8871C77.4337 90.092 77.3395 90.2822 77.192 90.4264C76.8399 90.8207 76.2785 90.8456 75.791 90.7724C75.244 90.6903 74.6637 90.4333 74.1099 90.6065C73.6379 90.7541 73.3012 91.1833 72.8108 91.2911C72.3759 91.3867 71.8558 91.2601 71.7034 90.7954C71.6301 90.5721 71.981 90.4764 72.0539 90.6985C72.1525 90.9992 72.5784 90.9932 72.8223 90.9099C73.2134 90.7765 73.5147 90.4518 73.899 90.2967C74.3572 90.1545 74.8477 90.1559 75.3051 90.3006C75.7399 90.3988 76.2403 90.5443 76.6735 90.361C76.994 90.2253 77.249 89.7979 77.0185 89.4824C76.8801 89.293 77.1954 89.111 77.3324 89.2985V89.2985Z" fill="#6D7175"/>
<path d="M73.3391 104.873C72.0568 104.874 70.7808 104.694 69.5485 104.338C69.4037 104.298 69.2515 104.251 69.0987 104.201C68.2401 103.921 67.4113 103.556 66.6245 103.112C66.477 103.029 66.3288 102.941 66.1722 102.844C65.3944 102.365 64.6664 101.808 63.999 101.184C63.8889 101.081 63.7798 100.975 63.6731 100.869C61.5742 98.7715 60.2111 96.0475 59.7884 93.1067C59.3657 90.1658 59.9064 87.1669 61.3291 84.5604C62.7518 81.9539 64.9798 79.8806 67.6784 78.6519C70.3769 77.4232 73.4003 77.1056 76.2943 77.7466C79.1883 78.3877 81.7967 79.9528 83.7276 82.207C85.6585 84.4611 86.8076 87.2825 87.0024 90.2473C87.1972 93.2121 86.427 96.1602 84.8077 98.6487C83.1883 101.137 80.8072 103.032 78.022 104.048C77.972 104.066 77.9203 104.085 77.8685 104.103C76.4128 104.614 74.8814 104.874 73.3391 104.873V104.873ZM73.3391 78.1474C70.7729 78.1476 68.2645 78.911 66.1314 80.3412C63.9983 81.7713 62.3364 83.8038 61.3563 86.1813C60.3761 88.5589 60.1218 91.1745 60.6253 93.697C61.1289 96.2196 62.3678 98.5356 64.1852 100.352C64.2858 100.451 64.3899 100.552 64.4952 100.651C65.1273 101.243 65.8168 101.77 66.5534 102.224C66.7018 102.315 66.8414 102.398 66.9807 102.476C67.7258 102.897 68.5108 103.243 69.3241 103.508C69.468 103.555 69.6102 103.599 69.7475 103.637C72.3335 104.381 75.0858 104.304 77.6261 103.416L77.773 103.363C80.6376 102.318 83.0433 100.294 84.5676 97.6472C86.0918 95.0006 86.6373 91.9002 86.108 88.8905C85.5788 85.8808 84.0088 83.1542 81.6737 81.1896C79.3385 79.2249 76.3876 78.1478 73.3391 78.1474L73.3391 78.1474Z" fill="#DBDDDF"/>
<path d="M125.791 170.504H54.0241C53.1206 170.503 52.2544 170.143 51.6155 169.502C50.9766 168.862 50.6172 167.993 50.6162 167.088V69.4184C50.6172 68.5126 50.9766 67.6442 51.6155 67.0037C52.2544 66.3632 53.1206 66.003 54.0241 66.002H125.791C126.695 66.003 127.561 66.3632 128.2 67.0037C128.839 67.6442 129.198 68.5126 129.199 69.4184V167.088C129.198 167.993 128.839 168.862 128.2 169.502C127.561 170.143 126.695 170.503 125.791 170.504V170.504ZM54.0241 66.4039C53.2269 66.4048 52.4626 66.7227 51.8989 67.2878C51.3351 67.8529 51.018 68.6191 51.0171 69.4184V167.088C51.018 167.887 51.3351 168.653 51.8989 169.218C52.4626 169.783 53.2269 170.101 54.0241 170.102H125.791C126.588 170.101 127.353 169.783 127.916 169.218C128.48 168.653 128.797 167.887 128.798 167.088V69.4184C128.797 68.6192 128.48 67.8529 127.916 67.2878C127.353 66.7227 126.588 66.4048 125.791 66.4039H54.0241Z" fill="#6D7175"/>
<path d="M111.898 91.3686H91.5909C91.1648 91.3686 90.7562 91.1989 90.4549 90.8969C90.1536 90.5948 89.9844 90.1852 89.9844 89.758C89.9844 89.3309 90.1536 88.9212 90.4549 88.6192C90.7562 88.3171 91.1648 88.1475 91.5909 88.1475H111.898C112.325 88.1475 112.733 88.3171 113.034 88.6192C113.336 88.9212 113.505 89.3309 113.505 89.758C113.505 90.1852 113.336 90.5948 113.034 90.8969C112.733 91.1989 112.325 91.3686 111.898 91.3686V91.3686Z" fill="#347C84"/>
<path d="M118.526 96.8041H91.5909C91.1648 96.8041 90.7562 96.6344 90.4549 96.3324C90.1536 96.0304 89.9844 95.6207 89.9844 95.1936C89.9844 94.7664 90.1536 94.3568 90.4549 94.0547C90.7562 93.7527 91.1648 93.583 91.5909 93.583H118.526C118.952 93.583 119.36 93.7527 119.662 94.0547C119.963 94.3568 120.132 94.7664 120.132 95.1936C120.132 95.6207 119.963 96.0304 119.662 96.3324C119.36 96.6344 118.952 96.8041 118.526 96.8041V96.8041Z" fill="#347C84"/>
<path d="M111.868 117.652H61.2902C60.8641 117.652 60.4554 117.483 60.1541 117.181C59.8529 116.879 59.6836 116.469 59.6836 116.042C59.6836 115.615 59.8529 115.205 60.1541 114.903C60.4554 114.601 60.8641 114.431 61.2902 114.431H111.868C112.294 114.431 112.703 114.601 113.004 114.903C113.305 115.205 113.475 115.615 113.475 116.042C113.475 116.469 113.305 116.879 113.004 117.181C112.703 117.483 112.294 117.652 111.868 117.652V117.652Z" fill="#DBDDDF"/>
<path d="M118.495 123.088H61.2902C60.8641 123.088 60.4554 122.918 60.1541 122.616C59.8529 122.314 59.6836 121.904 59.6836 121.477C59.6836 121.05 59.8529 120.64 60.1541 120.338C60.4554 120.036 60.8641 119.867 61.2902 119.867H118.495C118.921 119.867 119.33 120.036 119.631 120.338C119.932 120.64 120.102 121.05 120.102 121.477C120.102 121.904 119.932 122.314 119.631 122.616C119.33 122.918 118.921 123.088 118.495 123.088V123.088Z" fill="#DBDDDF"/>
<path d="M111.869 135.581H61.2911C60.8654 135.58 60.4572 135.411 60.1564 135.109C59.8555 134.807 59.6865 134.397 59.6865 133.97C59.6865 133.544 59.8555 133.134 60.1564 132.832C60.4572 132.53 60.8654 132.36 61.2911 132.36H111.869C112.295 132.36 112.704 132.53 113.005 132.832C113.306 133.134 113.476 133.543 113.476 133.97C113.476 134.398 113.306 134.807 113.005 135.109C112.704 135.411 112.295 135.581 111.869 135.581V135.581Z" fill="#DBDDDF"/>
<path d="M118.496 141.017H61.2911C60.8654 141.016 60.4572 140.846 60.1564 140.544C59.8555 140.242 59.6865 139.833 59.6865 139.406C59.6865 138.979 59.8555 138.57 60.1564 138.268C60.4572 137.966 60.8654 137.796 61.2911 137.795H118.496C118.922 137.795 119.331 137.965 119.632 138.267C119.933 138.569 120.103 138.979 120.103 139.406C120.103 139.833 119.933 140.243 119.632 140.545C119.331 140.847 118.922 141.017 118.496 141.017Z" fill="#DBDDDF"/>
<path d="M111.868 153.51H61.2902C60.8641 153.51 60.4554 153.34 60.1541 153.038C59.8529 152.736 59.6836 152.326 59.6836 151.899C59.6836 151.472 59.8529 151.062 60.1541 150.76C60.4554 150.458 60.8641 150.289 61.2902 150.289H111.868C112.294 150.289 112.703 150.458 113.004 150.76C113.305 151.062 113.475 151.472 113.475 151.899C113.475 152.326 113.305 152.736 113.004 153.038C112.703 153.34 112.294 153.51 111.868 153.51V153.51Z" fill="#DBDDDF"/>
<path d="M118.495 158.945H61.2902C60.8641 158.945 60.4554 158.776 60.1541 158.474C59.8529 158.171 59.6836 157.762 59.6836 157.335C59.6836 156.908 59.8529 156.498 60.1541 156.196C60.4554 155.894 60.8641 155.724 61.2902 155.724H118.495C118.921 155.724 119.33 155.894 119.631 156.196C119.932 156.498 120.102 156.908 120.102 157.335C120.102 157.762 119.932 158.171 119.631 158.474C119.33 158.776 118.921 158.945 118.495 158.945V158.945Z" fill="#DBDDDF"/>
<path d="M124.959 148.264C122.879 148.261 120.818 148.67 118.896 149.466C116.973 150.263 115.226 151.431 113.755 152.905C112.283 154.379 111.115 156.129 110.319 158.055C109.522 159.982 109.112 162.046 109.112 164.132C109.112 166.217 109.522 168.282 110.319 170.208C111.115 172.135 112.283 173.885 113.755 175.358C115.226 176.832 116.973 178.001 118.896 178.797C120.818 179.593 122.878 180.002 124.959 180H124.959C129.152 179.992 133.171 178.317 136.133 175.342C139.096 172.367 140.759 168.335 140.759 164.132C140.759 159.928 139.096 155.896 136.133 152.921C133.171 149.946 129.152 148.271 124.959 148.264V148.264Z" fill="#347C84"/>
<path d="M123.456 170.722C123.04 170.723 122.634 170.588 122.301 170.337L122.28 170.321L117.927 166.983C117.52 166.67 117.254 166.208 117.187 165.698C117.121 165.189 117.258 164.673 117.57 164.266C117.882 163.858 118.343 163.591 118.851 163.523C119.359 163.455 119.874 163.593 120.281 163.905L123.1 166.073L129.763 157.359C129.917 157.157 130.11 156.988 130.33 156.86C130.55 156.733 130.792 156.65 131.044 156.617C131.296 156.583 131.552 156.6 131.797 156.666C132.042 156.732 132.272 156.845 132.474 157L132.474 157L132.474 157.001L132.433 157.058L132.476 157.001C132.882 157.314 133.148 157.776 133.215 158.286C133.282 158.795 133.145 159.311 132.833 159.719L124.997 169.963C124.815 170.199 124.582 170.39 124.315 170.522C124.049 170.653 123.755 170.721 123.458 170.72L123.456 170.722Z" fill="white"/>
</g>
<defs>
<clipPath id="clip0_863_3333">
<rect width="172" height="156" fill="white" transform="translate(0.5 24)"/>
</clipPath>
</defs>
</svg>
