<svg width="500" height="500" viewBox="0 0 500 500" fill="none" xmlns="http://www.w3.org/2000/svg">
<path d="M298.37 335.5C382 299.85 469.46 233.1 432.31 135C398.6 46 284.74 25.75 219.62 102.47C191.53 135.56 196.44 179.52 162.46 208.98C128.48 238.44 72.06 254.81 87.33 312.98C111 402.91 243.33 359 298.37 335.5Z" fill="#302B6E"/>
<path opacity="0.9" d="M298.37 335.5C382 299.85 469.46 233.1 432.31 135C398.6 46 284.74 25.75 219.62 102.47C191.53 135.56 196.44 179.52 162.46 208.98C128.48 238.44 72.06 254.81 87.33 312.98C111 402.91 243.33 359 298.37 335.5Z" fill="white"/>
<path d="M250 427.56C357.082 427.56 443.89 422.492 443.89 416.24C443.89 409.988 357.082 404.92 250 404.92C142.918 404.92 56.11 409.988 56.11 416.24C56.11 422.492 142.918 427.56 250 427.56Z" fill="#F5F5F5"/>
<path d="M360.6 263.05H360.24C333.6 260.87 315.24 238.05 314.5 237.13C313.818 236.197 313.524 235.037 313.678 233.892C313.833 232.747 314.426 231.707 315.331 230.989C316.236 230.271 317.384 229.931 318.535 230.042C319.685 230.152 320.747 230.703 321.5 231.58C321.71 231.85 337.4 251.19 359.13 253.95C366.13 246.95 372.13 228.47 371.46 222.88C371.46 222.82 371.46 222.77 371.46 222.72C371.32 220.92 370.98 214.72 372.75 211.07C373.333 210.132 374.243 209.442 375.304 209.135C376.366 208.828 377.503 208.925 378.497 209.408C379.491 209.89 380.272 210.723 380.688 211.746C381.104 212.77 381.126 213.911 380.75 214.95C380.31 215.87 380.1 219.18 380.31 221.95C381.31 231.15 373.31 254.37 363.31 262.14C362.531 262.732 361.579 263.051 360.6 263.05Z" fill="#263238"/>
<path d="M148.82 238.82C139.618 238.709 130.541 236.668 122.177 232.83C113.812 228.993 106.346 223.443 100.26 216.54C99.5727 215.774 99.1713 214.794 99.1239 213.766C99.0765 212.738 99.3861 211.726 100 210.9C107.22 201.19 120 178.26 122 170.79C121.051 168.989 119.617 167.489 117.86 166.46C117.157 166.133 116.552 165.627 116.105 164.994C115.658 164.361 115.384 163.622 115.31 162.85L114.59 155.53C114.52 154.376 114.9 153.24 115.65 152.361C116.4 151.481 117.461 150.926 118.612 150.812C119.762 150.698 120.911 151.034 121.819 151.75C122.727 152.466 123.322 153.505 123.48 154.65L123.98 159.74C126.936 162.01 129.277 164.984 130.79 168.39C131.09 169.103 131.2 169.882 131.11 170.65C130.19 178.58 117.32 201.55 109.4 213.16C127.89 231.59 149.99 229.91 150.96 229.82C152.125 229.739 153.276 230.118 154.165 230.875C155.055 231.631 155.613 232.706 155.72 233.869C155.827 235.032 155.475 236.191 154.739 237.098C154.002 238.004 152.94 238.586 151.78 238.72C151.52 238.74 150.49 238.82 148.82 238.82Z" fill="#263238"/>
<path d="M292.87 416.09H280.87C280.181 416.09 279.502 415.931 278.885 415.626C278.268 415.32 277.73 414.876 277.312 414.328C276.895 413.78 276.61 413.143 276.48 412.467C276.349 411.791 276.377 411.094 276.56 410.43C279.69 399.19 281.23 390.04 282.38 375.72C278.14 355.72 274.15 337.51 274.11 337.33C273.893 336.187 274.131 335.004 274.773 334.033C275.414 333.062 276.409 332.379 277.546 332.13C278.683 331.882 279.872 332.086 280.861 332.701C281.85 333.315 282.56 334.29 282.84 335.42C282.84 335.6 286.96 354.28 291.25 374.5C291.342 374.92 291.369 375.352 291.33 375.78C290.33 388.64 289.02 397.53 286.66 407.16H292.84C293.988 407.214 295.07 407.708 295.863 408.54C296.656 409.371 297.099 410.476 297.099 411.625C297.099 412.774 296.656 413.879 295.863 414.71C295.07 415.542 293.988 416.036 292.84 416.09H292.87Z" fill="#263238"/>
<path d="M200.32 416.09H193.56C192.921 416.092 192.289 415.957 191.707 415.693C191.126 415.429 190.607 415.043 190.188 414.561C189.769 414.079 189.458 413.512 189.277 412.9C189.096 412.287 189.05 411.642 189.14 411.01C190.29 402.81 196.14 387.88 202.44 372.87C204.67 353.07 206.49 336.07 206.51 335.87C206.559 335.274 206.728 334.694 207.006 334.164C207.283 333.634 207.664 333.166 208.126 332.786C208.588 332.406 209.122 332.123 209.695 331.953C210.269 331.783 210.871 331.73 211.465 331.797C212.059 331.864 212.634 332.05 213.155 332.343C213.677 332.636 214.134 333.031 214.5 333.504C214.866 333.977 215.133 334.518 215.286 335.097C215.439 335.675 215.474 336.278 215.39 336.87C215.39 337.04 213.51 354.43 211.24 374.52C211.194 374.94 211.086 375.351 210.92 375.74C206.49 386.37 201.43 398.89 199.12 407.18H200.32C200.924 407.151 201.528 407.246 202.094 407.457C202.661 407.669 203.179 407.993 203.616 408.41C204.054 408.828 204.403 409.33 204.641 409.886C204.879 410.442 205.001 411.04 205.001 411.645C205.001 412.25 204.879 412.848 204.641 413.404C204.403 413.96 204.054 414.462 203.616 414.88C203.179 415.297 202.661 415.621 202.094 415.833C201.528 416.044 200.924 416.139 200.32 416.11V416.09Z" fill="#263238"/>
<path d="M204.21 111L152.15 163.07C149.53 220.78 149.74 281.4 152.15 344.25H324.31C320.9 263.15 320.58 185.08 324.31 111H204.21Z" fill="white"/>
<path d="M324.31 345.13H152.15C151.918 345.13 151.695 345.041 151.527 344.881C151.36 344.72 151.26 344.502 151.25 344.27C148.76 279 148.76 218 151.25 163C151.264 162.777 151.36 162.566 151.52 162.41L203.58 110.34C203.663 110.257 203.761 110.192 203.869 110.147C203.977 110.103 204.093 110.08 204.21 110.08H324.31C324.432 110.08 324.552 110.105 324.664 110.153C324.775 110.202 324.876 110.272 324.96 110.36C325.044 110.447 325.108 110.551 325.15 110.665C325.191 110.778 325.208 110.899 325.2 111.02C321.61 182.36 321.61 258.63 325.2 344.19C325.204 344.31 325.184 344.429 325.141 344.54C325.098 344.652 325.033 344.754 324.95 344.84C324.87 344.931 324.771 345.003 324.661 345.053C324.551 345.103 324.431 345.129 324.31 345.13ZM153 343.34H323.38C319.84 258.48 319.83 182.75 323.38 111.87H204.58L153 163.43C150.55 218.07 150.55 278.59 153 343.34Z" fill="#263238"/>
<path d="M214.28 249.369C214.08 245.009 211.61 241.569 208.75 241.669C205.89 241.769 203.75 245.379 203.93 249.739C204.11 254.099 206.6 257.539 209.46 257.429C212.32 257.319 214.48 253.719 214.28 249.369Z" fill="#302B6E"/>
<path d="M274.65 247.999C274.45 243.649 271.98 240.209 269.12 240.309C266.26 240.409 264.12 244.019 264.3 248.379C264.48 252.739 266.98 256.179 269.83 256.069C272.68 255.959 274.85 252.359 274.65 247.999Z" fill="#302B6E"/>
<path d="M229.35 267.179C233.964 265.455 238.878 264.682 243.798 264.905C248.718 265.129 253.542 266.344 257.98 268.479C258.127 268.56 258.257 268.669 258.361 268.801C258.466 268.933 258.543 269.084 258.589 269.246C258.634 269.408 258.647 269.577 258.627 269.744C258.606 269.911 258.553 270.072 258.47 270.219C258.3 270.513 258.022 270.729 257.695 270.82C257.368 270.912 257.018 270.872 256.72 270.709C256.57 270.629 242.32 262.949 225.31 271.709C225.007 271.862 224.655 271.891 224.331 271.791C224.006 271.69 223.733 271.467 223.57 271.169C223.492 271.02 223.445 270.857 223.43 270.69C223.416 270.522 223.435 270.354 223.486 270.194C223.537 270.034 223.62 269.886 223.728 269.758C223.837 269.63 223.97 269.525 224.12 269.449C225.81 268.574 227.557 267.815 229.35 267.179Z" fill="#302B6E"/>
<path d="M205.64 208.519C206.084 208.531 206.517 208.655 206.9 208.879C207.485 209.225 207.909 209.787 208.081 210.444C208.254 211.102 208.16 211.8 207.82 212.389C205.83 215.935 203.014 218.95 199.61 221.176C196.207 223.403 192.317 224.776 188.27 225.179C187.59 225.206 186.926 224.964 186.422 224.505C185.919 224.047 185.616 223.409 185.58 222.729C185.565 222.394 185.617 222.059 185.731 221.744C185.846 221.429 186.022 221.14 186.248 220.893C186.475 220.645 186.748 220.446 187.052 220.304C187.356 220.163 187.685 220.083 188.02 220.069C188.41 220.069 197.64 219.489 203.38 209.799C203.605 209.4 203.934 209.07 204.332 208.845C204.731 208.619 205.183 208.507 205.64 208.519Z" fill="#302B6E"/>
<path d="M266.05 207.049C266.468 206.966 266.899 206.989 267.306 207.115C267.713 207.24 268.082 207.465 268.38 207.769C276.38 215.769 285.52 214.159 285.9 214.089C286.562 213.969 287.244 214.111 287.803 214.484C288.362 214.857 288.755 215.432 288.9 216.089C288.967 216.417 288.968 216.755 288.904 217.084C288.839 217.413 288.711 217.726 288.525 218.005C288.339 218.284 288.099 218.523 287.821 218.709C287.542 218.895 287.229 219.024 286.9 219.089C286.4 219.179 274.76 221.399 264.69 211.339C264.361 211.013 264.128 210.604 264.014 210.155C263.901 209.707 263.912 209.236 264.047 208.793C264.182 208.351 264.435 207.953 264.779 207.644C265.123 207.335 265.546 207.125 266 207.039L266.05 207.049Z" fill="#302B6E"/>
<path opacity="0.2" d="M321.72 204.86L314.41 205.54C313.145 205.658 311.881 205.311 310.853 204.564C309.826 203.816 309.107 202.72 308.83 201.48L298.7 156.1C298.408 154.782 298.637 153.403 299.34 152.25C300.043 151.098 301.165 150.263 302.47 149.92L322.06 144.78L321.72 204.86Z" fill="black"/>
<path opacity="0.2" d="M209 167.69C203.91 153.8 198.82 131.57 204.19 110.98L152.13 163.05C166.86 168 190.32 170.11 209 167.69Z" fill="black"/>
<path d="M204.21 163.05C198.5 146.19 200.83 123.27 204.21 110.98L152.15 163.05C167.91 165.92 185.52 165.46 204.21 163.05Z" fill="white"/>
<path d="M176 165.92C167.956 165.98 159.923 165.31 152 163.92C151.839 163.894 151.689 163.823 151.566 163.716C151.443 163.609 151.352 163.47 151.303 163.315C151.254 163.159 151.25 162.993 151.29 162.835C151.33 162.677 151.413 162.534 151.53 162.42L203.59 110.35C203.729 110.209 203.911 110.118 204.107 110.092C204.303 110.066 204.503 110.106 204.673 110.205C204.844 110.305 204.977 110.459 205.051 110.643C205.124 110.827 205.135 111.03 205.08 111.22C201.94 122.66 199.33 145.82 205.08 162.76C205.12 162.886 205.132 163.019 205.117 163.15C205.101 163.281 205.058 163.407 204.99 163.52C204.921 163.632 204.828 163.728 204.717 163.799C204.606 163.87 204.481 163.915 204.35 163.93C194.952 165.199 185.483 165.863 176 165.92ZM154 162.46C167.84 164.75 183.91 164.7 203 162.3C198.29 147.36 199.36 127.59 202.52 113.9L154 162.46Z" fill="#263238"/>
<path d="M383.1 239.11C382.771 239.11 382.452 239.001 382.191 238.8C381.931 238.599 381.744 238.318 381.66 238L363.32 168.12C363.219 167.737 363.275 167.329 363.475 166.987C363.674 166.645 364.002 166.396 364.385 166.295C364.768 166.194 365.176 166.25 365.518 166.45C365.86 166.649 366.109 166.977 366.21 167.36L384.55 237.24C384.6 237.43 384.611 237.627 384.584 237.822C384.557 238.016 384.492 238.203 384.393 238.372C384.294 238.541 384.162 238.689 384.005 238.807C383.848 238.925 383.67 239.011 383.48 239.06C383.357 239.097 383.229 239.114 383.1 239.11Z" fill="#263238"/>
<path d="M417.26 138.729L416.29 138.979L417.667 144.323L418.637 144.073L417.26 138.729Z" fill="#302B6E"/>
<path d="M414.11 131.09L410.26 116.42C409.736 114.434 408.446 112.737 406.673 111.7C404.9 110.663 402.788 110.372 400.8 110.89L390.73 113.53L390.48 112.53L400.55 109.88C402.792 109.298 405.174 109.628 407.173 110.797C409.173 111.967 410.628 113.88 411.22 116.12L415.08 130.8L414.11 131.09Z" fill="#302B6E"/>
<path d="M401.443 113.335L306.099 138.348C303.3 139.083 301.626 141.947 302.36 144.746L314.427 190.74C315.161 193.539 318.026 195.213 320.825 194.479L416.168 169.466C418.968 168.732 420.642 165.867 419.907 163.068L407.841 117.074C407.107 114.275 404.242 112.601 401.443 113.335Z" fill="#302B6E"/>
<path d="M319 156.407L332.089 153.003L332.964 156.375L324.773 158.506L325.425 161.019L333.076 159.047L333.918 162.228L326.316 164.216L327.127 167.317L335.557 165.138L336.479 168.717L323.167 172.184L319 156.407Z" fill="white"/>
<path d="M339.135 168.049L335.016 152.24L343.159 150.124C344.315 149.779 345.515 149.608 346.722 149.615C347.574 149.66 348.386 149.991 349.028 150.554C349.662 151.155 350.128 151.912 350.379 152.749C350.63 153.586 350.657 154.474 350.459 155.325C350.256 156.067 349.861 156.741 349.314 157.281C348.846 157.721 348.309 158.081 347.724 158.347C348.166 158.327 348.607 158.396 349.022 158.549C349.437 158.702 349.818 158.936 350.141 159.238C350.48 159.477 350.799 159.743 351.095 160.033L354.642 163.993L349.123 165.44L345.29 161.273C344.967 160.864 344.56 160.528 344.097 160.287C343.673 160.152 343.217 160.152 342.793 160.287L342.364 160.399L344.034 166.761L339.135 168.049ZM341.585 157.361L343.652 156.836C344.081 156.688 344.496 156.502 344.893 156.279C345.193 156.14 345.427 155.889 345.545 155.58C345.708 155.211 345.725 154.793 345.592 154.413C345.459 154.032 345.186 153.715 344.829 153.528C344.203 153.329 343.531 153.329 342.905 153.528L340.757 154.085L341.585 157.361Z" fill="white"/>
<path d="M356.296 163.58L352.161 147.77L360.304 145.655C361.462 145.318 362.661 145.146 363.867 145.146C364.714 145.192 365.521 145.523 366.157 146.085C366.866 146.704 367.356 147.535 367.557 148.454C367.779 149.245 367.779 150.081 367.557 150.872C367.349 151.603 366.961 152.27 366.427 152.812C365.953 153.249 365.417 153.613 364.837 153.894C365.318 153.899 365.796 153.979 366.252 154.132C366.608 154.308 366.944 154.521 367.254 154.769C367.589 155.007 367.902 155.273 368.193 155.564L371.755 159.54L366.237 160.971L362.372 156.82C362.047 156.406 361.634 156.069 361.163 155.834C360.744 155.699 360.294 155.699 359.875 155.834L359.445 155.945L361.115 162.307L356.296 163.58ZM358.761 152.908L360.829 152.367C361.251 152.214 361.661 152.028 362.054 151.81C362.206 151.744 362.343 151.647 362.458 151.527C362.572 151.407 362.662 151.265 362.722 151.11C362.88 150.743 362.895 150.33 362.762 149.953C362.629 149.575 362.359 149.262 362.006 149.075C361.377 148.86 360.695 148.86 360.066 149.075L357.934 149.631L358.761 152.908Z" fill="white"/>
<path d="M370.372 151.492C369.977 150.421 369.824 149.276 369.924 148.139C370.025 147.002 370.376 145.901 370.952 144.916C371.528 143.93 372.316 143.085 373.257 142.44C374.199 141.795 375.272 141.367 376.4 141.186C377.485 140.83 378.631 140.695 379.77 140.788C380.909 140.881 382.018 141.2 383.032 141.727C383.974 142.33 384.785 143.116 385.417 144.04C386.048 144.964 386.486 146.005 386.706 147.102C387.165 148.651 387.252 150.286 386.96 151.874C386.658 153.202 385.966 154.41 384.972 155.341C383.798 156.392 382.374 157.125 380.837 157.472C379.331 157.919 377.743 158.017 376.193 157.759C374.842 157.484 373.606 156.808 372.646 155.818C371.52 154.601 370.736 153.109 370.372 151.492ZM375.254 150.252C375.462 151.486 376.092 152.61 377.036 153.432C377.434 153.682 377.878 153.848 378.342 153.921C378.806 153.994 379.28 153.971 379.735 153.855C380.19 153.739 380.617 153.532 380.99 153.246C381.362 152.96 381.673 152.602 381.903 152.192C382.303 150.918 382.27 149.548 381.807 148.295C381.605 147.111 380.984 146.038 380.058 145.273C379.665 145.01 379.218 144.838 378.751 144.769C378.283 144.701 377.806 144.737 377.354 144.876C376.9 144.976 376.475 145.179 376.111 145.468C375.747 145.757 375.454 146.126 375.254 146.546C374.827 147.744 374.827 149.053 375.254 150.252Z" fill="white"/>
<path d="M391.493 154.419L387.374 138.625L395.517 136.51C396.671 136.156 397.873 135.984 399.08 136.001C399.933 136.042 400.746 136.373 401.386 136.939C402.022 137.539 402.489 138.296 402.737 139.134C402.986 139.972 403.008 140.861 402.801 141.711C402.594 142.447 402.206 143.12 401.672 143.667C401.204 144.107 400.666 144.467 400.082 144.733C400.568 144.749 401.05 144.835 401.513 144.987C401.865 145.154 402.196 145.362 402.499 145.607C402.837 145.847 403.152 146.118 403.437 146.419L407 150.379L401.481 151.826L397.616 147.675C397.286 147.262 396.875 146.921 396.408 146.673C395.988 146.545 395.539 146.545 395.119 146.673L394.69 146.784L396.36 153.146L391.493 154.419ZM393.942 143.747L396.01 143.222C396.436 143.066 396.851 142.88 397.251 142.665C397.547 142.52 397.779 142.271 397.903 141.965C398.066 141.596 398.083 141.179 397.95 140.798C397.817 140.417 397.544 140.101 397.187 139.914C396.562 139.707 395.887 139.707 395.262 139.914L393.115 140.47L393.942 143.747Z" fill="white"/>
</svg>
