<svg width="25" height="24" viewBox="0 0 25 24" fill="none" xmlns="http://www.w3.org/2000/svg">
    <path d="M18.594 18.75c2.11-1.969 3.047-5.25 2.484-8.39h-8.39v3.468h4.78c-.187 1.125-.843 2.063-1.78 2.672l2.906 2.25z" fill="#4285F4"/>
    <path d="M4.719 15.984a9 9 0 0 0 13.875 2.766l-2.907-2.25c-2.484 1.64-6.609 1.031-8.015-2.813l-2.953 2.297z" fill="#34A853"/>
    <path d="M7.672 13.688c-.375-1.172-.375-2.25 0-3.422L4.719 7.969c-1.078 2.156-1.406 5.203 0 8.015l2.953-2.296z" fill="#FBBC02"/>
    <path d="M7.672 10.266c1.031-3.235 5.437-5.11 8.39-2.344l2.579-2.531C14.984 1.875 7.859 2.016 4.719 7.969l2.953 2.297z" fill="#EA4335"/>
</svg>
