<svg width="289" height="178" viewBox="0 0 289 178" fill="none" xmlns="http://www.w3.org/2000/svg">
<path d="M275.172 41.9039C268.011 31.8593 258.536 23.6874 247.548 18.0799C232.804 10.5999 209.492 0.407885 192.168 0.719885C164.844 1.20789 103.368 34.7679 71.2243 41.1519C39.0803 47.5359 -8.14766 71.3719 1.68034 119.892C11.5083 168.412 37.5843 182.88 87.4763 176.496C137.368 170.112 155.128 163.728 195.572 171.8C236.016 179.872 282.5 174.368 287.4 116.488C291 74.1079 285.696 56.5999 275.172 41.9039Z" fill="#EBEBEB"/>
<path opacity="0.7" d="M275.172 41.9039C268.011 31.8593 258.536 23.6874 247.548 18.0799C232.804 10.5999 209.492 0.407885 192.168 0.719885C164.844 1.20789 103.368 34.7679 71.2243 41.1519C39.0803 47.5359 -8.14766 71.3719 1.68034 119.892C11.5083 168.412 37.5843 182.88 87.4763 176.496C137.368 170.112 155.128 163.728 195.572 171.8C236.016 179.872 282.5 174.368 287.4 116.488C291 74.1079 285.696 56.5999 275.172 41.9039Z" fill="white"/>
</svg>
