<svg width="300" height="200" viewBox="0 0 300 200" fill="none" xmlns="http://www.w3.org/2000/svg">
<path d="M280.172 48.9039C273.011 38.8593 263.536 30.6874 252.548 25.0799C237.804 17.5999 214.492 7.40789 197.168 7.71989C169.844 8.20789 108.368 41.7679 76.2243 48.1519C44.0803 54.5359 -3.14766 78.3719 6.68034 126.892C16.5083 175.412 42.5843 189.88 92.4763 183.496C142.368 177.112 160.128 170.728 200.572 178.8C241.016 186.872 287.5 181.368 292.4 123.488C296 81.1079 290.696 63.5999 280.172 48.9039Z" fill="#EBEBEB"/>
<path opacity="0.7" d="M280.172 48.9039C273.011 38.8593 263.536 30.6874 252.548 25.0799C237.804 17.5999 214.492 7.40789 197.168 7.71989C169.844 8.20789 108.368 41.7679 76.2243 48.1519C44.0803 54.5359 -3.14766 78.3719 6.68034 126.892C16.5083 175.412 42.5843 189.88 92.4763 183.496C142.368 177.112 160.128 170.728 200.572 178.8C241.016 186.872 287.5 181.368 292.4 123.488C296 81.1079 290.696 63.5999 280.172 48.9039Z" fill="white"/>
<path d="M36.4366 50.7361L37.5166 63.8841C37.5166 63.8841 28.1446 62.3481 25.6606 67.3201C23.1766 72.2921 23.1726 85.2881 28.9766 92.1961C33.1566 97.1761 37.6246 95.1241 39.7966 93.5881L40.9246 107.952C40.9246 113.316 51.2286 123.196 63.9406 123.196C76.6526 123.196 86.9566 113.316 86.9566 107.952L91.4406 50.7521L36.4366 50.7361ZM32.2926 86.4001C28.6926 83.3601 30.6326 70.0921 32.2926 68.4361C33.5206 67.2041 36.4246 68.1041 37.8406 68.6521L39.3246 87.5721C37.4726 88.0321 34.5526 88.3081 32.2926 86.4001Z" fill="#263238"/>
<path d="M63.941 123.396C51.573 123.396 40.741 113.772 40.741 107.952L39.641 93.9519C37.241 95.5519 32.917 97.1879 28.841 92.3319C23.161 85.5639 22.897 72.4439 25.501 67.2359C27.825 62.5919 35.761 63.4359 37.317 63.6359L36.241 50.5239H91.657V50.7399L87.173 107.94C87.157 113.772 76.305 123.396 63.941 123.396ZM39.969 93.2199L41.121 107.936C41.121 112.968 50.989 122.996 63.941 122.996C76.893 122.996 86.741 112.968 86.741 107.952L91.209 50.9359H36.657L37.737 64.1359L37.481 64.0959C37.389 64.0959 28.233 62.6399 25.837 67.4279C23.281 72.5399 23.541 85.4279 29.129 92.0839C33.173 96.8839 37.477 94.9999 39.681 93.4399L39.969 93.2199ZM36.705 88.1079C35.0524 88.1524 33.4396 87.5968 32.165 86.5439C30.613 85.2359 30.165 82.2599 30.085 79.9959C29.881 75.0999 31.069 69.3679 32.153 68.2839C33.437 66.9959 36.313 67.8399 37.913 68.4559L38.033 68.4999L39.537 87.6999L39.373 87.7399C38.5022 87.9721 37.6061 88.0957 36.705 88.1079ZM32.421 86.2399C34.513 88.0079 37.185 87.8679 39.113 87.4079L37.653 68.7999C36.373 68.3199 33.569 67.4519 32.453 68.5839C31.417 69.5999 30.289 75.3039 30.485 79.9999C30.613 83.1319 31.285 85.2959 32.421 86.2599V86.2399Z" fill="#263238"/>
<path d="M63.9414 62.3439C79.1292 62.3439 91.4414 57.1468 91.4414 50.7359C91.4414 44.325 79.1292 39.1279 63.9414 39.1279C48.7536 39.1279 36.4414 44.325 36.4414 50.7359C36.4414 57.1468 48.7536 62.3439 63.9414 62.3439Z" fill="white"/>
<path d="M63.9413 62.548C48.6653 62.548 36.2373 57.248 36.2373 50.736C36.2373 44.224 48.6653 38.928 63.9413 38.928C79.2173 38.928 91.6413 44.228 91.6413 50.736C91.6413 57.244 79.2013 62.548 63.9413 62.548ZM63.9413 39.328C48.8853 39.328 36.6373 44.448 36.6373 50.736C36.6373 57.024 48.8853 62.148 63.9413 62.148C78.9973 62.148 91.2413 57.028 91.2413 50.736C91.2413 44.444 78.9933 39.328 63.9413 39.328Z" fill="#263238"/>
<path d="M63.9407 61.064C77.454 61.064 88.4087 56.44 88.4087 50.736C88.4087 45.032 77.454 40.408 63.9407 40.408C50.4274 40.408 39.4727 45.032 39.4727 50.736C39.4727 56.44 50.4274 61.064 63.9407 61.064Z" fill="white"/>
<path d="M63.9406 61.268C50.3406 61.268 39.2686 56.544 39.2686 50.736C39.2686 44.928 50.3366 40.208 63.9406 40.208C77.5446 40.208 88.6086 44.932 88.6086 50.736C88.6086 56.54 77.5406 61.268 63.9406 61.268ZM63.9406 40.608C50.5566 40.608 39.6686 45.152 39.6686 50.736C39.6686 56.32 50.5566 60.868 63.9406 60.868C77.3246 60.868 88.2086 56.324 88.2086 50.736C88.2086 45.148 77.3206 40.608 63.9406 40.608Z" fill="#263238"/>
<path d="M63.941 61.064C73.4359 61.064 81.133 59.7298 81.133 58.084C81.133 56.4382 73.4359 55.104 63.941 55.104C54.4461 55.104 46.749 56.4382 46.749 58.084C46.749 59.7298 54.4461 61.064 63.941 61.064Z" fill="#007B5C"/>
<path d="M63.9415 61.2681C57.4375 61.2681 51.3055 60.2041 46.6695 58.2681L46.2295 58.0841L46.6695 57.9001C51.3055 55.9681 57.4375 54.9041 63.9415 54.9041C70.4455 54.9041 76.5775 55.9681 81.2095 57.9001L81.6535 58.0841L81.2095 58.2681C76.5775 60.2041 70.4415 61.2681 63.9415 61.2681ZM47.2775 58.0681C51.8095 59.8641 57.7015 60.8681 63.9415 60.8681C70.1815 60.8681 76.0735 59.8801 80.6015 58.0681C76.0735 56.2721 70.1815 55.2681 63.9415 55.2681C57.7015 55.2681 51.8095 56.2881 47.2775 58.0841V58.0681Z" fill="#263238"/>
<path d="M161.201 81.2999C161.201 81.2999 174.281 112.364 177.429 114.008C180.577 115.652 272.865 107.64 272.865 107.64L270.245 104.724L270.121 84.6199L273.573 84.4679L238.317 38.0359L158.653 43.8559C158.653 43.8559 154.401 46.7999 153.809 49.3759C153.217 51.9519 153.369 55.8039 153.369 55.8039L161.201 81.2999Z" fill="#263238"/>
<path d="M180.512 114.4C178.756 114.4 177.648 114.328 177.34 114.168C174.164 112.512 161.552 82.6321 161.02 81.3681V81.3481L153.168 55.8401V55.8121C153.168 55.7721 153.044 51.8881 153.612 49.3321C154.18 46.7761 158.36 43.8121 158.54 43.6881L158.584 43.6601H158.636L238.4 37.8281L238.464 37.9161L273.96 84.6481L270.32 84.8121L270.444 104.648L273.28 107.804L272.88 107.836C269.476 108.132 196.892 114.4 180.512 114.4ZM161.392 81.2001C165.908 91.9241 175.084 112.524 177.524 113.796C179.964 115.068 240.444 110.216 272.448 107.44L270.048 104.768V104.692L269.924 84.3961L273.184 84.2521L238.224 38.2441L158.724 44.0481C158.272 44.3721 154.52 47.1041 154.004 49.4201C153.468 51.8201 153.556 55.4201 153.564 55.7721L161.392 81.2001Z" fill="#263238"/>
<path d="M270.121 84.6201L179.601 91.9081C178.233 92.8105 177.081 94.0036 176.227 95.4024C175.373 96.8011 174.838 98.371 174.661 100C173.997 105.652 176.281 111.392 177.981 112.216C179.219 112.746 180.543 113.048 181.889 113.108L270.245 104.708L270.121 84.6201Z" fill="#E0E0E0"/>
<path d="M181.908 113.312C180.531 113.254 179.175 112.945 177.908 112.4C176.08 111.512 173.816 105.6 174.476 100C174.662 98.342 175.208 96.7447 176.075 95.3199C176.943 93.8951 178.112 92.6773 179.5 91.752L179.584 91.724L270.32 84.4L270.448 104.9L270.264 104.92L181.908 113.312ZM179.644 92.112C178.319 93.0076 177.204 94.1797 176.376 95.5476C175.547 96.9156 175.025 98.4468 174.844 100.036C174.176 105.748 176.556 111.32 178.044 112.036C179.258 112.554 180.555 112.849 181.872 112.908L270.02 104.54L269.896 84.832L179.644 92.112Z" fill="#263238"/>
<path d="M178 14.4561L141.484 64.8761C141.484 64.8761 139.484 66.8361 139.588 71.6401C139.692 76.4441 139.928 84.2801 141.356 84.8401C142.784 85.4001 248.448 93.4001 248.448 93.4001L272.848 37.0521L270.944 36.2521L271.6 22.3601L273.2 17.8641L180.684 13.5281L178 14.4561Z" fill="#007B5C"/>
<path d="M248.576 93.6H248.432C244.116 93.276 142.728 85.572 141.288 85.02C140.132 84.576 139.564 80.576 139.388 71.648C139.292 66.812 141.26 64.82 141.344 64.736L177.876 14.288L180.652 13.324H180.692L273.464 17.676L271.8 22.4L271.144 36.104L273.104 36.944L273.024 37.132L248.576 93.6ZM178.124 14.624L141.644 64.992C141.604 65.036 139.696 66.992 139.788 71.636C139.848 74.72 140.036 84.108 141.428 84.644C142.8 85.088 211.856 90.42 248.32 93.2L272.58 37.156L270.732 36.356L271.412 22.288L272.908 18.04L180.712 13.728L178.124 14.624Z" fill="#263238"/>
<path d="M144.768 66.3121C144.768 66.3121 141.464 65.2881 140.524 68.4641C139.584 71.6401 141.896 83.1481 141.896 83.1481C141.896 83.1481 143.868 83.9721 144.776 84.0001C145.684 84.0281 247.364 90.7401 247.364 90.7401L270.936 36.2361L271.6 22.3601L249.048 71.2001L144.768 66.3121Z" fill="white"/>
<path d="M247.491 90.948H247.351C246.335 90.88 145.659 84.232 144.767 84.208C143.875 84.184 141.899 83.376 141.815 83.344L141.719 83.3L141.699 83.196C141.603 82.724 139.391 71.596 140.335 68.416C140.44 67.9844 140.632 67.5789 140.9 67.2245C141.167 66.8702 141.505 66.5746 141.891 66.356C142.803 65.9314 143.836 65.8476 144.803 66.12L248.923 71.004L271.847 21.344L271.119 36.312L247.491 90.948ZM142.067 83.004C142.467 83.168 144.031 83.776 144.779 83.804C145.671 83.828 241.411 90.152 247.235 90.536L270.739 36.188L271.351 23.388L249.175 71.408H249.039L144.735 66.508H144.707C143.836 66.2606 142.905 66.33 142.079 66.704C141.741 66.8994 141.445 67.1615 141.211 67.4743C140.977 67.7871 140.808 68.1442 140.715 68.524C139.851 71.452 141.843 81.844 142.067 83.004Z" fill="#263238"/>
<path d="M246.716 71.0919L144.768 66.3119C144.768 66.3119 141.464 65.2879 140.524 68.4639C139.584 71.6399 141.896 83.1479 141.896 83.1479C141.896 83.1479 143.868 83.9719 144.776 83.9999C145.684 84.0279 247.364 90.7399 247.364 90.7399L247.224 71.5399L246.716 71.0919Z" fill="#E0E0E0"/>
<path d="M247.567 90.9519H247.351C246.335 90.8839 145.659 84.2359 144.767 84.2119C143.875 84.1879 141.899 83.3799 141.815 83.3479L141.719 83.3039L141.699 83.1999C141.603 82.7279 139.391 71.5999 140.335 68.4199C140.44 67.9883 140.632 67.5828 140.9 67.2284C141.167 66.8741 141.505 66.5785 141.891 66.3599C142.803 65.9353 143.836 65.8515 144.803 66.1239L246.803 70.9239L247.431 71.4599V71.5519L247.567 90.9519ZM142.067 83.0039C142.467 83.1679 144.031 83.7759 144.779 83.8039C145.667 83.8279 240.647 90.0999 247.179 90.5279L247.039 71.6239L246.639 71.2919L144.735 66.5079H144.707C143.836 66.2605 142.905 66.3299 142.079 66.7039C141.741 66.8993 141.445 67.1614 141.211 67.4742C140.977 67.787 140.808 68.1441 140.715 68.5239C139.851 71.4519 141.843 81.8439 142.067 83.0039Z" fill="#263238"/>
<path d="M158.464 169.6C158.464 169.6 162.2 174.988 166.104 174.904C192.128 174.336 237.008 186.8 242.216 186.8C247.424 186.8 251.296 186.34 251.296 185.232C251.296 184.124 232.98 111.632 232.98 111.632L229.348 110.528L241.82 181.272C241.82 181.272 226.344 179.064 195.08 173.852C163.816 168.64 165.08 164.252 161.304 165.028C157.528 165.804 158.464 169.6 158.464 169.6Z" fill="#007B5C"/>
<path d="M242.215 186.992C240.639 186.992 235.519 185.876 228.435 184.332C211.939 180.732 184.319 174.7 166.107 175.132H165.999C162.071 175.132 158.443 169.964 158.291 169.744L158.259 169.676C158.259 169.604 157.827 167.884 158.715 166.476C159.005 166.048 159.381 165.685 159.818 165.41C160.255 165.135 160.744 164.953 161.255 164.876C162.615 164.596 163.359 164.948 164.983 165.724C168.083 167.2 174.531 170.268 195.103 173.7C223.791 178.5 239.359 180.76 241.567 181.08L229.083 110.28L233.135 111.516L233.163 111.624C233.911 114.584 251.487 184.144 251.487 185.26C251.487 186.376 248.375 186.992 242.215 186.992ZM167.895 174.696C186.143 174.696 212.539 180.452 228.519 183.94C235.579 185.48 240.679 186.592 242.215 186.592C248.763 186.592 251.095 185.888 251.095 185.224C251.039 184.148 239.127 136.8 232.799 111.796L229.599 110.82L242.067 181.516L241.791 181.476C241.639 181.452 225.955 179.204 195.047 174.052C174.415 170.616 167.935 167.528 164.819 166.052C163.219 165.296 162.571 164.98 161.347 165.252C160.887 165.32 160.447 165.483 160.053 165.73C159.659 165.977 159.321 166.303 159.059 166.688C158.588 167.564 158.446 168.58 158.659 169.552C158.971 169.988 162.519 174.816 166.111 174.752C166.687 174.7 167.287 174.696 167.895 174.696Z" fill="#263238"/>
<path d="M245.928 184.908C240.56 184.592 230.116 181.876 204.328 176.584C178.54 171.292 159.231 168.088 159.231 168.088L158.688 169.948C159.58 171.12 162.771 174.988 166.083 174.916C192.127 174.336 237.007 186.8 242.215 186.8C247.423 186.8 251.295 186.34 251.295 185.232C251.295 185.136 248.604 185.068 245.928 184.908Z" fill="#263238"/>
<path d="M242.216 186.992C240.64 186.992 235.52 185.876 228.436 184.332C211.94 180.732 184.328 174.704 166.108 175.132C162.692 175.22 159.464 171.288 158.548 170.084L158.488 170.004L159.108 167.88L159.284 167.908C159.476 167.94 178.916 171.176 204.388 176.404C213.62 178.3 220.848 179.856 226.652 181.108C236.876 183.312 242.508 184.524 245.94 184.708C246.96 184.768 247.988 184.816 248.864 184.856C251.496 184.98 251.496 184.98 251.496 185.224C251.496 186.4 248.376 186.992 242.216 186.992ZM167.896 174.696C186.144 174.696 212.54 180.452 228.52 183.94C235.58 185.48 240.68 186.592 242.216 186.592C248.26 186.592 250.712 185.992 251.052 185.392C250.684 185.352 249.784 185.312 248.844 185.268C247.968 185.228 246.94 185.18 245.916 185.12C242.456 184.916 236.812 183.7 226.568 181.496C220.764 180.244 213.536 178.696 204.308 176.792C180.128 171.828 161.392 168.664 159.392 168.328L158.928 169.928C159.88 171.164 162.9 174.728 166.012 174.728H166.1C166.688 174.7 167.288 174.696 167.896 174.696Z" fill="#263238"/>
<path d="M74.1362 108.8C74.1362 108.8 72.2402 109.432 71.9282 110.852C71.6162 112.272 53.4522 185.072 55.1882 185.252C56.9242 185.432 152.62 186.052 153.724 184.936C154.828 183.82 158.464 169.6 158.464 169.6L150.4 180.508L67.3402 178.456L77.2882 110.552L74.1362 108.8Z" fill="#007B5C"/>
<path d="M115.164 185.792C87.728 185.792 55.688 185.492 55.164 185.444C55.1248 185.441 55.0868 185.428 55.0529 185.408C55.019 185.388 54.99 185.361 54.968 185.328C54.68 184.928 53.8 183.688 70.892 114.236C71.388 112.236 71.692 110.996 71.728 110.824C72.064 109.312 73.988 108.652 74.068 108.628L74.152 108.6L77.508 110.444L67.576 178.26L150.312 180.308L158.908 168.672L158.656 169.664C158.284 171.124 154.98 183.96 153.856 185.072C153.312 185.628 135.5 185.792 115.164 185.792ZM55.284 185.052C58.456 185.14 151.516 185.824 153.608 184.772C154.408 183.972 156.852 175.02 158.008 170.56L150.504 180.712H150.4L67.112 178.656L67.144 178.432L77.072 110.664L74.116 109.04C73.764 109.176 72.368 109.784 72.116 110.916C72.08 111.092 71.78 112.312 71.28 114.336C56.82 173.108 55.008 184 55.284 185.052Z" fill="#263238"/>
<path d="M153.724 184.932C154.832 183.824 158.464 169.612 158.464 169.612L157.928 170.332L152.936 183.2L56.1359 184.448L55.1719 185.248C56.9239 185.404 152.62 186.036 153.724 184.932Z" fill="#263238"/>
<path d="M115.164 185.792C87.7276 185.792 55.6876 185.492 55.1636 185.444L54.6836 185.4L56.0756 184.24H56.1476L152.8 182.996L157.768 170.216L158.908 168.672L158.656 169.664C158.284 171.124 154.98 183.96 153.856 185.072C153.312 185.628 135.504 185.792 115.164 185.792ZM55.7236 185.06C63.3236 185.176 151.28 185.796 153.596 184.776C154.396 183.908 156.732 175.452 157.92 170.912L153.072 183.392H152.94L56.2276 184.64L55.7236 185.06Z" fill="#263238"/>
<path d="M76.3473 107.868L74.1353 108.816L58.8193 182.876L152.935 183.192L159.251 166.928L70.8193 171.192L79.0313 107.712L76.3473 107.868Z" fill="white"/>
<path d="M153.072 183.392H152.936L58.5723 183.076L73.9643 108.676L76.3363 107.672L79.2603 107.5L79.2323 107.74L71.0483 170.98L159.552 166.716L153.072 183.392ZM59.0723 182.68L152.808 182.992L158.964 167.144L70.5923 171.404L70.6243 171.168L78.8003 107.924L76.4003 108.068L74.3163 108.96L59.0723 182.68Z" fill="#263238"/>
<path d="M65.1353 173.56L60.8433 180.7L58.8193 182.876L152.935 183.192L159.251 166.928L70.8193 171.192L65.1353 173.56Z" fill="#E0E0E0"/>
<path d="M153.071 183.392H152.935L58.3594 183.076L60.6834 180.576L64.9994 173.4L70.8114 171L159.551 166.724L153.071 183.392ZM59.2754 182.68L152.799 182.992L158.955 167.144L70.8634 171.392L65.2634 173.72L60.9834 180.836L59.2754 182.68Z" fill="#263238"/>
<path d="M159.251 166.928V152.4L83.2953 160.768L77.6113 170.72L159.251 166.928Z" fill="#B8B8B8"/>
<path d="M77.2559 170.936L83.1719 160.584H83.2759L159.452 152.184V167.12H159.26L77.2559 170.936ZM83.4199 160.956L77.9639 170.5L159.052 166.736V152.624L83.4199 160.956Z" fill="#263238"/>
<path d="M79.8197 99.816L77.6117 100.132L65.1357 173.56C65.1357 173.56 75.3997 172.76 89.2957 169.456C103.192 166.152 131.46 161.084 140.936 162.508C150.412 163.932 158.464 169.6 158.464 169.6C158.464 169.6 170.288 171.948 183.552 174.632C196.816 177.316 216.556 181.432 229.664 183.636C242.772 185.84 245.928 184.896 245.928 184.896L229.664 109.256L228.084 108.8L236.768 177.332C236.768 177.332 182 162.192 174.728 162.192C167.456 162.192 163.528 154.452 148.988 151.612C134.448 148.772 118.188 154.452 104.456 156.812C95.846 158.332 87.3512 160.444 79.0317 163.132L82.6637 99.808L79.8197 99.816Z" fill="#E0E0E0"/>
<path d="M243.24 185.316C240.88 185.316 236.7 185.036 229.64 183.844C218.6 182 202.887 178.8 190.264 176.212L183.511 174.84C170.399 172.188 158.544 169.832 158.424 169.808L158.348 169.776C158.268 169.72 150.22 164.104 140.904 162.704C131.28 161.26 102.104 166.604 89.3435 169.648C81.3861 171.585 73.3021 172.959 65.1515 173.76L64.8955 173.78L64.9395 173.528L77.4395 99.952L79.8395 99.616H82.8955L79.2675 162.856C87.5104 160.217 95.9214 158.135 104.444 156.624C107.908 156.028 111.48 155.232 115.264 154.388C126.516 151.876 138.148 149.284 149.048 151.416C156.916 152.956 161.712 155.936 165.568 158.328C168.86 160.376 171.46 161.992 174.748 161.992C181.76 161.992 231.796 175.744 236.552 177.056L227.844 108.516L229.844 109.112L229.868 109.228L246.16 185.048L245.984 185.1C245.924 185.12 245.219 185.316 243.24 185.316ZM158.544 169.424C159.32 169.58 170.864 171.872 183.592 174.448L190.344 175.82C202.964 178.392 218.672 181.588 229.696 183.448C240.924 185.344 244.852 184.904 245.696 184.756L229.492 109.428L228.32 109.076L237.004 177.6L236.715 177.52C236.168 177.368 181.884 162.388 174.716 162.388C171.312 162.388 168.668 160.744 165.324 158.664C161.5 156.288 156.736 153.328 148.924 151.804C138.124 149.688 126.524 152.272 115.324 154.772C111.536 155.616 107.96 156.416 104.484 157.016C95.8844 158.538 87.3993 160.645 79.0875 163.324L78.8075 163.42L82.4515 100H79.8355L77.7835 100.292L65.3835 173.324C73.4258 172.509 81.4031 171.146 89.2595 169.244C102.46 166.096 131.168 160.844 140.972 162.292C150.06 163.672 157.948 169.012 158.544 169.424Z" fill="#263238"/>
<path d="M70.8197 171.192L65.1357 173.56L77.6117 100.132L82.6637 99.816L70.8197 171.192Z" fill="white"/>
<path d="M64.876 173.884L77.44 99.9401L82.904 99.6001L71 171.336L64.876 173.884ZM77.78 100.32L65.38 173.236L70.628 171.048L82.412 100.032L77.78 100.32Z" fill="#263238"/>
<path d="M157.355 90.0241C157.355 90.0241 158.779 87.4961 171.727 90.8241C184.675 94.1521 198.235 102.488 209.291 104.064C220.347 105.64 227.599 107.2 227.599 107.2L242.603 183.316C242.603 183.316 218.135 180 195.079 173.856C172.023 167.712 162.251 163.6 159.251 166.928L157.355 90.0241Z" fill="white"/>
<path d="M242.86 183.568L242.584 183.528C242.34 183.496 217.832 180.14 195.028 174.048C189.54 172.584 184.86 171.248 180.736 170.076C168 166.448 161.6 164.628 159.4 167.064L159.064 167.432L157.156 89.976L157.184 89.928C157.244 89.816 158.828 87.304 171.776 90.62C177.688 92.136 183.736 94.7 189.584 97.176C196.652 100.172 203.324 103.004 209.32 103.86C220.252 105.42 227.58 107.004 227.652 107.02L227.78 107.048L242.86 183.568ZM162.8 165.54C166.28 165.54 171.948 167.14 180.86 169.692C184.984 170.864 189.66 172.196 195.148 173.664C216.6 179.396 239.6 182.704 242.36 183.092L227.44 107.384C226.416 107.168 219.392 105.704 209.264 104.256C203.216 103.392 196.52 100.552 189.428 97.548C183.596 95.072 177.56 92.516 171.676 91.008C160.076 88.032 157.828 89.808 157.56 90.092L159.44 166.492C160.212 165.832 161.3 165.54 162.8 165.54Z" fill="#263238"/>
<path d="M223.535 116.8C198.047 111.2 196.515 111.032 196.459 111.028V110.628C196.491 110.628 197.575 110.692 223.607 116.412L223.535 116.8Z" fill="#263238"/>
<path d="M224.097 120.084C220.849 119.368 217.857 118.704 215.173 118.104C211.777 117.348 208.845 116.696 206.509 116.196C197.685 114.304 196.761 114.224 196.725 114.22L196.745 113.82C196.777 113.82 197.605 113.88 206.593 115.82C208.929 116.32 211.861 116.976 215.257 117.732L224.185 119.708L224.097 120.084Z" fill="#263238"/>
<path d="M224.656 123.372C221.272 122.628 217.932 121.868 214.98 121.196C211.832 120.48 209.116 119.864 206.884 119.384C198.22 117.528 197.032 117.424 196.984 117.42L197.012 117.02C197.056 117.02 198.212 117.116 206.968 118.992C209.2 119.472 211.92 120.092 215.072 120.808C218.02 121.476 221.36 122.236 224.744 122.98L224.656 123.372Z" fill="#263238"/>
<path d="M225.2 126.66C222 125.96 218.74 125.2 215.576 124.464C212.48 123.748 209.552 123.068 207.248 122.572C198.78 120.756 197.248 120.624 197.248 120.62L197.276 120.22C197.336 120.22 198.816 120.348 207.352 122.18C209.66 122.676 212.588 123.352 215.688 124.072C218.852 124.804 222.124 125.564 225.288 126.264L225.2 126.66Z" fill="#263238"/>
<path d="M225.78 129.948C222.868 129.308 219.588 128.532 216.42 127.784C213.16 127.016 210.08 126.284 207.64 125.784C199.384 124.012 197.524 123.844 197.504 123.844L197.536 123.444C197.608 123.444 199.416 123.608 207.724 125.392C210.168 125.916 213.248 126.644 216.524 127.416C219.692 128.164 222.968 128.936 225.876 129.576L225.78 129.948Z" fill="#263238"/>
<path d="M226.34 133.236C223.724 132.66 220.488 131.884 217.356 131.132C214.044 130.332 210.616 129.508 208.02 128.952C199.976 127.224 197.788 127.024 197.764 127.024L197.8 126.624C197.888 126.624 200.02 126.824 208.104 128.56C210.704 129.12 214.132 129.944 217.452 130.74C220.58 131.492 223.812 132.272 226.424 132.844L226.34 133.236Z" fill="#263238"/>
<path d="M226.899 136.524C224.583 136.016 221.555 135.276 218.347 134.492C214.819 133.628 211.147 132.736 208.395 132.14C200.575 130.46 198.051 130.228 198.027 130.224L198.059 129.824C198.083 129.824 200.623 130.056 208.479 131.744C211.255 132.344 214.911 133.236 218.443 134.1C221.643 134.88 224.671 135.62 226.983 136.128L226.899 136.524Z" fill="#263238"/>
<path d="M227.459 139.812C225.459 139.368 222.503 138.64 219.395 137.868C215.631 136.932 211.739 135.968 208.775 135.328C201.175 133.696 198.315 133.428 198.287 133.428L198.323 133.028C198.351 133.028 201.227 133.3 208.859 134.936C211.827 135.576 215.723 136.536 219.491 137.48C222.599 138.252 225.531 138.98 227.543 139.42L227.459 139.812Z" fill="#263238"/>
<path d="M228.019 143.1C226.291 142.72 223.479 142.012 220.507 141.264C216.675 140.296 212.331 139.2 209.151 138.516C201.775 136.916 198.579 136.632 198.547 136.628L198.583 136.228C198.615 136.228 201.831 136.536 209.235 138.128C212.435 138.812 216.767 139.908 220.603 140.876C223.575 141.624 226.383 142.332 228.107 142.712L228.019 143.1Z" fill="#263238"/>
<path d="M228.581 146.4C227.133 146.084 224.581 145.436 221.661 144.684C217.573 143.636 212.941 142.452 209.533 141.716C202.381 140.18 198.845 139.844 198.812 139.84L198.848 139.44C198.884 139.44 202.448 139.78 209.616 141.324C213.032 142.06 217.669 143.244 221.761 144.292C224.693 145.04 227.224 145.692 228.668 146.008L228.581 146.4Z" fill="#263238"/>
<path d="M229.14 149.68C227.964 149.42 225.608 148.808 222.88 148.1C218.732 147.024 213.572 145.7 209.908 144.9C202.984 143.408 199.108 143.036 199.072 143.036L199.108 142.636C202.769 143.067 206.405 143.69 210 144.504C213.672 145.304 218.836 146.636 222.988 147.704C225.712 148.412 228.064 149.024 229.236 149.28L229.14 149.68Z" fill="#263238"/>
<path d="M229.704 152.968C228.78 152.764 226.736 152.224 224.148 151.544C219.964 150.444 214.232 148.936 210.288 148.084C206.671 147.274 203.014 146.655 199.332 146.232L199.372 145.832C203.069 146.259 206.741 146.88 210.372 147.692C214.324 148.544 220.06 150.056 224.252 151.16C226.832 151.836 228.872 152.36 229.788 152.576L229.704 152.968Z" fill="#263238"/>
<path d="M230.264 156.256C229.58 156.104 227.78 155.624 225.504 155.016C221.04 153.816 214.928 152.192 210.664 151.272C207.009 150.465 203.315 149.85 199.596 149.432L199.632 149.032C203.367 149.45 207.077 150.066 210.748 150.876C215.02 151.8 221.148 153.432 225.608 154.628C227.88 155.232 229.672 155.712 230.348 155.86L230.264 156.256Z" fill="#263238"/>
<path d="M230.824 159.544C230.36 159.44 228.932 159.056 226.956 158.52C222.74 157.376 215.676 155.464 211.044 154.46C207.344 153.658 203.606 153.048 199.844 152.632L199.884 152.232C203.657 152.646 207.407 153.259 211.116 154.068C215.76 155.068 222.828 156.984 227.048 158.128C229.02 158.664 230.444 159.048 230.896 159.148L230.824 159.544Z" fill="#263238"/>
<path d="M231.383 162.832C231.115 162.772 230.083 162.488 228.523 162.06C224.323 160.9 216.523 158.748 211.419 157.66C207.685 156.86 203.912 156.255 200.115 155.848L200.155 155.448C203.967 155.858 207.755 156.467 211.503 157.272C216.599 158.372 224.423 160.528 228.627 161.672C230.127 162.072 231.211 162.384 231.467 162.44L231.383 162.832Z" fill="#263238"/>
<path d="M231.944 166.12C231.84 166.096 231.292 165.944 230.304 165.668C226.472 164.592 217.504 162.068 211.8 160.84C208.034 160.043 204.229 159.441 200.4 159.036L200.436 158.636C204.287 159.045 208.115 159.65 211.904 160.448C217.62 161.684 226.6 164.204 230.432 165.28C231.316 165.528 231.956 165.708 232.052 165.728L231.944 166.12Z" fill="#263238"/>
<path d="M232.493 169.404C232.365 169.368 219.461 165.604 212.177 164.028C206.601 162.828 200.701 162.244 200.641 162.236L200.681 161.836C204.568 162.24 208.433 162.84 212.261 163.632C219.557 165.232 232.477 168.98 232.605 169.016L232.493 169.404Z" fill="#263238"/>
<path d="M192.399 109.904C187.435 107.62 183.943 105.628 181.139 104.028C178.223 102.36 175.915 101.048 173.371 100.224C169.766 99.137 166.043 98.4896 162.283 98.296V97.896C166.082 98.0898 169.842 98.7439 173.483 99.844C176.071 100.68 178.391 102.004 181.331 103.68C184.131 105.28 187.611 107.28 192.559 109.54L192.399 109.904Z" fill="#263238"/>
<path d="M192.668 113.152C188.216 111.104 184.936 109.256 182.3 107.772C179.224 106.04 176.792 104.672 173.94 103.748C168.412 101.952 162.804 101.656 162.372 101.724L162.268 101.324C162.532 101.244 168.268 101.476 174.064 103.356C176.956 104.292 179.4 105.668 182.496 107.412C185.26 108.968 188.396 110.736 192.836 112.78L192.668 113.152Z" fill="#263238"/>
<path d="M192.919 116.4C188.951 114.572 186.019 112.944 183.431 111.504C180.211 109.712 177.667 108.304 174.495 107.264C168.287 105.24 162.747 105.048 162.407 105.148L162.287 104.748C162.767 104.596 168.503 104.872 174.619 106.868C177.819 107.916 180.387 109.336 183.627 111.14C186.207 112.572 189.131 114.2 193.087 116.02L192.919 116.4Z" fill="#263238"/>
<path d="M193.177 119.652C189.665 118.052 186.953 116.548 184.561 115.252C181.361 113.484 178.561 111.96 175.053 110.808C168.509 108.664 163.017 108.408 162.429 108.596L162.309 108.216C163.109 107.96 168.769 108.328 175.177 110.428C178.725 111.588 181.517 113.124 184.753 114.9C187.153 116.212 189.845 117.7 193.341 119.3L193.177 119.652Z" fill="#263238"/>
<path d="M193.428 122.904C190.352 121.488 187.868 120.14 185.676 118.952C182.348 117.144 179.476 115.588 175.604 114.312C168.596 112.008 163.204 111.772 162.448 112.012L162.328 111.632C163.3 111.32 169.036 111.732 175.732 113.932C179.636 115.216 182.532 116.784 185.868 118.6C188.052 119.8 190.532 121.128 193.592 122.54L193.428 122.904Z" fill="#263238"/>
<path d="M193.68 126.152C191.016 124.928 188.86 123.772 186.78 122.652C183.36 120.82 180.404 119.236 176.16 117.852C168.748 115.404 163.436 115.152 162.468 115.452L162.348 115.072C163.568 114.672 169.272 115.148 176.284 117.472C180.564 118.884 183.676 120.552 186.968 122.316C189.044 123.432 191.196 124.584 193.848 125.804L193.68 126.152Z" fill="#263238"/>
<path d="M193.931 129.4C191.655 128.356 189.727 127.332 187.867 126.344C184.519 124.572 181.359 122.896 176.715 121.356C169.087 118.832 163.683 118.492 162.487 118.876L162.367 118.476C163.799 118.02 169.391 118.476 176.839 120.96C181.515 122.512 184.691 124.192 188.039 125.976C189.899 126.96 191.823 127.976 194.087 129.02L193.931 129.4Z" fill="#263238"/>
<path d="M194.183 132.652C192.271 131.772 190.583 130.88 188.931 130.02C185.539 128.24 182.331 126.56 177.267 124.88C169.127 122.172 163.895 121.864 162.507 122.304L162.387 121.924C164.183 121.352 170.055 122.06 177.395 124.5C182.491 126.192 185.859 127.96 189.119 129.668C190.755 130.524 192.447 131.412 194.351 132.288L194.183 132.652Z" fill="#263238"/>
<path d="M194.436 135.9C192.86 135.176 191.46 134.448 189.976 133.68C186.087 131.569 182.021 129.802 177.824 128.4C169.88 125.752 164.324 125.164 162.528 125.736L162.408 125.356C164.328 124.744 169.876 125.332 177.952 128.02C182.168 129.429 186.253 131.204 190.16 133.324C191.64 134.092 193.036 134.816 194.604 135.536L194.436 135.9Z" fill="#263238"/>
<path d="M194.687 139.148C193.423 138.568 192.243 137.948 190.991 137.32C186.954 135.168 182.742 133.363 178.399 131.924C169.579 128.976 164.359 128.6 162.567 129.168L162.447 128.788C164.383 128.172 169.623 128.572 178.527 131.544C182.896 132.989 187.134 134.802 191.195 136.964C192.439 137.604 193.619 138.208 194.875 138.788L194.687 139.148Z" fill="#263238"/>
<path d="M194.939 142.4C193.959 141.948 192.995 141.456 191.971 140.94C187.784 138.754 183.424 136.916 178.935 135.444C167.803 131.72 163.779 132.212 162.567 132.6L162.447 132.2C165.087 131.364 171.143 132.4 179.059 135.048C183.568 136.523 187.947 138.37 192.151 140.568C193.171 141.084 194.131 141.572 195.107 142.02L194.939 142.4Z" fill="#263238"/>
<path d="M195.201 145.648C194.473 145.312 193.717 144.932 192.917 144.532C188.598 142.322 184.111 140.46 179.497 138.964C168.985 135.44 164.505 135.424 162.597 136.032L162.477 135.632C165.277 134.736 171.225 135.752 179.625 138.572C184.257 140.078 188.761 141.951 193.097 144.172C193.897 144.572 194.649 144.948 195.369 145.28L195.201 145.648Z" fill="#263238"/>
<path d="M195.444 148.9C194.94 148.664 194.408 148.4 193.792 148.1C191.344 146.9 187.644 145.048 180.044 142.5C171.348 139.576 165.484 138.56 162.608 139.472L162.488 139.092C165.484 138.14 171.268 139.128 180.172 142.12C187.796 144.684 191.512 146.52 193.968 147.748C194.584 148.052 195.112 148.316 195.612 148.548L195.444 148.9Z" fill="#263238"/>
<path d="M195.696 152.148C195.38 152 195.024 151.828 194.608 151.624C192.444 150.56 188.82 148.78 180.608 146.024C171.408 142.928 165.692 141.936 162.636 142.908L162.516 142.508C165.656 141.508 171.444 142.508 180.736 145.628C188.98 148.404 192.62 150.192 194.792 151.26C195.192 151.464 195.56 151.636 195.872 151.78L195.696 152.148Z" fill="#263238"/>
<path d="M195.947 155.396L195.339 155.104C193.739 154.336 190.055 152.532 181.155 149.532C171.427 146.252 165.891 145.292 162.651 146.332L162.527 145.952C165.859 144.892 171.467 145.852 181.283 149.152C190.207 152.164 193.927 153.972 195.515 154.752C195.755 154.872 195.951 154.968 196.115 155.04L195.947 155.396Z" fill="#263238"/>
<path d="M196.199 158.648L195.967 158.536C192.919 157.064 188.123 155.22 181.707 153.052C171.575 149.632 166.059 148.676 162.671 149.756L162.547 149.356C166.075 148.236 171.483 149.16 181.835 152.66C188.267 154.832 193.079 156.68 196.139 158.16L196.367 158.268L196.199 158.648Z" fill="#263238"/>
<path d="M196.448 161.892C196.416 161.892 193.096 160.24 182.264 156.576C171.584 152.976 166.264 152.044 162.692 153.184L162.568 152.804C166.248 151.632 171.62 152.552 182.392 156.196C193.26 159.872 196.596 161.52 196.628 161.536L196.448 161.892Z" fill="#263238"/>
<path d="M157.355 90.0239L159.251 166.928C159.251 166.928 153.567 155.244 138.407 155.728C123.247 156.212 89.7713 167.888 84.4073 168.992C79.0433 170.096 70.8193 171.2 70.8193 171.2L79.8193 97.7719C79.8193 97.7719 119.599 90.4999 127.999 87.9719C136.399 85.4439 143.635 82.7719 149.003 84.0239C154.371 85.2759 157.355 86.2359 157.355 90.0239Z" fill="white"/>
<path d="M70.5918 171.424L70.6238 171.168L79.6398 97.6L79.7838 97.572C80.1838 97.5 119.664 90.284 127.928 87.788C129.01 87.46 130.077 87.1334 131.128 86.808C138.204 84.616 144.328 82.724 149.04 83.836C154.324 85.08 157.564 86.044 157.564 90.028L159.484 167.848L159.084 167.024C159.028 166.908 153.272 155.456 138.424 155.924C127.288 156.272 106.276 162.676 93.7198 166.5C89.1678 167.888 85.8758 168.9 84.4518 169.184C79.1398 170.28 70.9398 171.388 70.8518 171.4L70.5918 171.424ZM79.9998 97.932L71.0518 170.96C72.4838 170.76 79.5918 169.76 84.3598 168.784C85.7678 168.496 89.2198 167.444 93.5918 166.112C106.168 162.28 127.192 155.868 138.392 155.516C151.324 155.116 157.48 163.6 159.024 166.136L157.148 90.024C157.148 86.332 154.18 85.452 148.936 84.22C144.312 83.132 138.252 85.02 131.232 87.184C130.184 87.504 129.12 87.836 128.032 88.164C120 90.588 82.6478 97.448 79.9998 97.932Z" fill="#263238"/>
<path d="M118.649 99.9778L89.0332 106.626L89.1212 107.018L118.737 100.37L118.649 99.9778Z" fill="#263238"/>
<path d="M88.2042 110.1L88.1162 109.7C94.5922 108.24 106.916 105.452 107.264 105.344C107.664 105.216 117.448 103.04 117.864 102.944L117.948 103.344C114.432 104.144 107.696 105.636 107.384 105.744C106.944 105.876 88.9682 109.928 88.2042 110.1Z" fill="#263238"/>
<path d="M87.88 113.388L87.792 112.988C87.976 112.944 106.244 108.78 107.096 108.512C107.948 108.244 117.384 106.152 117.788 106.06L117.876 106.46C117.776 106.46 108.004 108.652 107.216 108.9C106.348 109.2 88.636 113.2 87.88 113.388Z" fill="#263238"/>
<path d="M87.5598 116.676L87.4678 116.276C87.6478 116.236 105.644 112.084 106.932 111.68C108.132 111.304 117.332 109.26 117.712 109.176L117.8 109.576C117.704 109.6 108.232 111.7 107.052 112.072C105.752 112.48 88.2998 116.508 87.5598 116.676Z" fill="#263238"/>
<path d="M87.2356 119.968L87.1436 119.568C87.3236 119.528 105.048 115.388 106.764 114.848C108.364 114.348 117.26 112.376 117.64 112.292L117.724 112.692C117.632 112.692 108.46 114.744 106.884 115.24C105.152 115.784 87.9636 119.796 87.2356 119.968Z" fill="#263238"/>
<path d="M86.9113 123.252L86.8193 122.852C86.9953 122.812 104.451 118.688 106.599 118.012C108.599 117.388 117.199 115.484 117.563 115.404L117.651 115.804C117.559 115.824 108.691 117.804 106.719 118.404C104.555 119.084 87.6313 123.084 86.9113 123.252Z" fill="#263238"/>
<path d="M86.5881 126.544L86.4961 126.144C86.6681 126.104 103.852 121.996 106.432 121.184C108.832 120.432 117.404 118.54 117.488 118.52L117.576 118.92C117.488 118.94 108.92 120.828 106.552 121.572C103.96 122.4 86.7601 126.5 86.5881 126.544Z" fill="#263238"/>
<path d="M86.2639 129.832L86.1719 129.432C86.3399 129.392 103.256 125.296 106.264 124.352C109.064 123.476 117.332 121.652 117.416 121.636L117.5 122.036C117.416 122.056 109.152 123.876 106.384 124.744C103.364 125.692 86.4359 129.788 86.2639 129.832Z" fill="#263238"/>
<path d="M85.9397 133.12L85.8477 132.72C86.0117 132.676 102.648 128.596 106.1 127.52C109.276 126.52 117.26 124.768 117.34 124.748L117.428 125.148C117.344 125.148 109.38 126.916 106.228 127.908C102.764 128.992 86.1077 133.08 85.9397 133.12Z" fill="#263238"/>
<path d="M85.6195 136.4L85.5195 136C85.6875 135.96 102.06 131.892 105.92 130.672C109.496 129.548 117.176 127.872 117.252 127.852L117.34 128.252C117.264 128.252 109.6 129.944 106.04 131.052C102.168 132.296 85.7835 136.368 85.6195 136.4Z" fill="#263238"/>
<path d="M85.2953 139.696L85.1953 139.296C85.3593 139.256 101.459 135.2 105.767 133.848C109.735 132.6 117.115 130.988 117.191 130.972L117.275 131.372C117.203 131.372 109.839 132.996 105.883 134.236C101.571 135.6 85.4553 139.656 85.2953 139.696Z" fill="#263238"/>
<path d="M84.9721 142.984L84.8721 142.584C85.0321 142.544 100.872 138.504 105.6 137.016C109.968 135.644 117.044 134.104 117.116 134.088L117.2 134.488C117.132 134.488 110.068 136.036 105.72 137.404C100.972 138.9 85.1321 142.944 84.9721 142.984Z" fill="#263238"/>
<path d="M84.6479 146.272L84.5479 145.872C84.7039 145.832 100.268 141.808 105.432 140.184C110.196 138.684 116.976 137.216 117.032 137.2L117.116 137.6C117.048 137.6 110.288 139.08 105.54 140.572C100.376 142.204 84.7999 146.232 84.6479 146.272Z" fill="#263238"/>
<path d="M84.3236 149.56L84.2236 149.16C84.3756 149.12 99.6676 145.108 105.268 143.352C110.428 141.728 116.904 140.328 116.968 140.316L117.052 140.716C116.988 140.716 110.528 142.124 105.388 143.74C99.7796 145.504 84.4796 149.52 84.3236 149.56Z" fill="#263238"/>
<path d="M83.9995 152.848L83.8955 152.448C84.0475 152.404 99.0675 148.408 105.096 146.512C110.652 144.768 116.828 143.44 116.888 143.424L116.972 143.824C116.911 143.824 110.756 145.16 105.216 146.904C99.1995 148.8 84.1515 152.8 83.9995 152.848Z" fill="#263238"/>
<path d="M83.6802 156.136L83.5762 155.736C83.7242 155.696 98.4722 151.712 104.932 149.68C110.888 147.808 116.76 146.552 116.82 146.54L116.9 146.94C116.844 146.94 110.988 148.204 105.052 150.068C98.5842 152.112 83.8282 156.096 83.6802 156.136Z" fill="#263238"/>
<path d="M83.355 159.424L83.251 159.024C83.395 158.984 97.875 155.024 104.767 152.848C111.115 150.848 116.687 149.648 116.743 149.648L116.827 150.048C116.771 150.048 111.227 151.248 104.887 153.248C97.999 155.412 83.499 159.384 83.355 159.424Z" fill="#263238"/>
<path d="M122.228 99.036L122.104 98.636C123.232 98.276 149.776 89.876 153.804 94.304L153.508 94.576C149.652 90.352 122.5 98.948 122.228 99.036Z" fill="#263238"/>
<path d="M122.14 102.224L122.016 101.844C122.112 101.812 131.46 98.812 139.776 97.248C143.304 96.592 151.736 95.312 153.816 97.6L153.52 97.872C152.172 96.384 147.06 96.3 139.848 97.64C131.56 99.2 122.232 102.192 122.14 102.224Z" fill="#263238"/>
<path d="M122.052 105.412L121.932 105.032C122.024 105 131.532 101.916 139.744 100.396C146.86 99.108 152.392 99.296 153.828 100.876L153.532 101.148C152.208 99.688 146.692 99.548 139.816 100.792C131.64 102.304 122.148 105.38 122.052 105.412Z" fill="#263238"/>
<path d="M121.968 108.6L121.84 108.22C121.94 108.188 131.616 105 139.708 103.548C146.472 102.348 152.416 102.588 153.84 104.152L153.544 104.424C152.228 102.976 146.312 102.768 139.78 103.94C131.716 105.388 122.064 108.568 121.968 108.6Z" fill="#263238"/>
<path d="M121.88 111.788L121.756 111.388C121.852 111.356 131.696 108.08 139.676 106.676C146.208 105.528 152.436 105.848 153.852 107.408L153.556 107.68C152.412 106.42 146.808 105.828 139.744 107.068C131.796 108.488 122 111.756 121.88 111.788Z" fill="#263238"/>
<path d="M121.796 114.98L121.668 114.6C121.768 114.564 131.776 111.2 139.644 109.844C146.596 108.644 152.608 109.324 153.868 110.704L153.568 110.976C152.568 109.872 147.056 108.976 139.712 110.24C131.876 111.6 121.896 114.944 121.796 114.98Z" fill="#263238"/>
<path d="M121.708 118.168L121.58 117.788C121.68 117.752 131.856 114.3 139.612 112.988C147.076 111.736 152.8 112.8 153.88 114L153.584 114.272C152.676 113.272 147.252 112.132 139.676 113.408C131.956 114.688 121.808 118.132 121.708 118.168Z" fill="#263238"/>
<path d="M121.62 121.356L121.492 120.976C121.596 120.94 131.94 117.404 139.576 116.144C147.212 114.884 152.932 116.204 153.892 117.256L153.596 117.528C152.712 116.556 146.988 115.328 139.644 116.536C132.036 117.792 121.724 121.32 121.62 121.356Z" fill="#263238"/>
<path d="M121.535 124.544L121.403 124.168C121.507 124.128 132.019 120.508 139.543 119.292C147.007 118.092 152.943 119.48 153.903 120.532L153.599 120.8C152.799 119.92 147.071 118.476 139.599 119.684C132.127 120.892 121.639 124.508 121.535 124.544Z" fill="#263238"/>
<path d="M121.447 127.732L121.315 127.356C121.423 127.316 132.115 123.612 139.511 122.44C147.111 121.24 153.047 122.84 153.911 123.808L153.615 124.08C152.975 123.376 147.343 121.608 139.567 122.836C132.199 124 121.555 127.696 121.447 127.732Z" fill="#263238"/>
<path d="M121.36 130.92L121.228 130.544C121.336 130.504 132.18 126.716 139.48 125.592C147.38 124.372 153.236 126.324 153.928 127.084L153.632 127.356C153.152 126.828 147.736 124.72 139.54 125.984C132.28 127.108 121.468 130.884 121.36 130.92Z" fill="#263238"/>
<path d="M121.272 134.112L121.14 133.732C121.252 133.692 132.264 129.824 139.444 128.74C147.776 127.48 153.424 129.792 153.94 130.34L153.644 130.612C153.216 130.136 147.644 127.888 139.504 129.116C132.36 130.212 121.384 134.072 121.272 134.112Z" fill="#263238"/>
<path d="M121.199 137.3L121.063 136.92C121.175 136.884 132.355 132.92 139.423 131.888C147.695 130.688 153.503 133.128 153.963 133.636L153.667 133.908C153.415 133.628 148.003 131.028 139.483 132.284C132.439 133.32 121.299 137.26 121.199 137.3Z" fill="#263238"/>
<path d="M121.1 140.488L120.964 140.112C121.08 140.068 132.424 136.04 139.364 135.036C147.612 133.836 153.476 136.392 153.948 136.912L153.652 137.184C153.328 136.86 147.796 134.228 139.42 135.432C132.524 136.428 121.2 140.448 121.1 140.488Z" fill="#263238"/>
<path d="M121.012 143.676L120.88 143.3C120.992 143.26 132.508 139.16 139.344 138.188C147.992 136.988 153.704 139.888 153.976 140.188L153.684 140.46C153.232 140.06 147.624 137.444 139.4 138.584C132.604 139.552 121.128 143.636 121.012 143.676Z" fill="#263238"/>
<path d="M120.928 146.864L120.792 146.488C120.908 146.448 132.588 142.264 139.312 141.336C147.936 140.164 153.712 143.156 153.992 143.464L153.696 143.736C153.668 143.736 148.184 140.536 139.368 141.736C132.684 142.652 121.044 146.824 120.928 146.864Z" fill="#263238"/>
<path d="M120.84 150.052L120.704 149.676C120.824 149.632 132.672 145.368 139.28 144.476C148.212 143.276 153.904 146.664 153.96 146.696L153.752 147.04C153.696 147.004 148.12 143.704 139.332 144.876C132.768 145.756 120.956 150 120.84 150.052Z" fill="#263238"/>
<path d="M189.92 174.372C189.92 174.372 188.68 174.064 186.752 173.66L186.836 173.26C188.772 173.66 190.008 173.972 190.036 173.976L189.92 174.372Z" fill="#263238"/>
<path d="M185.315 173.368C183.627 173.036 182.223 171.828 180.739 170.568C178.867 168.968 176.931 167.284 174.211 167.204C168.87 167.104 163.556 167.99 158.535 169.816L158.379 169.876L158.291 169.732C157.679 168.798 157.004 167.907 156.271 167.064L156.571 166.804C157.283 167.622 157.941 168.483 158.543 169.384C163.572 167.588 168.884 166.714 174.223 166.804C177.083 166.888 179.075 168.604 181.003 170.264C182.443 171.504 183.803 172.664 185.403 172.992L185.315 173.368Z" fill="#263238"/>
<path d="M155.227 165.904C154.237 164.869 153.167 163.913 152.027 163.044L152.267 162.728C153.423 163.607 154.506 164.577 155.507 165.628L155.227 165.904Z" fill="#263238"/>
<path d="M152.036 163.044C150.426 161.806 148.646 160.805 146.752 160.072C138.528 156.952 129.376 159.296 128.352 159.572L128.248 159.172C129.276 158.892 138.544 156.52 146.888 159.688C148.817 160.434 150.629 161.454 152.268 162.716L152.036 163.044Z" fill="#263238"/>
<path d="M105.056 165.268L104.968 164.868C105.192 164.816 127.456 159.844 136.968 160.068C140.676 160.121 144.352 160.774 147.852 162L147.716 162.376C144.252 161.163 140.614 160.521 136.944 160.476C127.484 160.256 105.28 165.22 105.056 165.268Z" fill="#263238"/>
<path d="M151.321 164.1C150.734 163.718 150.118 163.384 149.477 163.104L149.641 162.74C150.302 163.034 150.939 163.378 151.549 163.768L151.321 164.1Z" fill="#263238"/>
<path d="M150.002 170.23L89.5596 173.123L89.5787 173.523L150.022 170.63L150.002 170.23Z" fill="#263238"/>
<path d="M155.689 169.95L152.389 170.108L152.408 170.507L155.708 170.349L155.689 169.95Z" fill="#263238"/>
<path d="M108.428 175.88L104.905 175.969L104.915 176.369L108.438 176.279L108.428 175.88Z" fill="#263238"/>
<path d="M102.885 176.023L74.9424 176.731L74.9525 177.131L102.896 176.423L102.885 176.023Z" fill="#263238"/>
<path d="M146.956 178.137L143.852 178.23L143.864 178.63L146.968 178.537L146.956 178.137Z" fill="#263238"/>
<path d="M141.356 178.3L101.996 179.481L102.008 179.881L141.368 178.7L141.356 178.3Z" fill="#263238"/>
<path d="M130.681 174.736L122.438 175.018L122.451 175.418L130.694 175.136L130.681 174.736Z" fill="#263238"/>
<path d="M153.383 173.96L132.939 174.659L132.953 175.059L153.397 174.36L153.383 173.96Z" fill="#263238"/>
<path d="M95.3128 179.258L92.4619 179.336L92.4729 179.736L95.3238 179.657L95.3128 179.258Z" fill="#263238"/>
<path d="M90.6823 179.384L64.1562 180.111L64.1672 180.511L90.6932 179.784L90.6823 179.384Z" fill="#263238"/>
<path d="M111.647 92.1159C111.647 92.1159 117.527 84.3839 121.247 81.1639C124.967 77.9439 131.315 72.8679 133.895 72.8679C136.475 72.8679 137.115 74.4679 137.279 75.0399C137.443 75.6119 139.599 83.7399 139.599 84.1439C139.599 84.5479 137.347 85.1919 137.199 84.7079C137.051 84.2239 136.071 77.2959 135.671 76.0079C135.271 74.7199 135.347 74.0079 132.287 75.2839C129.227 76.5599 120.207 86.2359 118.351 88.4839C116.495 90.7319 114.727 93.0759 114.727 93.0759C114.727 93.0759 112.535 92.1159 111.647 92.1159Z" fill="#263238"/>
<path d="M114.771 93.332L114.627 93.268C114.607 93.268 112.479 92.316 111.647 92.316H111.247L111.491 91.996C111.551 91.92 117.427 84.212 121.091 81.012C123.975 78.504 130.995 72.668 133.867 72.668C136.495 72.668 137.243 74.288 137.443 74.988C137.555 75.388 139.783 83.684 139.783 84.144C139.783 84.604 138.435 84.98 138.075 85.04C137.439 85.14 137.071 85.04 136.979 84.772C136.915 84.572 136.759 83.6 136.487 81.896C136.151 79.76 135.687 76.832 135.447 76.068L135.359 75.772C135.227 75.316 135.127 74.972 134.875 74.868C134.515 74.696 133.727 74.868 132.331 75.468C129.363 76.716 120.443 86.224 118.475 88.62C116.647 90.848 114.875 93.18 114.855 93.204L114.771 93.332ZM112.023 91.956C112.923 92.165 113.8 92.4611 114.643 92.84C115.043 92.324 116.587 90.304 118.179 88.368C119.943 86.216 129.015 76.436 132.179 75.1C133.747 74.44 134.555 74.272 135.047 74.508C135.447 74.704 135.591 75.148 135.743 75.66C135.771 75.752 135.799 75.848 135.831 75.948C136.079 76.748 136.523 79.548 136.883 81.832C137.099 83.188 137.283 84.468 137.359 84.632C137.568 84.6899 137.79 84.6899 137.999 84.632C138.501 84.5764 138.98 84.3933 139.391 84.1C139.363 83.7 137.267 75.812 137.055 75.08C136.843 74.348 136.139 73.052 133.855 73.052C131.055 73.052 123.563 79.364 121.339 81.3C118.115 84.136 113.123 90.532 112.023 91.956Z" fill="#263238"/>
<path d="M211.175 100C210.987 99.728 210.735 99.412 210.559 99.368C210.275 99.296 208.387 102.504 207.923 103.296C208.178 102.975 208.467 102.684 208.787 102.428C208.787 102.668 207.819 107.42 206.935 109.676C206.051 111.932 206.287 112.98 207.175 112.9C208.063 112.82 209.267 108.792 209.975 106.536C210.606 104.406 211.008 102.215 211.175 100Z" fill="white"/>
<path d="M207.084 113.104C206.953 113.11 206.823 113.085 206.704 113.029C206.586 112.973 206.483 112.889 206.404 112.784C206.004 112.264 206.136 111.184 206.748 109.604C207.46 107.792 208.228 104.336 208.492 102.976L208.072 103.432L206.8 104.8L207.744 103.18C210.144 99.044 210.424 99.112 210.6 99.156C210.776 99.2 210.936 99.296 211.332 99.868L211.372 99.928V100C211.21 102.231 210.807 104.439 210.172 106.584L209.992 107.156C208.936 110.468 208.06 113.004 207.192 113.084L207.084 113.104ZM208.8 102.216L208.86 102.236L208.988 102.284V102.428C208.988 102.708 208.008 107.484 207.12 109.748C206.348 111.716 206.584 112.356 206.72 112.548C206.771 112.611 206.839 112.658 206.915 112.686C206.991 112.713 207.073 112.719 207.152 112.704C207.836 112.64 209.04 108.864 209.616 107.052L209.8 106.476C210.414 104.39 210.805 102.245 210.968 100.076C210.861 99.8991 210.726 99.741 210.568 99.608C209.908 100.427 209.317 101.3 208.8 102.216Z" fill="#263238"/>
<path d="M211.123 98.3199C210.799 96.8679 208.723 98.7199 207.819 100.012C206.915 101.304 202.907 105.648 200.651 107.824C198.395 110 189.939 117.248 189.051 117.892C188.163 118.536 187.119 119.664 186.475 119.744C185.831 119.824 184.139 119.744 183.335 119.26C182.531 118.776 182.135 117.892 178.259 115.8C174.383 113.708 157.639 108.872 156.431 108.8C155.223 108.728 154.255 109.928 152.563 110.652C150.871 111.376 148.055 111.536 146.847 110.488C145.639 109.44 144.187 106.784 143.383 104.852C142.579 102.92 141.287 102.452 140.159 101.792C139.031 101.132 125.503 95.1999 123.003 94.3719C120.503 93.5439 118.011 93.0039 116.883 92.9239C116.153 92.882 115.422 92.9358 114.707 93.0839C114.707 93.0839 114.547 93.3239 113.907 92.8439C113.267 92.3639 111.167 91.4719 110.523 92.7599C109.879 94.0479 108.923 97.0319 109.475 98.1599L110.039 99.2879C110.039 99.2879 109.475 106.536 109.719 109.032C109.963 111.528 111.895 114.752 113.503 116.684C115.111 118.616 121.559 122.24 126.303 123.368C131.047 124.496 133.955 123.852 135.243 122.968C136.531 122.084 140.479 117.652 141.447 116.604C142.415 115.556 142.331 114.912 145.471 115.88C148.611 116.848 149.743 119.1 150.307 120.792C150.871 122.484 152.963 129.248 154.655 131.424C156.772 134.283 159.606 136.533 162.871 137.948C166.979 139.72 169.715 141.088 173.583 140.608C177.451 140.128 179.543 138.352 180.751 136.256C181.959 134.16 182.751 129.976 183.151 128.684C183.482 127.827 184.074 127.096 184.843 126.592C184.843 126.592 186.443 125.868 186.939 124.74C187.435 123.612 191.207 120.148 191.207 120.148C191.207 120.148 197.327 115.316 199.663 112.656C201.999 109.996 208.799 102.184 208.799 102.428C208.799 102.672 207.831 107.42 206.947 109.676C206.063 111.932 206.299 112.98 207.187 112.9C208.075 112.82 209.279 108.792 209.987 106.536C210.695 104.28 211.443 99.7679 211.123 98.3199ZM142.659 111.6C142.515 112.087 142.298 112.55 142.015 112.972C141.531 113.696 138.307 118.852 136.295 120.46C134.283 122.068 131.947 123.44 129.527 123.2C127.107 122.96 120.911 120.624 116.327 117C111.743 113.376 111.091 108.62 111.575 104.032C112.059 99.4439 113.671 96.2959 116.087 95.8159C118.503 95.3359 126.487 97.3439 131.955 100.244C137.423 103.144 142.103 106.688 142.423 107.896C142.743 109.104 142.659 111.6 142.659 111.6ZM181.239 128.12C180.755 132.308 179.791 134.728 178.339 136.66C176.887 138.592 175.199 139.48 170.687 139.06C166.175 138.64 162.795 136.964 159.651 134.712C156.507 132.46 155.463 129.476 154.255 126.656C153.047 123.836 150.955 118.2 152.163 114.656C153.371 111.112 156.915 112 156.915 112C156.915 112 159.895 112.644 160.115 112.724C160.335 112.804 178.159 118.04 178.963 119.248C179.767 120.456 181.723 123.932 181.239 128.12Z" fill="#263238"/>
<path d="M172.043 140.904C169.175 140.904 166.807 139.876 163.711 138.528L162.795 138.128C159.5 136.701 156.64 134.43 154.503 131.544C152.959 129.544 151.123 123.92 150.335 121.512C150.251 121.248 150.175 121.024 150.119 120.852C149.587 119.252 148.519 117.02 145.419 116.052C142.827 115.252 142.571 115.568 141.947 116.316C141.843 116.444 141.731 116.58 141.595 116.716L140.995 117.372C139.531 118.972 136.479 122.34 135.359 123.108C134.703 123.56 132.103 124.928 126.259 123.54C121.583 122.428 115.019 118.796 113.347 116.788C111.611 114.708 109.747 111.5 109.515 109.028C109.283 106.628 109.779 100.028 109.831 99.2999L109.295 98.2239C108.687 97.0239 109.695 93.9439 110.343 92.6479C110.432 92.4632 110.563 92.3014 110.724 92.1752C110.886 92.0489 111.074 91.9616 111.275 91.9199C112.275 91.6839 113.583 92.3199 114.023 92.6599C114.367 92.9159 114.523 92.9239 114.563 92.9199L114.587 92.8839L114.663 92.8639C115.398 92.7102 116.15 92.6551 116.899 92.6999C118.123 92.7879 120.715 93.3999 123.067 94.1599C125.563 94.9599 139.171 100.96 140.267 101.584L140.699 101.824C141.703 102.372 142.843 102.988 143.575 104.744C144.419 106.772 145.863 109.336 146.983 110.308C148.103 111.28 150.799 111.16 152.495 110.436C153.09 110.163 153.66 109.839 154.199 109.468C154.999 108.956 155.659 108.52 156.451 108.568C157.739 108.652 174.591 113.556 178.363 115.6C181.115 117.088 182.111 117.96 182.763 118.536C182.971 118.732 183.196 118.909 183.435 119.064C184.179 119.512 185.835 119.6 186.451 119.524C186.823 119.476 187.427 118.956 188.015 118.456C188.319 118.196 188.635 117.924 188.935 117.708C189.791 117.084 198.235 109.852 200.511 107.656C202.707 105.536 206.771 101.156 207.655 99.8719C208.267 98.9839 209.803 97.4039 210.723 97.5799C210.88 97.616 211.021 97.7002 211.127 97.8207C211.233 97.9413 211.299 98.0921 211.315 98.2519C211.663 99.8159 210.879 104.408 210.183 106.572L210.003 107.144C208.947 110.456 208.071 112.992 207.203 113.072C207.054 113.098 206.901 113.083 206.76 113.028C206.618 112.973 206.495 112.88 206.403 112.76C206.003 112.24 206.135 111.16 206.747 109.58C207.459 107.768 208.227 104.308 208.491 102.952C207.335 104.18 203.947 108.056 201.799 110.516L199.835 112.8C197.515 115.444 191.411 120.268 191.351 120.316C190.063 121.496 187.511 123.968 187.143 124.828C186.635 126.028 185.015 126.756 184.947 126.784C184.224 127.262 183.666 127.95 183.347 128.756C183.247 129.08 183.115 129.612 182.947 130.228C182.495 132.044 181.815 134.788 180.899 136.368C179.423 138.932 177.031 140.368 173.583 140.816C173.072 140.877 172.558 140.906 172.043 140.904ZM143.199 115.2C143.997 115.254 144.783 115.418 145.535 115.688C148.815 116.696 149.935 119.048 150.499 120.728C150.555 120.9 150.631 121.128 150.715 121.392C151.495 123.792 153.319 129.392 154.815 131.3C156.912 134.134 159.72 136.364 162.955 137.764L163.871 138.164C167.471 139.724 170.043 140.852 173.563 140.412C176.875 140.012 179.163 138.608 180.583 136.16C181.467 134.628 182.143 131.916 182.583 130.12C182.739 129.5 182.871 128.968 182.983 128.628C183.326 127.723 183.948 126.951 184.759 126.424C184.795 126.404 186.327 125.704 186.759 124.664C187.251 123.508 190.919 120.148 191.075 120.004C191.147 119.948 197.219 115.144 199.519 112.528L201.483 110.284C208.591 102.144 208.631 102.16 208.839 102.24L208.967 102.288V102.432C208.967 102.712 207.987 107.488 207.099 109.752C206.327 111.72 206.563 112.36 206.699 112.552C206.75 112.615 206.818 112.662 206.894 112.69C206.97 112.717 207.052 112.723 207.131 112.708C207.815 112.644 209.019 108.868 209.595 107.056L209.779 106.48C210.519 104.18 211.207 99.7519 210.903 98.3719C210.839 98.0799 210.711 98.0239 210.623 98.0039C210.031 97.8959 208.687 99.0759 207.959 100.132C207.043 101.464 203.003 105.82 200.759 107.976C198.515 110.132 189.999 117.436 189.139 118.06C188.851 118.268 188.543 118.536 188.243 118.792C187.583 119.356 186.959 119.888 186.467 119.952C185.879 120.024 184.099 119.984 183.199 119.44C182.938 119.273 182.693 119.083 182.467 118.872C181.823 118.304 180.843 117.452 178.131 115.98C174.387 113.952 157.659 109.084 156.387 109C155.727 108.952 155.131 109.344 154.387 109.836C153.829 110.221 153.237 110.556 152.619 110.836C150.815 111.608 147.935 111.72 146.691 110.64C145.447 109.56 144.011 106.936 143.175 104.928C142.499 103.304 141.471 102.748 140.475 102.208L140.039 101.964C138.955 101.344 125.407 95.3719 122.919 94.5719C120.945 93.8971 118.91 93.4149 116.843 93.1319C116.152 93.0926 115.458 93.141 114.779 93.2759C114.729 93.3112 114.672 93.3344 114.611 93.3439C114.294 93.35 113.988 93.2307 113.759 93.0119C113.335 92.6919 112.159 92.1519 111.359 92.3399C111.216 92.3695 111.081 92.4318 110.966 92.522C110.851 92.6122 110.758 92.7279 110.695 92.8599C110.055 94.1359 109.135 97.0519 109.647 98.0599L110.235 99.2599V99.3119C110.235 99.3879 109.675 106.572 109.915 109.024C110.143 111.424 111.959 114.532 113.655 116.568C115.287 118.532 121.743 122.092 126.351 123.188C132.039 124.536 134.511 123.244 135.151 122.812C136.231 122.072 139.259 118.74 140.715 117.14C140.971 116.86 141.175 116.632 141.319 116.48C141.463 116.328 141.555 116.208 141.655 116.08C142.087 115.536 142.399 115.2 143.199 115.2ZM172.635 139.372C172.047 139.372 171.395 139.34 170.671 139.276C166.703 138.92 163.267 137.568 159.535 134.876C156.623 132.784 155.487 130.076 154.387 127.48C154.283 127.232 154.179 126.984 154.071 126.74C152.471 123.04 150.835 117.94 151.971 114.592C153.227 110.92 156.927 111.792 156.963 111.792C157.263 111.856 159.955 112.436 160.199 112.52L160.623 112.648C168.719 115.068 178.507 118.16 179.151 119.124C179.795 120.088 181.951 123.716 181.439 128.116C180.987 132.024 180.107 134.608 178.499 136.752C177.267 138.42 175.875 139.372 172.635 139.372ZM155.931 112.108C154.847 112.108 153.131 112.508 152.351 114.736C151.199 118.12 153.151 123.616 154.439 126.592C154.547 126.84 154.651 127.088 154.755 127.336C155.831 129.892 156.947 132.536 159.771 134.564C163.439 137.2 166.811 138.528 170.707 138.876C175.211 139.276 176.811 138.368 178.179 136.54C179.743 134.456 180.599 131.932 181.039 128.1C181.531 123.832 179.463 120.34 178.819 119.372C178.655 119.128 176.851 117.948 160.507 113.056L160.071 112.928C159.903 112.872 158.071 112.468 156.871 112.208C156.563 112.139 156.247 112.105 155.931 112.108ZM130.103 123.436C129.904 123.437 129.705 123.427 129.507 123.408C126.979 123.152 120.783 120.784 116.195 117.164C111.055 113.104 110.995 107.716 111.367 104.016C111.879 99.1759 113.579 96.1199 116.039 95.6159C118.499 95.1119 126.491 97.1279 132.039 100.064C137.307 102.864 142.247 106.488 142.611 107.84C142.935 109.064 142.859 111.5 142.859 111.604V111.648C142.71 112.156 142.483 112.637 142.187 113.076C142.135 113.156 142.055 113.284 141.943 113.452C141.031 114.86 138.251 119.156 136.427 120.612C134.035 122.532 131.999 123.436 130.103 123.436ZM116.979 95.9479C116.689 95.9437 116.4 95.9678 116.115 96.0199C113.875 96.4679 112.247 99.4719 111.767 104.06C111.163 109.788 112.647 113.852 116.443 116.86C120.799 120.3 127.011 122.768 129.547 123.02C131.519 123.22 133.623 122.364 136.171 120.324C137.943 118.908 140.695 114.656 141.603 113.256L141.847 112.88C142.114 112.483 142.32 112.049 142.459 111.592C142.459 111.34 142.519 109.072 142.223 107.968C141.927 106.864 137.335 103.344 131.851 100.44C126.915 97.8159 120.031 95.9479 116.979 95.9479Z" fill="#263238"/>
<path d="M148.652 113.124C148.301 113.126 147.951 113.088 147.608 113.012C144.736 112.376 143.628 109.272 142.896 107.216L142.792 106.924C142.108 105.024 141.424 104.524 141.42 104.524L141.64 104.196C141.672 104.216 142.44 104.736 143.168 106.788L143.272 107.08C143.976 109.052 145.04 112.032 147.696 112.624C150.464 113.236 153.296 110.836 153.32 110.812L153.584 111.116C153.476 111.2 151.2 113.124 148.652 113.124Z" fill="white"/>
<path d="M184.716 122.308C183.77 122.271 182.843 122.029 182 121.6C181.907 121.52 181.832 121.422 181.78 121.312C181.408 120.68 180.268 118.768 175.504 116.62C169.868 114.08 156.98 110.864 156.852 110.832L156.948 110.432C157.076 110.464 170 113.688 175.668 116.244C180.544 118.444 181.736 120.436 182.124 121.092C182.168 121.164 182.216 121.244 182.232 121.264C182.396 121.368 184.744 122.4 185.856 121.58L186.096 121.904C185.689 122.18 185.207 122.321 184.716 122.308Z" fill="white"/>
<path d="M140.759 103.788C140.759 103.788 139.159 102.472 132.507 99.468C128.14 97.5449 123.615 96.0032 118.983 94.86C118.511 94.736 118.139 94.64 117.875 94.564C116.448 94.2117 114.951 94.2685 113.555 94.728C112.335 95.072 110.851 93.772 110.791 93.716L111.055 93.416C111.055 93.416 112.439 94.616 113.455 94.34C114.922 93.8612 116.494 93.8057 117.991 94.18C118.255 94.256 118.627 94.352 119.091 94.472C123.75 95.6197 128.3 97.1695 132.691 99.104C139.407 102.14 140.971 103.428 141.035 103.484L140.759 103.788Z" fill="white"/>
<path d="M114.095 116.272C110.439 113.1 110.719 107.704 110.723 107.652L111.123 107.676C111.123 107.728 110.851 112.932 114.355 115.968L114.095 116.272Z" fill="white"/>
</svg>
