<svg width="110" height="28" viewBox="0 0 110 28" fill="none" xmlns="http://www.w3.org/2000/svg">
<g clip-path="url(#clip0_231_1021)">
<path d="M12.6351 0.5V3.76189H7.9936V18.479H4.64145V3.76189H0V0.5H12.6351Z" fill="#302D6D"/>
<path d="M17.6156 18.6844C15.7763 18.6844 14.2033 18.0422 12.8968 16.7581C11.6075 15.4568 10.9629 13.89 10.9629 12.0579C10.9629 10.2257 11.6075 8.66757 12.8968 7.38336C14.2033 6.08203 15.7763 5.43137 17.6156 5.43137C19.455 5.43137 21.0194 6.08203 22.3087 7.38336C23.598 8.66757 24.2426 10.2257 24.2426 12.0579V18.479H20.8904V17.1177C20.7013 17.5458 20.2887 17.9139 19.6528 18.2221C19.0167 18.5303 18.3376 18.6844 17.6156 18.6844ZM15.2691 14.4722C15.9052 15.1058 16.6959 15.4225 17.6414 15.4225C18.5869 15.4225 19.3691 15.1058 19.9879 14.4722C20.6068 13.8216 20.9162 13.0168 20.9162 12.0579C20.9162 11.099 20.6068 10.3028 19.9879 9.66925C19.3691 9.01859 18.5869 8.69326 17.6414 8.69326C16.6959 8.69326 15.9052 9.01859 15.2691 9.66925C14.6331 10.3028 14.315 11.099 14.315 12.0579C14.315 13.0168 14.6331 13.8216 15.2691 14.4722Z" fill="#302D6D"/>
<path d="M36.9445 18.1636H33.1539L30.498 14.2595L27.8163 18.1636H24L28.5899 11.4857L24.3867 5.32144H28.1515L30.4722 8.73744L32.8187 5.32144H36.5834L32.3804 11.4857L36.9445 18.1636Z" fill="#302D6D"/>
<path d="M43.7289 23.6157C42.388 23.6157 41.1675 23.2476 40.0673 22.5113C38.9671 21.7922 38.1592 20.8333 37.6435 19.6347H41.7176C42.3365 20.1142 43.0069 20.3539 43.7289 20.3539C44.6229 20.3539 45.3792 20.1313 45.9981 19.6861C46.6341 19.2409 46.9521 18.633 46.9521 17.8625V17.8368C45.9551 18.4019 44.8807 18.6844 43.7289 18.6844C41.8895 18.6844 40.3166 18.0422 39.0101 16.7581C37.7208 15.4568 37.0762 13.89 37.0762 12.0579C37.0762 10.2257 37.7208 8.66757 39.0101 7.38336C40.3166 6.08203 41.8895 5.43137 43.7289 5.43137C45.5683 5.43137 47.1326 6.08203 48.4219 7.38336C49.7284 8.66757 50.3816 10.2257 50.3816 12.0579V16.9892C50.3816 18.8214 49.7284 20.3795 48.4219 21.6637C47.1326 22.9651 45.5683 23.6157 43.7289 23.6157ZM41.3824 14.4722C42.0185 15.1058 42.8092 15.4225 43.7547 15.4225C44.7002 15.4225 45.4823 15.1058 46.1012 14.4722C46.7201 13.8216 47.0295 13.0168 47.0295 12.0579C47.0295 11.099 46.7201 10.3028 46.1012 9.66925C45.4823 9.01859 44.7002 8.69326 43.7547 8.69326C42.8092 8.69326 42.0185 9.01859 41.3824 9.66925C40.7464 10.3028 40.4283 11.099 40.4283 12.0579C40.4283 13.0168 40.7464 13.8216 41.3824 14.4722Z" fill="#302D6D"/>
<path d="M55.2882 18.479H51.936V0.5H55.2882V18.479Z" fill="#302D6D"/>
<path d="M77.2358 12.0579V0.5H80.6138V6.40736C81.5248 5.7567 82.6079 5.43136 83.8628 5.43136C85.7022 5.43136 87.2665 6.08203 88.5558 7.38336C89.8622 8.66757 90.5155 10.2257 90.5155 12.0579C90.5155 13.89 89.8622 15.4568 88.5558 16.7581C87.2665 18.0422 85.7022 18.6844 83.8628 18.6844C82.0234 18.6844 80.4591 18.0422 79.1698 16.7581C77.8805 15.4568 77.2358 13.89 77.2358 12.0579ZM86.2351 9.66924C85.6162 9.01858 84.8341 8.69325 83.8885 8.69325C82.9431 8.69325 82.1523 9.01858 81.5162 9.66924C80.8802 10.3028 80.5622 11.099 80.5622 12.0579C80.5622 13.0167 80.8802 13.8216 81.5162 14.4722C82.1523 15.1058 82.9431 15.4224 83.8885 15.4224C84.8341 15.4224 85.6162 15.1058 86.2351 14.4722C86.854 13.8216 87.1633 13.0167 87.1633 12.0579C87.1633 11.099 86.854 10.3028 86.2351 9.66924Z" fill="#302D6D"/>
<path d="M98.2137 18.6844C96.3743 18.6844 94.8015 18.0422 93.495 16.7581C92.2057 15.4568 91.561 13.89 91.561 12.0579C91.561 10.2257 92.2057 8.66757 93.495 7.38336C94.8015 6.08203 96.3743 5.43137 98.2137 5.43137C100.053 5.43137 101.617 6.08203 102.907 7.38336C104.196 8.66757 104.841 10.2257 104.841 12.0579V18.479H101.489V17.1177C101.299 17.5458 100.887 17.9139 100.251 18.2221C99.6148 18.5303 98.9357 18.6844 98.2137 18.6844ZM95.8673 14.4722C96.5034 15.1058 97.2941 15.4225 98.2395 15.4225C99.1851 15.4225 99.9672 15.1058 100.586 14.4722C101.205 13.8216 101.514 13.0168 101.514 12.0579C101.514 11.099 101.205 10.3028 100.586 9.66925C99.9672 9.01859 99.1851 8.69326 98.2395 8.69326C97.2941 8.69326 96.5034 9.01859 95.8673 9.66925C95.2313 10.3028 94.9132 11.099 94.9132 12.0579C94.9132 13.0168 95.2313 13.8216 95.8673 14.4722Z" fill="#302D6D"/>
<path d="M110 18.479H106.648V0.5H110V18.479Z" fill="#302D6D"/>
<path fill-rule="evenodd" clip-rule="evenodd" d="M59.0312 12.0197C59.0312 8.4573 61.9304 5.56946 65.5069 5.56946C69.0833 5.56946 71.9826 8.4573 71.9826 12.0197C71.9826 15.5819 69.0833 18.4697 65.5069 18.4697C61.9304 18.4697 59.0312 15.5819 59.0312 12.0197ZM65.5069 15.8897C63.361 15.8897 61.6215 14.1571 61.6215 12.0197C61.6215 9.88223 63.361 8.14952 65.5069 8.14952C67.6527 8.14952 69.3923 9.88223 69.3923 12.0197C69.3923 14.1571 67.6527 15.8897 65.5069 15.8897Z" fill="#302D6D"/>
<path d="M56.6309 17.3466C58.2526 20.0218 61.0588 21.9044 64.3258 22.2736V24.9199H61.6214V27.5H69.3922V24.9199H66.9161V22.2452C71.9716 21.5604 75.8678 17.2433 75.8678 12.0197C75.8678 10.0025 75.2869 8.12051 74.2824 6.53067L72.0758 7.88281C72.837 9.07941 73.2775 10.4983 73.2775 12.0197C73.2775 16.2944 69.7985 19.7598 65.5067 19.7598C62.6741 19.7598 60.1955 18.2502 58.8375 15.9946L56.6309 17.3466Z" fill="#302D6D"/>
</g>
<defs>
<clipPath id="clip0_231_1021">
<rect width="110" height="27" fill="white" transform="translate(0 0.5)"/>
</clipPath>
</defs>
</svg>
