<svg width="48" height="48" viewBox="0 0 48 48" fill="none" xmlns="http://www.w3.org/2000/svg">
<path d="M8.72633 42.4709V40.0012C8.72633 39.0545 8.15008 38.4371 7.16221 38.4371C6.66828 38.4371 6.13319 38.6018 5.76274 39.1368C5.47462 38.6841 5.06301 38.4371 4.44559 38.4371C4.03399 38.4371 3.62238 38.5606 3.29309 39.0134V38.5194H2.42871V42.4709H3.29309V40.2894C3.29309 39.5896 3.66354 39.2603 4.23979 39.2603C4.81604 39.2603 5.10417 39.6308 5.10417 40.2894V42.4709H5.96855V40.2894C5.96855 39.5896 6.38016 39.2603 6.91525 39.2603C7.4915 39.2603 7.77963 39.6308 7.77963 40.2894V42.4709H8.72633ZM21.5274 38.5194H20.1279V37.3258H19.2635V38.5194H18.4815V39.3015H19.2635V41.1126C19.2635 42.0181 19.634 42.5532 20.6218 42.5532C20.9923 42.5532 21.4039 42.4297 21.692 42.2651L21.445 41.5242C21.1981 41.6888 20.91 41.73 20.7041 41.73C20.2925 41.73 20.1279 41.483 20.1279 41.0714V39.3015H21.5274V38.5194ZM28.854 38.4371C28.3601 38.4371 28.0308 38.6841 27.825 39.0134V38.5194H26.9606V42.4709H27.825V40.2482C27.825 39.5896 28.1131 39.2192 28.6482 39.2192C28.8128 39.2192 29.0186 39.2603 29.1833 39.3015L29.4303 38.4783C29.2656 38.4371 29.0186 38.4371 28.854 38.4371ZM17.7817 38.8487C17.3701 38.5606 16.7939 38.4371 16.1764 38.4371C15.1886 38.4371 14.53 38.931 14.53 39.7131C14.53 40.3717 15.0239 40.7421 15.8883 40.8656L16.2999 40.9068C16.7527 40.9891 16.9997 41.1126 16.9997 41.3184C16.9997 41.6065 16.6704 41.8123 16.0941 41.8123C15.5179 41.8123 15.0651 41.6065 14.777 41.4007L14.3654 42.0593C14.8181 42.3886 15.4356 42.5532 16.053 42.5532C17.2055 42.5532 17.864 42.0181 17.864 41.2772C17.864 40.5775 17.329 40.207 16.5057 40.0835L16.0941 40.0424C15.7237 40.0012 15.4356 39.9189 15.4356 39.6719C15.4356 39.3838 15.7237 39.2192 16.1764 39.2192C16.6704 39.2192 17.1643 39.425 17.4113 39.5485L17.7817 38.8487ZM40.7495 38.4371C40.2556 38.4371 39.9263 38.6841 39.7205 39.0134V38.5194H38.8561V42.4709H39.7205V40.2482C39.7205 39.5896 40.0086 39.2192 40.5437 39.2192C40.7083 39.2192 40.9141 39.2603 41.0788 39.3015L41.3258 38.4783C41.1611 38.4371 40.9141 38.4371 40.7495 38.4371ZM29.7184 40.4952C29.7184 41.6888 30.5416 42.5532 31.8176 42.5532C32.3938 42.5532 32.8054 42.4297 33.2171 42.1004L32.8054 41.4007C32.4762 41.6477 32.1469 41.7711 31.7764 41.7711C31.0767 41.7711 30.5828 41.2772 30.5828 40.4952C30.5828 39.7543 31.0767 39.2603 31.7764 39.2192C32.1469 39.2192 32.4762 39.3427 32.8054 39.5896L33.2171 38.8899C32.8054 38.5606 32.3938 38.4371 31.8176 38.4371C30.5416 38.4371 29.7184 39.3015 29.7184 40.4952ZM37.7036 40.4952V38.5194H36.8392V39.0134C36.5511 38.6429 36.1395 38.4371 35.6044 38.4371C34.493 38.4371 33.6287 39.3015 33.6287 40.4952C33.6287 41.6888 34.493 42.5532 35.6044 42.5532C36.1806 42.5532 36.5923 42.3474 36.8392 41.9769V42.4709H37.7036V40.4952ZM34.5342 40.4952C34.5342 39.7954 34.987 39.2192 35.7279 39.2192C36.4276 39.2192 36.9215 39.7543 36.9215 40.4952C36.9215 41.1949 36.4276 41.7711 35.7279 41.7711C34.987 41.73 34.5342 41.1949 34.5342 40.4952ZM24.2028 38.4371C23.0503 38.4371 22.2271 39.2603 22.2271 40.4952C22.2271 41.73 23.0503 42.5532 24.244 42.5532C24.8202 42.5532 25.3965 42.3886 25.8493 42.0181L25.4376 41.4007C25.1084 41.6477 24.6968 41.8123 24.2851 41.8123C23.7501 41.8123 23.215 41.5653 23.0915 40.8656H26.0139V40.5363C26.0551 39.2603 25.3142 38.4371 24.2028 38.4371ZM24.2028 39.178C24.7379 39.178 25.1084 39.5073 25.1907 40.1247H23.1326C23.215 39.5896 23.5854 39.178 24.2028 39.178ZM45.6476 40.4952V36.9553H44.7833V39.0134C44.4951 38.6429 44.0835 38.4371 43.5484 38.4371C42.4371 38.4371 41.5727 39.3015 41.5727 40.4952C41.5727 41.6888 42.4371 42.5532 43.5484 42.5532C44.1247 42.5532 44.5363 42.3474 44.7833 41.9769V42.4709H45.6476V40.4952ZM42.4783 40.4952C42.4783 39.7954 42.931 39.2192 43.6719 39.2192C44.3717 39.2192 44.8656 39.7543 44.8656 40.4952C44.8656 41.1949 44.3717 41.7711 43.6719 41.7711C42.931 41.73 42.4783 41.1949 42.4783 40.4952ZM13.5833 40.4952V38.5194H12.7189V39.0134C12.4308 38.6429 12.0192 38.4371 11.4841 38.4371C10.3728 38.4371 9.50838 39.3015 9.50838 40.4952C9.50838 41.6888 10.3728 42.5532 11.4841 42.5532C12.0604 42.5532 12.472 42.3474 12.7189 41.9769V42.4709H13.5833V40.4952ZM10.3728 40.4952C10.3728 39.7954 10.8255 39.2192 11.5664 39.2192C12.2662 39.2192 12.7601 39.7543 12.7601 40.4952C12.7601 41.1949 12.2662 41.7711 11.5664 41.7711C10.8255 41.73 10.3728 41.1949 10.3728 40.4952Z" fill="black"/>
<path d="M30.4588 8.51318H17.4932V31.8102H30.4588V8.51318Z" fill="#FF5F00"/>
<path d="M18.3166 20.1617C18.3166 15.4282 20.5393 11.2298 23.9556 8.51314C21.4448 6.53742 18.2754 5.34375 14.8179 5.34375C6.6269 5.34375 0 11.9707 0 20.1617C0 28.3527 6.6269 34.9796 14.8179 34.9796C18.2754 34.9796 21.4448 33.7859 23.9556 31.8102C20.5393 29.1347 18.3166 24.8952 18.3166 20.1617Z" fill="#EB001B"/>
<path d="M47.9527 20.1617C47.9527 28.3527 41.3258 34.9796 33.1348 34.9796C29.6773 34.9796 26.5079 33.7859 23.9971 31.8102C27.4546 29.0936 29.6361 24.8952 29.6361 20.1617C29.6361 15.4282 27.4134 11.2298 23.9971 8.51314C26.5079 6.53742 29.6773 5.34375 33.1348 5.34375C41.3258 5.34375 47.9527 12.0118 47.9527 20.1617Z" fill="#F79E1B"/>
</svg>
