<svg width="140" height="120" viewBox="0 0 140 120" fill="none" xmlns="http://www.w3.org/2000/svg">
<g clip-path="url(#clip0_1265_3209)">
<path d="M80.2133 12.61C93.72 12.8667 108.247 3.24665 121.063 11.7333C133.567 20 133.017 34.9433 126.333 46.6967C116.603 63.79 101.217 59.5533 86.0567 66.9233C71.7233 73.9 65.32 89.23 46.9633 89.0233C34.9633 88.89 13.3933 76.5733 15.4667 62.2033C16.93 52.0767 30.5 49.31 34.44 39.8033C40.2 25.8933 28.03 8.87998 45.3667 1.51998C61.5833 -5.37002 64.1633 12.3067 80.2133 12.61Z" fill="#007B5C"/>
<path opacity="0.9" d="M80.2133 12.61C93.72 12.8667 108.247 3.24665 121.063 11.7333C133.567 20 133.017 34.9433 126.333 46.6967C116.603 63.79 101.217 59.5533 86.0567 66.9233C71.7233 73.9 65.32 89.23 46.9633 89.0233C34.9633 88.89 13.3933 76.5733 15.4667 62.2033C16.93 52.0767 30.5 49.31 34.44 39.8033C40.2 25.8933 28.03 8.87998 45.3667 1.51998C61.5833 -5.37002 64.1633 12.3067 80.2133 12.61Z" fill="white"/>
<path d="M109.807 50.51L111.223 52.6767L113.33 52.24L111.74 49.5467L109.807 50.51Z" fill="#9F5B53"/>
<path d="M113.823 31.94C114.123 32.3033 114.373 32.6267 114.63 32.98C114.887 33.3333 115.133 33.6733 115.377 34.0267C115.863 34.73 116.327 35.4533 116.76 36.1967C117.193 36.94 117.613 37.7 117.98 38.4967C118.177 38.8867 118.343 39.3 118.523 39.7033C118.703 40.1067 118.857 40.53 118.987 40.9667L119.093 41.3L119.147 41.4633C119.177 41.56 119.207 41.6633 119.227 41.76C119.3 42.106 119.325 42.4605 119.3 42.8133C119.256 43.3661 119.136 43.9101 118.943 44.43C118.617 45.2965 118.199 46.1256 117.697 46.9033C116.76 48.347 115.674 49.6878 114.457 50.9033L113 49.7633C113.801 48.3964 114.533 46.9902 115.193 45.55C115.497 44.8925 115.739 44.2085 115.917 43.5067C115.983 43.2431 116.013 42.9717 116.007 42.7C116.006 42.6425 115.994 42.5857 115.97 42.5333L115.917 42.4067L115.807 42.1533C115.183 40.7511 114.447 39.4012 113.607 38.1167C113.187 37.45 112.743 36.8067 112.297 36.1567C111.85 35.5067 111.363 34.8567 110.923 34.2667L113.823 31.94Z" fill="#9F5B53"/>
<path d="M113 30.3C115.297 30.8267 117.93 37.0834 117.93 37.0834L113.333 40.2434C112.186 38.599 111.167 36.8682 110.287 35.0667C108.923 32.2034 110.667 29.7634 113 30.3Z" fill="#007B5C"/>
<path opacity="0.8" d="M113 30.3C115.297 30.8267 117.93 37.0834 117.93 37.0834L113.333 40.2434C112.186 38.599 111.167 36.8682 110.287 35.0667C108.923 32.2034 110.667 29.7634 113 30.3Z" fill="white"/>
<path d="M111.367 34.29L113.547 40.0933L113.33 40.2433C113.33 40.2433 112.387 38.91 111.367 37.1333V34.29Z" fill="#007B5C"/>
<path opacity="0.6" d="M111.367 34.29L113.547 40.0933L113.33 40.2433C113.33 40.2433 112.387 38.91 111.367 37.1333V34.29Z" fill="white"/>
<path d="M105.547 113.88H103.097L102.853 108.21H105.303L105.547 113.88Z" fill="#9F5B53"/>
<path d="M120.25 113.88H117.8L116.57 108.21H119.017L120.25 113.88Z" fill="#9F5B53"/>
<path d="M102.853 108.213L102.98 111.133H105.43L105.303 108.213H102.853Z" fill="#8A4743"/>
<path d="M119.02 108.213H116.57L117.203 111.133H119.653L119.02 108.213Z" fill="#8A4743"/>
<path d="M103.793 51.5933C103.793 51.5933 106.573 70.3067 108.097 77.3167C109.763 84.9833 116.063 110.57 116.063 110.57H120.55C120.55 110.57 116.397 85.6133 115.443 78C114.41 69.75 112.247 51.58 112.247 51.58L103.793 51.5933Z" fill="#007B5C"/>
<path opacity="0.5" d="M103.793 51.5933C103.793 51.5933 106.573 70.3067 108.097 77.3167C109.763 84.9833 116.063 110.57 116.063 110.57H120.55C120.55 110.57 116.397 85.6133 115.443 78C114.41 69.75 112.247 51.58 112.247 51.58L103.793 51.5933Z" fill="black"/>
<path opacity="0.4" d="M105.55 58.26C108.763 58.89 108.423 70.8733 108.037 77.0367C107.11 72.68 105.753 64.2967 104.827 58.3467C105.051 58.2362 105.306 58.2056 105.55 58.26Z" fill="black"/>
<path d="M99.1467 51.5934C99.1467 51.5934 98.8133 69.9 99.0767 77.37C99.3533 85.1367 102.077 110.57 102.077 110.57H106.223C106.223 110.57 106.377 85.59 106.557 77.9634C106.757 69.6467 107.76 51.5934 107.76 51.5934H99.1467Z" fill="#007B5C"/>
<path opacity="0.5" d="M99.1467 51.5934C99.1467 51.5934 98.8133 69.9 99.0767 77.37C99.3533 85.1367 102.077 110.57 102.077 110.57H106.223C106.223 110.57 106.377 85.59 106.557 77.9634C106.757 69.6467 107.76 51.5934 107.76 51.5934H99.1467Z" fill="black"/>
<path d="M113.53 49.24L111.74 49.5467L113.33 52.24C113.33 52.24 114.577 51.64 114.803 50.4767L113.53 49.24Z" fill="#9F5B53"/>
<path d="M101.7 21.2C101.7 21.3967 101.597 21.5567 101.467 21.5567C101.337 21.5567 101.233 21.3967 101.233 21.2C101.233 21.0034 101.337 20.8434 101.467 20.8434C101.597 20.8434 101.7 21 101.7 21.2Z" fill="#263238"/>
<path d="M101.613 21.5567C101.377 22.1604 101.06 22.729 100.67 23.2467C100.805 23.3431 100.959 23.4089 101.122 23.4394C101.285 23.47 101.453 23.4645 101.613 23.4233V21.5567Z" fill="#892B29"/>
<path d="M102.4 20.1067C102.376 20.107 102.352 20.0987 102.333 20.0834C102.217 19.9943 102.082 19.9342 101.938 19.9081C101.794 19.882 101.646 19.8906 101.507 19.9334C101.493 19.9387 101.478 19.9412 101.463 19.9407C101.448 19.9402 101.433 19.9368 101.419 19.9306C101.406 19.9244 101.393 19.9156 101.383 19.9046C101.373 19.8936 101.365 19.8807 101.36 19.8667C101.354 19.8527 101.351 19.8377 101.351 19.8225C101.351 19.8073 101.354 19.7923 101.36 19.7783C101.366 19.7643 101.374 19.7516 101.385 19.741C101.396 19.7305 101.409 19.7222 101.423 19.7167C101.599 19.6601 101.785 19.6469 101.967 19.6782C102.149 19.7096 102.32 19.7845 102.467 19.8967C102.479 19.905 102.49 19.9159 102.499 19.9286C102.507 19.9414 102.513 19.9558 102.515 19.9708C102.518 19.9859 102.517 20.0013 102.513 20.016C102.51 20.0308 102.503 20.0447 102.493 20.0567C102.483 20.0724 102.47 20.0853 102.453 20.0941C102.437 20.1029 102.419 20.1072 102.4 20.1067Z" fill="#263238"/>
<path d="M108.077 23.4767C107.723 25.27 107.373 28.55 108.627 29.7467C108.627 29.7467 108.137 31.5634 104.807 31.5634C101.14 31.5634 103.06 29.7467 103.06 29.7467C105.06 29.27 105.007 27.7867 104.657 26.3967L108.077 23.4767Z" fill="#9F5B53"/>
<path d="M109.107 30.37C109.37 29.7967 109.657 29.1367 109.06 28.93C108.393 28.7033 104.803 28.4733 103.563 28.8967C103.4 28.942 103.247 29.0194 103.113 29.1242C102.98 29.2291 102.868 29.3594 102.786 29.5076C102.703 29.6557 102.65 29.8189 102.631 29.9875C102.612 30.1562 102.626 30.327 102.673 30.49L109.107 30.37Z" fill="#007B5C"/>
<path d="M116.817 114C116.713 114.014 116.608 114.007 116.507 113.979C116.406 113.952 116.312 113.904 116.23 113.84C116.2 113.8 116.185 113.751 116.185 113.702C116.185 113.652 116.2 113.603 116.23 113.563C116.248 113.529 116.274 113.499 116.305 113.475C116.336 113.452 116.372 113.435 116.41 113.427C116.77 113.347 117.443 113.807 117.473 113.827C117.482 113.833 117.49 113.843 117.494 113.853C117.498 113.864 117.499 113.876 117.497 113.887C117.495 113.897 117.49 113.907 117.482 113.915C117.474 113.923 117.464 113.928 117.453 113.93C117.244 113.975 117.031 113.999 116.817 114ZM116.513 113.533H116.44C116.417 113.538 116.396 113.548 116.378 113.561C116.359 113.575 116.344 113.593 116.333 113.613C116.28 113.707 116.313 113.747 116.333 113.76C116.437 113.9 116.937 113.9 117.303 113.84C117.066 113.682 116.796 113.58 116.513 113.54V113.533Z" fill="#007B5C"/>
<path d="M117.443 113.94H117.417C117.163 113.8 116.673 113.273 116.723 112.993C116.732 112.95 116.755 112.911 116.789 112.883C116.823 112.855 116.866 112.84 116.91 112.84C116.954 112.835 116.998 112.839 117.041 112.852C117.083 112.865 117.122 112.885 117.157 112.913C117.44 113.147 117.49 113.853 117.49 113.883C117.491 113.894 117.49 113.905 117.485 113.914C117.48 113.924 117.473 113.931 117.463 113.937C117.457 113.939 117.45 113.94 117.443 113.94ZM116.95 112.94H116.923C116.847 112.94 116.84 112.987 116.837 113C116.807 113.163 117.12 113.567 117.37 113.757C117.353 113.478 117.253 113.212 117.083 112.99C117.045 112.961 116.998 112.946 116.95 112.947V112.94Z" fill="#007B5C"/>
<path d="M102.113 114C101.8 114 101.497 113.957 101.393 113.817C101.368 113.779 101.354 113.735 101.354 113.69C101.354 113.645 101.368 113.601 101.393 113.563C101.413 113.529 101.439 113.499 101.47 113.475C101.502 113.452 101.538 113.435 101.577 113.427C101.98 113.317 102.84 113.803 102.877 113.823C102.886 113.83 102.894 113.839 102.899 113.849C102.904 113.86 102.905 113.872 102.903 113.883C102.902 113.895 102.897 113.906 102.888 113.915C102.88 113.923 102.869 113.929 102.857 113.93C102.612 113.976 102.363 114 102.113 114ZM101.723 113.527C101.687 113.521 101.65 113.521 101.613 113.527C101.59 113.531 101.568 113.541 101.548 113.555C101.529 113.568 101.512 113.586 101.5 113.607C101.46 113.68 101.473 113.713 101.5 113.733C101.613 113.887 102.23 113.897 102.69 113.833C102.39 113.672 102.062 113.57 101.723 113.533V113.527Z" fill="#007B5C"/>
<path d="M102.853 113.94H102.83C102.533 113.81 101.95 113.273 101.993 113.003C101.993 112.937 102.05 112.857 102.21 112.84C102.269 112.831 102.33 112.835 102.388 112.853C102.446 112.87 102.499 112.9 102.543 112.94C102.857 113.193 102.92 113.853 102.923 113.883C102.925 113.894 102.923 113.904 102.919 113.913C102.915 113.923 102.908 113.931 102.9 113.937C102.893 113.941 102.885 113.943 102.877 113.943C102.869 113.944 102.861 113.943 102.853 113.94ZM102.257 112.94H102.22C102.117 112.94 102.11 112.993 102.107 113.007C102.08 113.173 102.48 113.59 102.773 113.77C102.745 113.49 102.628 113.226 102.44 113.017C102.389 112.973 102.324 112.948 102.257 112.947V112.94Z" fill="#007B5C"/>
<path d="M117.627 113.597H120.377C120.426 113.597 120.473 113.614 120.511 113.645C120.55 113.676 120.576 113.719 120.587 113.767L121.07 115.943C121.081 115.996 121.08 116.051 121.067 116.104C121.054 116.156 121.029 116.205 120.994 116.247C120.96 116.288 120.916 116.322 120.867 116.344C120.818 116.367 120.764 116.378 120.71 116.377C119.75 116.36 119.283 116.303 118.073 116.303C117.33 116.303 115.797 116.383 114.767 116.383C113.737 116.383 113.607 115.383 114.027 115.273C115.913 114.86 116.623 114.29 117.23 113.75C117.338 113.651 117.48 113.596 117.627 113.597Z" fill="#263238"/>
<path d="M103.113 113.597H105.78C105.829 113.597 105.877 113.614 105.915 113.645C105.953 113.676 105.979 113.719 105.99 113.767L106.473 115.943C106.485 115.996 106.484 116.05 106.472 116.103C106.46 116.155 106.435 116.204 106.401 116.245C106.367 116.287 106.324 116.321 106.276 116.343C106.227 116.366 106.174 116.377 106.12 116.377C105.157 116.36 103.763 116.303 102.55 116.303C101.133 116.303 99.9066 116.383 98.2433 116.383C97.2433 116.383 96.96 115.383 97.38 115.273C99.2966 114.853 100.86 114.81 102.517 113.79C102.693 113.67 102.9 113.603 103.113 113.597Z" fill="#263238"/>
<path d="M99.6166 35.31C98.6466 36.7433 97.6433 38.08 96.56 39.4067C95.4779 40.7469 94.3205 42.0246 93.0933 43.2333L92.6133 43.6867L92.49 43.8L92.4066 43.8767L92.2833 43.9833C92.125 44.1081 91.9566 44.2196 91.78 44.3167C91.2173 44.6127 90.598 44.7854 89.9633 44.8233C88.9947 44.8836 88.0225 44.8039 87.0766 44.5867C85.3629 44.2071 83.701 43.6229 82.1266 42.8467L82.7366 41.1133C84.2987 41.4241 85.8783 41.6389 87.4666 41.7567C88.1642 41.8135 88.8662 41.7844 89.5567 41.67C89.7548 41.6413 89.9439 41.5684 90.11 41.4567V41.4333L90.1333 41.4067L90.2333 41.2967L90.6266 40.8633C91.67 39.6733 92.68 38.41 93.66 37.1133C94.64 35.8167 95.62 34.4967 96.5567 33.2L99.6166 35.31Z" fill="#9F5B53"/>
<path d="M100.747 35.6934C100.406 37.7613 99.5121 39.6986 98.16 41.3C98.1067 40.1267 98.0867 39.0734 98.09 38.13L100.747 35.6934Z" fill="#BED3FC"/>
<path d="M108.287 20.78C108.14 23.2067 108.177 24.6333 106.953 25.88C105.11 27.7533 102.117 26.64 101.537 24.2133C101.017 22.0333 101.347 18.4333 103.723 17.4667C104.246 17.2519 104.815 17.1743 105.376 17.2415C105.937 17.3086 106.472 17.5182 106.929 17.8502C107.387 18.1823 107.751 18.6258 107.989 19.1386C108.227 19.6514 108.329 20.2164 108.287 20.78Z" fill="#9F5B53"/>
<path d="M103.573 19.1667C103.593 22.02 104.52 25.52 107.28 25.2767C109.113 25.1167 110.507 21.7734 110.697 20.3567C110.987 18.19 111.03 17.7767 109.81 17.5267C110.343 17.2367 110.537 15.86 109.29 15.5267C107.557 15.07 104.29 14.6233 105.317 13.5667C103.27 13.9367 102.757 14.7567 103.13 15.7533C101.933 15.66 101.197 15.0333 101.233 14.0867C99.25 14.89 97.9633 19.4333 103.573 19.1667Z" fill="#263238"/>
<path d="M105 21.4867C104.865 22.0751 104.539 22.6024 104.073 22.9867C103.457 23.4867 102.963 23.04 102.977 22.32C102.977 21.67 103.33 20.6267 104.023 20.4067C104.717 20.1867 105.17 20.7767 105 21.4867Z" fill="#9F5B53"/>
<path d="M111.667 18.0234C111.34 17.8156 110.968 17.6922 110.582 17.6643C110.196 17.6364 109.809 17.7048 109.457 17.8634C109.457 17.8634 110.843 16 111.667 18.0234Z" fill="#263238"/>
<path d="M115.333 108.917C115.313 108.917 115.797 110.64 115.797 110.64H120.843L120.75 109.103L115.333 108.917Z" fill="#007B5C"/>
<path d="M101.27 108.917C101.25 108.917 101.503 110.64 101.503 110.64H106.55L106.687 109.103L101.27 108.917Z" fill="#007B5C"/>
<path d="M102.93 107.59C102.92 107.59 102.91 107.586 102.903 107.58C102.895 107.573 102.891 107.563 102.89 107.553C102.157 100.513 100.433 83.48 100.223 77.37C100 71.1333 100.203 57.14 100.27 53C100.27 52.9767 100.29 52.9634 100.313 52.96C100.324 52.9608 100.333 52.9653 100.341 52.9726C100.348 52.9799 100.353 52.9897 100.353 53C100.287 57.14 100.083 71.1334 100.307 77.3667C100.523 83.4767 102.247 100.503 102.973 107.543C102.973 107.555 102.969 107.566 102.962 107.574C102.955 107.583 102.945 107.588 102.933 107.59H102.93Z" fill="#007B5C"/>
<path opacity="0.3" d="M102.93 107.59C102.92 107.59 102.91 107.586 102.903 107.58C102.895 107.573 102.891 107.563 102.89 107.553C102.157 100.513 100.433 83.48 100.223 77.37C100 71.1333 100.203 57.14 100.27 53C100.27 52.9767 100.29 52.9634 100.313 52.96C100.324 52.9608 100.333 52.9653 100.341 52.9726C100.348 52.9799 100.353 52.9897 100.353 53C100.287 57.14 100.083 71.1334 100.307 77.3667C100.523 83.4767 102.247 100.503 102.973 107.543C102.973 107.555 102.969 107.566 102.962 107.574C102.955 107.583 102.945 107.588 102.933 107.59H102.93Z" fill="black"/>
<path d="M101.877 32.41C102.21 34.7433 97.63 40.6534 97.63 40.6534L93.04 37.4933C93.04 37.4933 94.3133 34.23 96.4566 32.09C98.9033 29.6667 101.523 29.8867 101.877 32.41Z" fill="#007B5C"/>
<path opacity="0.8" d="M101.877 32.41C102.21 34.7433 97.63 40.6534 97.63 40.6534L93.04 37.4933C93.04 37.4933 94.3133 34.23 96.4566 32.09C98.9033 29.6667 101.523 29.8867 101.877 32.41Z" fill="white"/>
<path d="M99.2933 30.4267C99.2933 30.4267 96.6867 33.37 99.1467 51.5933H112.247C112.337 49.5933 111.073 39.7733 113.01 30.3C111.562 30.0212 110.098 29.8364 108.627 29.7467C106.773 29.6399 104.914 29.6399 103.06 29.7467C101.789 29.8748 100.529 30.1021 99.2933 30.4267Z" fill="#007B5C"/>
<path opacity="0.8" d="M99.2933 30.4267C99.2933 30.4267 96.6867 33.37 99.1467 51.5933H112.247C112.337 49.5933 111.073 39.7733 113.01 30.3C111.562 30.0212 110.098 29.8364 108.627 29.7467C106.773 29.6399 104.914 29.6399 103.06 29.7467C101.789 29.8748 100.529 30.1021 99.2933 30.4267Z" fill="white"/>
<path d="M60.753 17.0482C61.7991 12.4398 58.9113 7.85578 54.3029 6.80961C49.6944 5.76344 45.1104 8.65124 44.0642 13.2597C43.0181 17.8682 45.9059 22.4522 50.5143 23.4983C55.1228 24.5445 59.7068 21.6567 60.753 17.0482Z" fill="#007B5C"/>
<path opacity="0.2" d="M60.753 17.0482C61.7991 12.4398 58.9113 7.85578 54.3029 6.80961C49.6944 5.76344 45.1104 8.65124 44.0642 13.2597C43.0181 17.8682 45.9059 22.4522 50.5143 23.4983C55.1228 24.5445 59.7068 21.6567 60.753 17.0482Z" fill="white"/>
<path d="M51.53 26.25C49.3168 26.0791 47.2059 25.2473 45.471 23.8624C43.7361 22.4776 42.4572 20.6036 41.8 18.4833L42.1167 18.3833C42.7546 20.4401 43.9956 22.2578 45.6787 23.601C47.3619 24.9442 49.4096 25.7509 51.5567 25.9167L51.53 26.25Z" fill="#007B5C"/>
<path opacity="0.2" d="M51.53 26.25C49.3168 26.0791 47.2059 25.2473 45.471 23.8624C43.7361 22.4776 42.4572 20.6036 41.8 18.4833L42.1167 18.3833C42.7546 20.4401 43.9956 22.2578 45.6787 23.601C47.3619 24.9442 49.4096 25.7509 51.5567 25.9167L51.53 26.25Z" fill="white"/>
<path d="M42.07 12.0733L41.7367 11.98C42.1663 10.5443 42.8816 9.21017 43.8396 8.05769C44.7975 6.90522 45.9784 5.95813 47.3114 5.27328C48.6444 4.58842 50.102 4.17989 51.5968 4.07222C53.0915 3.96454 54.5926 4.15993 56.01 4.64667L55.9033 4.96333C54.5275 4.49166 53.0705 4.30275 51.6199 4.40794C50.1692 4.51313 48.7548 4.91026 47.4613 5.57549C46.1679 6.24072 45.0222 7.16035 44.0929 8.27921C43.1636 9.39808 42.4699 10.6931 42.0533 12.0867L42.07 12.0733Z" fill="#007B5C"/>
<path opacity="0.2" d="M42.07 12.0733L41.7367 11.98C42.1663 10.5443 42.8816 9.21017 43.8396 8.05769C44.7975 6.90522 45.9784 5.95813 47.3114 5.27328C48.6444 4.58842 50.102 4.17989 51.5968 4.07222C53.0915 3.96454 54.5926 4.15993 56.01 4.64667L55.9033 4.96333C54.5275 4.49166 53.0705 4.30275 51.6199 4.40794C50.1692 4.51313 48.7548 4.91026 47.4613 5.57549C46.1679 6.24072 45.0222 7.16035 44.0929 8.27921C43.1636 9.39808 42.4699 10.6931 42.0533 12.0867L42.07 12.0733Z" fill="white"/>
<path d="M62.7133 11.93C61.934 9.43778 60.2755 7.31373 58.0467 5.95332L58.22 5.66666C60.5154 7.07155 62.2233 9.26145 63.0267 11.83L62.7133 11.93Z" fill="#007B5C"/>
<path opacity="0.2" d="M62.7133 11.93C61.934 9.43778 60.2755 7.31373 58.0467 5.95332L58.22 5.66666C60.5154 7.07155 62.2233 9.26145 63.0267 11.83L62.7133 11.93Z" fill="white"/>
<path d="M60.7568 40.6679C61.803 36.0595 58.9152 31.4755 54.3067 30.4293C49.6982 29.3831 45.1143 32.2709 44.0681 36.8794C43.0219 41.4879 45.9097 46.0718 50.5182 47.118C55.1266 48.1642 59.7106 45.2764 60.7568 40.6679Z" fill="#007B5C"/>
<path opacity="0.6" d="M60.7568 40.6679C61.803 36.0595 58.9152 31.4755 54.3067 30.4293C49.6982 29.3831 45.1143 32.2709 44.0681 36.8794C43.0219 41.4879 45.9097 46.0718 50.5182 47.118C55.1266 48.1642 59.7106 45.2764 60.7568 40.6679Z" fill="white"/>
<path d="M60.7541 64.2869C61.8003 59.6784 58.9125 55.0944 54.304 54.0483C49.6955 53.0021 45.1115 55.8899 44.0654 60.4984C43.0192 65.1068 45.907 69.6908 50.5155 70.737C55.1239 71.7831 59.7079 68.8953 60.7541 64.2869Z" fill="#007B5C"/>
<path opacity="0.6" d="M60.7541 64.2869C61.8003 59.6784 58.9125 55.0944 54.304 54.0483C49.6955 53.0021 45.1115 55.8899 44.0654 60.4984C43.0192 65.1068 45.907 69.6908 50.5155 70.737C55.1239 71.7831 59.7079 68.8953 60.7541 64.2869Z" fill="white"/>
<path d="M60.7546 87.9099C61.8008 83.3014 58.913 78.7174 54.3045 77.6713C49.6961 76.6251 45.1121 79.5129 44.0659 84.1214C43.0197 88.7298 45.9075 93.3138 50.516 94.36C55.1245 95.4062 59.7084 92.5184 60.7546 87.9099Z" fill="#007B5C"/>
<path opacity="0.6" d="M60.7546 87.9099C61.8008 83.3014 58.913 78.7174 54.3045 77.6713C49.6961 76.6251 45.1121 79.5129 44.0659 84.1214C43.0197 88.7298 45.9075 93.3138 50.516 94.36C55.1245 95.4062 59.7084 92.5184 60.7546 87.9099Z" fill="white"/>
<path d="M37.134 17.0455C38.1802 12.437 35.2924 7.85306 30.6839 6.80689C26.0754 5.76072 21.4915 8.64853 20.4453 13.257C19.3991 17.8655 22.2869 22.4494 26.8954 23.4956C31.5038 24.5418 36.0878 21.654 37.134 17.0455Z" fill="#007B5C"/>
<path opacity="0.6" d="M37.134 17.0455C38.1802 12.437 35.2924 7.85306 30.6839 6.80689C26.0754 5.76072 21.4915 8.64853 20.4453 13.257C19.3991 17.8655 22.2869 22.4494 26.8954 23.4956C31.5038 24.5418 36.0878 21.654 37.134 17.0455Z" fill="white"/>
<path d="M37.1378 40.6685C38.184 36.0601 35.2962 31.4761 30.6877 30.4299C26.0793 29.3837 21.4953 32.2715 20.4491 36.88C19.403 41.4885 22.2908 46.0725 26.8992 47.1186C31.5077 48.1648 36.0917 45.277 37.1378 40.6685Z" fill="#007B5C"/>
<path opacity="0.6" d="M37.1378 40.6685C38.184 36.0601 35.2962 31.4761 30.6877 30.4299C26.0793 29.3837 21.4953 32.2715 20.4491 36.88C19.403 41.4885 22.2908 46.0725 26.8992 47.1186C31.5077 48.1648 36.0917 45.277 37.1378 40.6685Z" fill="white"/>
<path d="M37.1351 64.2875C38.1813 59.679 35.2935 55.095 30.685 54.0489C26.0766 53.0027 21.4926 55.8905 20.4464 60.499C19.4002 65.1074 22.2881 69.6914 26.8965 70.7376C31.505 71.7838 36.089 68.8959 37.1351 64.2875Z" fill="#007B5C"/>
<path opacity="0.6" d="M37.1351 64.2875C38.1813 59.679 35.2935 55.095 30.685 54.0489C26.0766 53.0027 21.4926 55.8905 20.4464 60.499C19.4002 65.1074 22.2881 69.6914 26.8965 70.7376C31.505 71.7838 36.089 68.8959 37.1351 64.2875Z" fill="white"/>
<path d="M37.1356 87.9072C38.1818 83.2987 35.294 78.7147 30.6856 77.6686C26.0771 76.6224 21.4931 79.5102 20.4469 84.1187C19.4008 88.7271 22.2886 93.3111 26.897 94.3573C31.5055 95.4034 36.0895 92.5156 37.1356 87.9072Z" fill="#007B5C"/>
<path opacity="0.6" d="M37.1356 87.9072C38.1818 83.2987 35.294 78.7147 30.6856 77.6686C26.0771 76.6224 21.4931 79.5102 20.4469 84.1187C19.4008 88.7271 22.2886 93.3111 26.897 94.3573C31.5055 95.4034 36.0895 92.5156 37.1356 87.9072Z" fill="white"/>
<path d="M83.0667 41.2934L81.27 39.4333L79.3533 41.9067C79.3533 41.9067 80.8133 43.3133 82.55 42.9067L83.0667 41.2934Z" fill="#9F5B53"/>
<path d="M78.8 38.4133L77.98 41.0067L79.3533 41.9067L81.27 39.4333L78.8 38.4133Z" fill="#9F5B53"/>
<path d="M54.3333 38.5533C54.4819 38.1119 54.7244 37.7078 55.044 37.369C55.3635 37.0301 55.7527 36.7644 56.1847 36.5902C56.6167 36.416 57.0813 36.3374 57.5466 36.3598C58.0118 36.3822 58.4667 36.5051 58.88 36.72L56.88 35.68C56.1396 35.3059 55.5673 34.6667 55.277 33.8896C54.9866 33.1125 54.9996 32.2546 55.3133 31.4867C55.4909 31.0818 55.7495 30.7177 56.0733 30.4168C56.3971 30.1158 56.7792 29.8845 57.196 29.7371C57.6127 29.5896 58.0552 29.5292 58.4962 29.5595C58.9373 29.5898 59.3674 29.7102 59.76 29.9133L57.76 28.8767C57.0188 28.5025 56.4459 27.8627 56.1555 27.0849C55.8652 26.3071 55.8787 25.4483 56.1933 24.68C56.3705 24.2716 56.6301 23.9042 56.956 23.6009C57.2819 23.2976 57.6669 23.065 58.0869 22.9176C58.507 22.7701 58.953 22.7111 59.3969 22.7442C59.8408 22.7774 60.2731 22.9019 60.6667 23.11L51.17 18.1433C50.4713 17.7941 49.9198 17.2075 49.6144 16.4885C49.309 15.7696 49.2696 14.9654 49.5033 14.22C49.6528 13.7788 49.8959 13.3751 50.2159 13.0365C50.5358 12.698 50.9252 12.4325 51.3573 12.2584C51.7894 12.0843 52.254 12.0057 52.7193 12.0278C53.1847 12.0499 53.6397 12.1723 54.0533 12.3867L74.0533 22.8433L72 14.4167C71.7977 13.5701 71.9242 12.6783 72.3539 11.9214C72.7836 11.1644 73.4845 10.5987 74.3151 10.3385C75.1457 10.0783 76.0441 10.1429 76.8289 10.5194C77.6137 10.8958 78.2264 11.556 78.5433 12.3667L85.1033 29.4067C85.6651 30.8631 86.7373 32.0656 88.12 32.79L89.2633 33.3867C89.4386 33.478 89.594 33.6031 89.7207 33.7547C89.8475 33.9063 89.943 34.0814 90.0019 34.2701C90.0607 34.4587 90.0817 34.6571 90.0637 34.8539C90.0456 35.0506 89.9889 35.2419 89.8967 35.4167L81.8967 50.7C81.7114 51.0532 81.3938 51.3185 81.0132 51.4379C80.6327 51.5572 80.2204 51.5208 79.8667 51.3367L77.06 49.87C75.9969 49.3245 74.8056 49.0779 73.6133 49.1567C70.7306 49.3178 67.8579 48.6958 65.3 47.3567L55.9667 42.4767C55.274 42.1219 54.7297 41.5329 54.4306 40.8145C54.1315 40.0961 54.097 39.2948 54.3333 38.5533Z" fill="#007B5C"/>
<path d="M80.58 52C80.2573 52.0003 79.9394 51.9225 79.6533 51.7733L76.8467 50.3067C75.8633 49.8032 74.7627 49.5729 73.66 49.64C70.6874 49.8067 67.725 49.1663 65.0867 47.7867L55.7533 42.9067C54.9538 42.4976 54.3252 41.8183 53.9791 40.9895C53.6331 40.1608 53.5921 39.2362 53.8633 38.38C54.0346 37.8692 54.315 37.4019 54.6852 37.0104C55.0553 36.619 55.5063 36.3129 56.0067 36.1133C56.1422 36.0572 56.2814 36.0105 56.4233 35.9733C55.644 35.5062 55.0585 34.7746 54.7734 33.912C54.4883 33.0493 54.5226 32.1129 54.87 31.2733C55.0715 30.8028 55.3693 30.3797 55.7442 30.0313C56.119 29.6828 56.5627 29.4167 57.0467 29.25C57.1367 29.22 57.2267 29.19 57.3167 29.1667C56.5369 28.7 55.9509 27.9685 55.6657 27.1056C55.3805 26.2428 55.4152 25.3061 55.7633 24.4667C55.9652 23.9968 56.2632 23.5743 56.638 23.2265C57.0129 22.8786 57.4564 22.613 57.94 22.4467C58.0233 22.4167 58.11 22.39 58.1933 22.3667L50.94 18.5733C50.1405 18.1643 49.5118 17.485 49.1658 16.6562C48.8198 15.8274 48.7787 14.9028 49.05 14.0467C49.2226 13.5373 49.5033 13.0712 49.8727 12.6803C50.2422 12.2894 50.6917 11.983 51.1906 11.782C51.6895 11.581 52.2259 11.4902 52.7632 11.5157C53.3004 11.5412 53.8258 11.6826 54.3033 11.93L73.3333 21.89L71.5367 14.5333C71.3062 13.5638 71.4524 12.5429 71.9456 11.6769C72.4389 10.811 73.2425 10.1646 74.194 9.86826C75.1455 9.57197 76.174 9.64791 77.0717 10.0807C77.9694 10.5136 78.6693 11.271 79.03 12.2L85.59 29.24C86.1082 30.5834 87.0975 31.6924 88.3733 32.36L89.5133 32.9567C89.7467 33.0783 89.9538 33.2447 90.1227 33.4465C90.2917 33.6483 90.4191 33.8815 90.4978 34.1326C90.5764 34.3837 90.6047 34.6479 90.5811 34.91C90.5575 35.1721 90.4823 35.427 90.36 35.66L82.36 50.9467C82.1875 51.2678 81.9305 51.5357 81.6167 51.7213C81.303 51.9069 80.9445 52.0033 80.58 52ZM74.0367 48.6367C75.1749 48.6305 76.2979 48.8992 77.31 49.42L80.1167 50.8867C80.2334 50.9486 80.3613 50.9868 80.4928 50.999C80.6244 51.0113 80.7571 50.9973 80.8833 50.9579C81.0094 50.9186 81.1265 50.8546 81.2278 50.7697C81.3291 50.6848 81.4125 50.5807 81.4733 50.4633L89.4733 35.1767C89.5346 35.0599 89.5722 34.9321 89.5839 34.8008C89.5957 34.6694 89.5813 34.537 89.5416 34.4112C89.502 34.2854 89.4378 34.1687 89.3529 34.0678C89.2679 33.9669 89.1639 33.8838 89.0467 33.8233L87.9067 33.2267C86.4203 32.4473 85.2685 31.1534 84.6667 29.5867L78.1033 12.5467C77.8398 11.8449 77.3176 11.2706 76.6439 10.9418C75.9703 10.613 75.1963 10.5546 74.4809 10.7785C73.7655 11.0025 73.163 11.4918 72.7971 12.1461C72.4312 12.8004 72.3296 13.5699 72.5133 14.2967L74.5733 22.7267C74.5962 22.8197 74.5917 22.9173 74.5603 23.0078C74.529 23.0982 74.4721 23.1777 74.3967 23.2367C74.3214 23.2968 74.2301 23.3336 74.1342 23.3425C74.0382 23.3514 73.9417 23.332 73.8567 23.2867L53.8567 12.83C53.5081 12.6488 53.1244 12.5451 52.732 12.5261C52.3396 12.5071 51.9478 12.5733 51.5833 12.72C51.2143 12.8638 50.8819 13.088 50.6103 13.3763C50.3388 13.6645 50.1348 14.0097 50.0133 14.3867C49.8142 15.0188 49.8464 15.7012 50.1041 16.3118C50.3618 16.9225 50.8282 17.4216 51.42 17.72L60.92 22.6867C61.0376 22.7481 61.1259 22.8538 61.1656 22.9803C61.2053 23.1069 61.1931 23.2441 61.1317 23.3617C61.1012 23.4199 61.0597 23.4715 61.0093 23.5137C60.9589 23.5558 60.9007 23.5876 60.838 23.6073C60.7114 23.647 60.5742 23.6348 60.4567 23.5733C60.1251 23.4012 59.7616 23.2991 59.3889 23.2733C59.0162 23.2475 58.6422 23.2986 58.29 23.4233C57.9363 23.5452 57.612 23.7394 57.3376 23.9937C57.0633 24.2479 56.845 24.5566 56.6967 24.9C56.4313 25.5514 56.4212 26.2789 56.6683 26.9375C56.9154 27.596 57.4016 28.1373 58.03 28.4533L60.03 29.4933C60.1375 29.5599 60.2159 29.6647 60.2492 29.7867C60.2825 29.9087 60.2684 30.0388 60.2097 30.1508C60.1509 30.2628 60.0519 30.3483 59.9326 30.3902C59.8133 30.4322 59.6825 30.4273 59.5667 30.3767C59.2354 30.2052 58.8726 30.1035 58.5005 30.0777C58.1285 30.0519 57.755 30.1026 57.4033 30.2267C57.0496 30.3492 56.7252 30.5441 56.4509 30.7989C56.1765 31.0537 55.9583 31.3629 55.81 31.7067C55.5456 32.3577 55.536 33.0844 55.7831 33.7422C56.0301 34.4 56.5158 34.9406 57.1433 35.2567L59.1433 36.2967C59.2609 36.3581 59.3493 36.4637 59.389 36.5903C59.4287 36.7169 59.4164 36.8541 59.355 36.9717C59.2936 37.0893 59.1879 37.1776 59.0613 37.2173C58.9347 37.257 58.7976 37.2448 58.68 37.1833C58.3309 37.0035 57.9472 36.9009 57.5549 36.8825C57.1627 36.8641 56.7711 36.9303 56.4067 37.0767C56.039 37.2221 55.7079 37.4469 55.4371 37.735C55.1663 38.023 54.9624 38.3674 54.84 38.7433C54.6402 39.3755 54.672 40.0581 54.9298 40.6689C55.1875 41.2797 55.6544 41.7788 56.2467 42.0767L65.58 46.9567C68.053 48.235 70.824 48.8256 73.6033 48.6667C73.75 48.6667 73.8933 48.6433 74.0367 48.6433V48.6367Z" fill="#007B5C"/>
<path d="M61.3767 38.5233C61.2954 38.524 61.2152 38.5045 61.1433 38.4667L58.6667 37.1633C58.6084 37.1329 58.5568 37.0913 58.5146 37.0409C58.4725 36.9905 58.4407 36.9324 58.421 36.8697C58.4014 36.807 58.3942 36.7411 58.4001 36.6756C58.4059 36.6102 58.4246 36.5466 58.455 36.4883C58.4854 36.4301 58.527 36.3785 58.5774 36.3363C58.6278 36.2942 58.686 36.2624 58.7486 36.2427C58.8113 36.223 58.8773 36.2159 58.9427 36.2218C59.0081 36.2276 59.0718 36.2462 59.13 36.2767L61.62 37.58C61.7191 37.6317 61.7981 37.7151 61.8442 37.817C61.8903 37.9188 61.901 38.0332 61.8746 38.1418C61.8481 38.2504 61.7859 38.347 61.6981 38.4162C61.6103 38.4853 61.5018 38.5231 61.39 38.5233H61.3767Z" fill="#007B5C"/>
<path d="M62.27 31.7167C62.1887 31.7177 62.1084 31.6982 62.0367 31.66L59.5467 30.3567C59.4838 30.3292 59.4272 30.289 59.3805 30.2387C59.3338 30.1884 59.2979 30.129 59.2752 30.0642C59.2524 29.9995 59.2432 29.9307 59.2482 29.8622C59.2532 29.7938 59.2722 29.727 59.3041 29.6662C59.336 29.6054 59.3801 29.5519 59.4336 29.5088C59.4871 29.4658 59.5488 29.4343 59.6151 29.4162C59.6813 29.3981 59.7505 29.3938 59.8185 29.4037C59.8864 29.4135 59.9516 29.4372 60.01 29.4733L62.5 30.7733C62.5991 30.825 62.6781 30.9085 62.7242 31.0103C62.7704 31.1121 62.7811 31.2265 62.7546 31.3351C62.7281 31.4437 62.666 31.5403 62.5781 31.6095C62.4903 31.6787 62.3818 31.7164 62.27 31.7167Z" fill="#007B5C"/>
<path d="M63.16 24.9133C63.08 24.9124 63.0013 24.893 62.93 24.8567L60.44 23.5533C60.3818 23.5229 60.3301 23.4813 60.288 23.4309C60.2458 23.3806 60.214 23.3224 60.1944 23.2597C60.1747 23.197 60.1676 23.1311 60.1734 23.0656C60.1792 23.0002 60.1979 22.9366 60.2283 22.8783C60.2587 22.8201 60.3003 22.7685 60.3507 22.7263C60.4011 22.6842 60.4593 22.6524 60.522 22.6327C60.5847 22.6131 60.6506 22.6059 60.716 22.6118C60.7815 22.6176 60.8451 22.6363 60.9033 22.6667L63.3933 23.97C63.4927 24.0218 63.5718 24.1056 63.6179 24.2077C63.664 24.3099 63.6744 24.4246 63.6475 24.5334C63.6206 24.6422 63.5579 24.7388 63.4695 24.8077C63.3811 24.8766 63.2721 24.9138 63.16 24.9133Z" fill="#007B5C"/>
<path opacity="0.3" d="M80.58 52C80.2573 52.0003 79.9394 51.9225 79.6533 51.7733L76.8467 50.3067C75.8633 49.8032 74.7627 49.5729 73.66 49.64C70.6874 49.8067 67.725 49.1663 65.0867 47.7867L55.7533 42.9067C54.9538 42.4976 54.3252 41.8183 53.9791 40.9895C53.6331 40.1608 53.5921 39.2362 53.8633 38.38C54.0346 37.8692 54.315 37.4019 54.6852 37.0104C55.0553 36.619 55.5063 36.3129 56.0067 36.1133C56.1422 36.0572 56.2814 36.0105 56.4233 35.9733C55.644 35.5062 55.0585 34.7746 54.7734 33.912C54.4883 33.0493 54.5226 32.1129 54.87 31.2733C55.0715 30.8028 55.3693 30.3797 55.7442 30.0313C56.119 29.6828 56.5627 29.4167 57.0467 29.25C57.1367 29.22 57.2267 29.19 57.3167 29.1667C56.5369 28.7 55.9509 27.9685 55.6657 27.1056C55.3805 26.2428 55.4152 25.3061 55.7633 24.4667C55.9652 23.9968 56.2632 23.5743 56.638 23.2265C57.0129 22.8786 57.4564 22.613 57.94 22.4467C58.0233 22.4167 58.11 22.39 58.1933 22.3667L50.94 18.5733C50.1405 18.1643 49.5118 17.485 49.1658 16.6562C48.8198 15.8274 48.7787 14.9028 49.05 14.0467C49.2226 13.5373 49.5033 13.0712 49.8727 12.6803C50.2422 12.2894 50.6917 11.983 51.1906 11.782C51.6895 11.581 52.2259 11.4902 52.7632 11.5157C53.3004 11.5412 53.8258 11.6826 54.3033 11.93L73.3333 21.89L71.5367 14.5333C71.3062 13.5638 71.4524 12.5429 71.9456 11.6769C72.4389 10.811 73.2425 10.1646 74.194 9.86826C75.1455 9.57197 76.174 9.64791 77.0717 10.0807C77.9694 10.5136 78.6693 11.271 79.03 12.2L85.59 29.24C86.1082 30.5834 87.0975 31.6924 88.3733 32.36L89.5133 32.9567C89.7467 33.0783 89.9538 33.2447 90.1227 33.4465C90.2917 33.6483 90.4191 33.8815 90.4978 34.1326C90.5764 34.3837 90.6047 34.6479 90.5811 34.91C90.5575 35.1721 90.4823 35.427 90.36 35.66L82.36 50.9467C82.1875 51.2678 81.9305 51.5357 81.6167 51.7213C81.303 51.9069 80.9445 52.0033 80.58 52ZM74.0367 48.6367C75.1749 48.6305 76.2979 48.8992 77.31 49.42L80.1167 50.8867C80.2334 50.9486 80.3613 50.9868 80.4928 50.999C80.6244 51.0113 80.7571 50.9973 80.8833 50.9579C81.0094 50.9186 81.1265 50.8546 81.2278 50.7697C81.3291 50.6848 81.4125 50.5807 81.4733 50.4633L89.4733 35.1767C89.5346 35.0599 89.5722 34.9321 89.5839 34.8008C89.5957 34.6694 89.5813 34.537 89.5416 34.4112C89.502 34.2854 89.4378 34.1687 89.3529 34.0678C89.2679 33.9669 89.1639 33.8838 89.0467 33.8233L87.9067 33.2267C86.4203 32.4473 85.2685 31.1534 84.6667 29.5867L78.1033 12.5467C77.8398 11.8449 77.3176 11.2706 76.6439 10.9418C75.9703 10.613 75.1963 10.5546 74.4809 10.7785C73.7655 11.0025 73.163 11.4918 72.7971 12.1461C72.4312 12.8004 72.3296 13.5699 72.5133 14.2967L74.5733 22.7267C74.5962 22.8197 74.5917 22.9173 74.5603 23.0078C74.529 23.0982 74.4721 23.1777 74.3967 23.2367C74.3214 23.2968 74.2301 23.3336 74.1342 23.3425C74.0382 23.3514 73.9417 23.332 73.8567 23.2867L53.8567 12.83C53.5081 12.6488 53.1244 12.5451 52.732 12.5261C52.3396 12.5071 51.9478 12.5733 51.5833 12.72C51.2143 12.8638 50.8819 13.088 50.6103 13.3763C50.3388 13.6645 50.1348 14.0097 50.0133 14.3867C49.8142 15.0188 49.8464 15.7012 50.1041 16.3118C50.3618 16.9225 50.8282 17.4216 51.42 17.72L60.92 22.6867C61.0376 22.7481 61.1259 22.8538 61.1656 22.9803C61.2053 23.1069 61.1931 23.2441 61.1317 23.3617C61.1012 23.4199 61.0597 23.4715 61.0093 23.5137C60.9589 23.5558 60.9007 23.5876 60.838 23.6073C60.7114 23.647 60.5742 23.6348 60.4567 23.5733C60.1251 23.4012 59.7616 23.2991 59.3889 23.2733C59.0162 23.2475 58.6422 23.2986 58.29 23.4233C57.9363 23.5452 57.612 23.7394 57.3376 23.9937C57.0633 24.2479 56.845 24.5566 56.6967 24.9C56.4313 25.5514 56.4212 26.2789 56.6683 26.9375C56.9154 27.596 57.4016 28.1373 58.03 28.4533L60.03 29.4933C60.1375 29.5599 60.2159 29.6647 60.2492 29.7867C60.2825 29.9087 60.2684 30.0388 60.2097 30.1508C60.1509 30.2628 60.0519 30.3483 59.9326 30.3902C59.8133 30.4322 59.6825 30.4273 59.5667 30.3767C59.2354 30.2052 58.8726 30.1035 58.5005 30.0777C58.1285 30.0519 57.755 30.1026 57.4033 30.2267C57.0496 30.3492 56.7252 30.5441 56.4509 30.7989C56.1765 31.0537 55.9583 31.3629 55.81 31.7067C55.5456 32.3577 55.536 33.0844 55.7831 33.7422C56.0301 34.4 56.5158 34.9406 57.1433 35.2567L59.1433 36.2967C59.2609 36.3581 59.3493 36.4637 59.389 36.5903C59.4287 36.7169 59.4164 36.8541 59.355 36.9717C59.2936 37.0893 59.1879 37.1776 59.0613 37.2173C58.9347 37.257 58.7976 37.2448 58.68 37.1833C58.3309 37.0035 57.9472 36.9009 57.5549 36.8825C57.1627 36.8641 56.7711 36.9303 56.4067 37.0767C56.039 37.2221 55.7079 37.4469 55.4371 37.735C55.1663 38.023 54.9624 38.3674 54.84 38.7433C54.6402 39.3755 54.672 40.0581 54.9298 40.6689C55.1875 41.2797 55.6544 41.7788 56.2467 42.0767L65.58 46.9567C68.053 48.235 70.824 48.8256 73.6033 48.6667C73.75 48.6667 73.8933 48.6433 74.0367 48.6433V48.6367Z" fill="black"/>
</g>
<defs>
<clipPath id="clip0_1265_3209">
<rect width="140" height="120" fill="white"/>
</clipPath>
</defs>
</svg>
