<svg width="336" height="250" viewBox="0 0 336 250" fill="none" xmlns="http://www.w3.org/2000/svg">
    <g clip-path="url(#afg96r0ura)">
        <path d="M335.112 219.519H.888v.167h334.224v-.167zM301.623 230.274h-22.139v.167h22.139v-.167zM222.291 232.092h-5.808v.167h5.808v-.167zM278.815 224.071h-12.827v.167h12.827v-.167zM64.825 225.194h-28.87v.167h28.87v-.167zM75.012 225.194h-4.231v.167h4.231v-.167zM151.389 228.015h-62.62v.167h62.62v-.167zM159.31 189.706H30.24a3.82 3.82 0 0 1-3.81-3.817V4.452A3.817 3.817 0 0 1 30.24.668h129.07a3.818 3.818 0 0 1 3.817 3.817V185.89a3.817 3.817 0 0 1-3.817 3.817zM30.24.802a3.65 3.65 0 0 0-3.644 3.65v181.437a3.648 3.648 0 0 0 3.643 3.65H159.31a3.657 3.657 0 0 0 3.65-3.65V4.452a3.658 3.658 0 0 0-3.65-3.65H30.24zM303.902 189.706H174.825a3.825 3.825 0 0 1-3.817-3.817V4.452a3.824 3.824 0 0 1 3.817-3.784h129.077a3.817 3.817 0 0 1 3.804 3.784v181.437a3.815 3.815 0 0 1-3.804 3.817zM174.825.802a3.656 3.656 0 0 0-3.65 3.65v181.437a3.659 3.659 0 0 0 3.65 3.65h129.077a3.657 3.657 0 0 0 3.65-3.65V4.452a3.658 3.658 0 0 0-3.65-3.65H174.825z" fill="#EBEBEB"/>
        <path d="M111.623 33.275H63.996v161.571h47.627V33.276z" fill="#FAFAFA"/>
        <path d="M104.537 33.275h-2.787L85.139 194.846h2.78l16.618-161.57z" fill="#F5F5F5"/>
        <path d="M110.787 33.904H63.695v1.423h47.092v-1.423z" fill="#E0E0E0"/>
        <path d="M110.787 193.436H63.695v3.048h47.092v-3.048z" fill="#EBEBEB"/>
        <path d="M110.005 196.344H65.507v.133h44.498v-.133zM65.507 33.904h44.492v162.44h2.667V31.905H62.84v164.439h2.667V33.904z" fill="#EBEBEB"/>
        <path d="M164.624 33.275h-47.627v161.571h47.627V33.276z" fill="#FAFAFA"/>
        <path d="M151.416 33.275h-15.187l-16.611 161.571h15.187l16.611-161.57z" fill="#F5F5F5"/>
        <path d="M165.119 33.904H116.69v1.423h48.429v-1.423z" fill="#E0E0E0"/>
        <path d="M165.119 193.436H116.69v3.048h48.429v-3.048z" fill="#EBEBEB"/>
        <path d="M163 196.344h-44.499v.133H163v-.133zM118.501 33.904H163v162.44h2.667V31.905h-49.826v164.439h2.66V33.904z" fill="#EBEBEB"/>
        <path d="M216.289 33.275h-46.29v161.571h46.29V33.276z" fill="#FAFAFA"/>
        <path d="M196.229 33.275h-2.788L176.83 194.846h2.781l16.618-161.57z" fill="#F5F5F5"/>
        <path d="M216.783 33.904h-47.092v1.423h47.092v-1.423z" fill="#E0E0E0"/>
        <path d="M216.783 193.436h-47.092v3.048h47.092v-3.048z" fill="#EBEBEB"/>
        <path d="M216.001 196.344h-44.498v.133h44.498v-.133zM171.503 33.904h44.498v162.44h2.661V31.905h-49.826v164.439h2.667V33.904z" fill="#EBEBEB"/>
        <path d="M270.62 33.275h-47.627v161.571h47.627V33.276z" fill="#FAFAFA"/>
        <path d="M265.968 33.275h-15.187L234.17 194.846h15.18l16.618-161.57z" fill="#F5F5F5"/>
        <path d="M269.785 33.904h-47.092v1.423h47.092v-1.423z" fill="#E0E0E0"/>
        <path d="M269.785 193.436h-47.092v3.048h47.092v-3.048z" fill="#EBEBEB"/>
        <path d="M224.504 33.904h44.492v162.44h2.667V31.905h-49.826v164.439h2.667V33.904zM269.003 196.344h-44.499v.133h44.499v-.133zM96.89 157.667H76.215v35.755H96.89v-35.755z" fill="#EBEBEB"/>
        <path d="M92.92 152.674v8.964H80.186v-8.964H92.92z" fill="#EBEBEB"/>
        <path d="M92.92 161.644h2.647v-2.647H92.92v2.647zM87.793 161.644h2.647v-2.647h-2.647v2.647zM82.66 161.644h2.646v-2.647H82.66v2.647z" fill="#FAFAFA"/>
        <path d="M77.532 161.644h2.647v-2.647h-2.647v2.647zM92.92 166.451h2.647v-2.648H92.92v2.648zM87.793 166.451h2.647v-2.648h-2.647v2.648z" fill="#F0F0F0"/>
        <path d="M82.66 166.451h2.646v-2.648H82.66v2.648zM77.532 166.451h2.647v-2.648h-2.647v2.648z" fill="#FAFAFA"/>
        <path d="M92.92 171.257h2.647v-2.647H92.92v2.647z" fill="#F0F0F0"/>
        <path d="M87.793 171.257h2.647v-2.647h-2.647v2.647zM82.66 171.257h2.646v-2.647H82.66v2.647zM87.793 157.48h2.647v-2.647h-2.647v2.647z" fill="#FAFAFA"/>
        <path d="M82.66 157.48h2.646v-2.647H82.66v2.647zM77.532 171.257h2.647v-2.647h-2.647v2.647z" fill="#F0F0F0"/>
        <path d="M92.92 176.07h2.647v-2.648H92.92v2.648z" fill="#FAFAFA"/>
        <path d="M87.793 176.07h2.647v-2.648h-2.647v2.648zM82.66 176.07h2.646v-2.648H82.66v2.648z" fill="#F0F0F0"/>
        <path d="M77.532 176.07h2.647v-2.648h-2.647v2.648z" fill="#FAFAFA"/>
        <path d="M92.92 180.882h2.647v-2.647H92.92v2.647z" fill="#F0F0F0"/>
        <path d="M87.793 180.882h2.647v-2.647h-2.647v2.647zM82.66 180.882h2.646v-2.647H82.66v2.647z" fill="#FAFAFA"/>
        <path d="M77.532 180.882h2.647v-2.647h-2.647v2.647zM92.92 185.695h2.647v-2.647H92.92v2.647z" fill="#F0F0F0"/>
        <path d="M87.793 185.695h2.647v-2.647h-2.647v2.647z" fill="#FAFAFA"/>
        <path d="M82.66 185.695h2.646v-2.647H82.66v2.647z" fill="#F0F0F0"/>
        <path d="M77.532 185.695h2.647v-2.647h-2.647v2.647zM92.92 190.501h2.647v-2.647H92.92v2.647zM87.793 190.501h2.647v-2.647h-2.647v2.647z" fill="#FAFAFA"/>
        <path d="M82.66 190.501h2.646v-2.647H82.66v2.647zM77.532 190.501h2.647v-2.647h-2.647v2.647z" fill="#F0F0F0"/>
        <path d="M213.461 157.667h-20.675v35.755h20.675v-35.755z" fill="#EBEBEB"/>
        <path d="M209.491 152.674v8.964h-12.734v-8.964h12.734z" fill="#EBEBEB"/>
        <path d="M209.491 161.644h2.647v-2.647h-2.647v2.647zM204.364 161.644h2.647v-2.647h-2.647v2.647zM199.237 161.644h2.647v-2.647h-2.647v2.647z" fill="#FAFAFA"/>
        <path d="M194.11 161.644h2.647v-2.647h-2.647v2.647zM209.491 166.451h2.647v-2.648h-2.647v2.648zM204.364 166.451h2.647v-2.648h-2.647v2.648z" fill="#F0F0F0"/>
        <path d="M199.237 166.451h2.647v-2.648h-2.647v2.648zM194.11 166.451h2.647v-2.648h-2.647v2.648z" fill="#FAFAFA"/>
        <path d="M209.491 171.257h2.647v-2.647h-2.647v2.647z" fill="#F0F0F0"/>
        <path d="M204.364 171.257h2.647v-2.647h-2.647v2.647zM199.237 171.257h2.647v-2.647h-2.647v2.647zM204.364 157.48h2.647v-2.647h-2.647v2.647z" fill="#FAFAFA"/>
        <path d="M199.237 157.48h2.647v-2.647h-2.647v2.647zM194.11 171.257h2.647v-2.647h-2.647v2.647z" fill="#F0F0F0"/>
        <path d="M209.491 176.07h2.647v-2.648h-2.647v2.648z" fill="#FAFAFA"/>
        <path d="M204.364 176.07h2.647v-2.648h-2.647v2.648zM199.237 176.07h2.647v-2.648h-2.647v2.648z" fill="#F0F0F0"/>
        <path d="M194.11 176.07h2.647v-2.648h-2.647v2.648z" fill="#FAFAFA"/>
        <path d="M209.491 180.882h2.647v-2.647h-2.647v2.647z" fill="#F0F0F0"/>
        <path d="M204.364 180.882h2.647v-2.647h-2.647v2.647zM199.237 180.882h2.647v-2.647h-2.647v2.647z" fill="#FAFAFA"/>
        <path d="M194.11 180.882h2.647v-2.647h-2.647v2.647zM209.491 185.695h2.647v-2.647h-2.647v2.647z" fill="#F0F0F0"/>
        <path d="M204.364 185.695h2.647v-2.647h-2.647v2.647z" fill="#FAFAFA"/>
        <path d="M199.237 185.695h2.647v-2.647h-2.647v2.647z" fill="#F0F0F0"/>
        <path d="M194.11 185.695h2.647v-2.647h-2.647v2.647zM209.491 190.501h2.647v-2.647h-2.647v2.647zM204.364 190.501h2.647v-2.647h-2.647v2.647z" fill="#FAFAFA"/>
        <path d="M199.237 190.501h2.647v-2.647h-2.647v2.647zM194.11 190.501h2.647v-2.647h-2.647v2.647zM246.302 170.695h-18.523v22.727h18.523v-22.727z" fill="#F0F0F0"/>
        <path d="M229.39 173.215H236.075v2.373H229.39v-2.373z" fill="#E6E6E6"/>
        <path d="M229.39 177.807H236.075v2.373H229.39v-2.373z" fill="#FAFAFA"/>
        <path d="M229.39 182.4H236.075v2.373H229.39V182.4z" fill="#E6E6E6"/>
        <path d="M229.39 186.999H236.075v2.366H229.39v-2.366zM238.007 173.215H244.691v2.373h-6.684v-2.373zM238.007 177.807h6.684v2.373h-6.684v-2.373z" fill="#FAFAFA"/>
        <path d="M238.007 182.4H244.691v2.373h-6.684V182.4z" fill="#E6E6E6"/>
        <path d="M238.007 186.999H244.691v2.366h-6.684v-2.366z" fill="#FAFAFA"/>
        <path d="M157.967 179.305h-16.832v14.124h16.832v-14.124z" fill="#F0F0F0"/>
        <path d="M154.738 183.215h2.152v-2.152h-2.152v2.152zM150.56 183.215h2.153v-2.152h-2.153v2.152zM146.382 183.215h2.153v-2.152h-2.153v2.152zM142.218 183.215h2.152v-2.152h-2.152v2.152zM154.738 187.126h2.152v-2.153h-2.152v2.153zM150.56 187.126h2.153v-2.153h-2.153v2.153zM146.382 187.126h2.153v-2.153h-2.153v2.153z" fill="#FAFAFA"/>
        <path d="M142.218 187.126h2.152v-2.153h-2.152v2.153zM154.738 191.049h2.152v-2.152h-2.152v2.152zM150.56 191.049h2.153v-2.152h-2.153v2.152z" fill="#E6E6E6"/>
        <path d="M146.382 191.049h2.153v-2.152h-2.153v2.152z" fill="#FAFAFA"/>
        <path d="M142.218 191.049h2.152v-2.152h-2.152v2.152z" fill="#E6E6E6"/>
        <path d="M191.015 179.305h-16.832v14.124h16.832v-14.124z" fill="#F0F0F0"/>
        <path d="M187.786 183.215h2.152v-2.152h-2.152v2.152zM183.615 183.215h2.152v-2.152h-2.152v2.152zM179.437 183.215h2.153v-2.152h-2.153v2.152zM175.259 183.215h2.153v-2.152h-2.153v2.152zM187.786 187.126h2.152v-2.153h-2.152v2.153zM183.615 187.126h2.152v-2.153h-2.152v2.153zM179.437 187.126h2.153v-2.153h-2.153v2.153z" fill="#FAFAFA"/>
        <path d="M175.259 187.126h2.153v-2.153h-2.153v2.153zM187.786 191.049h2.152v-2.152h-2.152v2.152zM183.615 191.049h2.152v-2.152h-2.152v2.152z" fill="#E6E6E6"/>
        <path d="M179.437 191.049h2.153v-2.152h-2.153v2.152z" fill="#FAFAFA"/>
        <path d="M175.259 191.049h2.153v-2.152h-2.153v2.152z" fill="#E6E6E6"/>
        <path d="M138.856 168.857h-16.832v24.565h16.832v-24.565z" fill="#F0F0F0"/>
        <path d="M137.779 169.933h-6.33v6.07h6.33v-6.07zM129.43 169.933h-6.33v6.07h6.33v-6.07zM137.779 177.767h-6.33v6.07h6.33v-6.07zM129.43 177.767h-6.33v6.07h6.33v-6.07zM137.779 185.595h-6.33v6.069h6.33v-6.069zM129.43 185.595h-6.33v6.069h6.33v-6.069z" fill="#FAFAFA"/>
        <path d="M265.948 168.857h-16.832v24.565h16.832v-24.565z" fill="#F0F0F0"/>
        <path d="M264.872 169.933h-6.331v6.07h6.331v-6.07zM256.523 169.933h-6.33v6.07h6.33v-6.07zM264.872 177.767h-6.331v6.07h6.331v-6.07zM256.523 177.767h-6.33v6.07h6.33v-6.07zM264.872 185.595h-6.331v6.069h6.331v-6.069zM256.523 185.595h-6.33v6.069h6.33v-6.069z" fill="#FAFAFA"/>
        <path d="M168 249.706c71.579 0 129.606-3.388 129.606-7.567s-58.027-7.567-129.606-7.567c-71.58 0-129.606 3.388-129.606 7.567s58.027 7.567 129.606 7.567z" fill="#F5F5F5"/>
        <path d="M132.906 183.65h71.083a4.876 4.876 0 0 1-4.679 4.873c-7.64.341-19.385 1.551-23.115 5.775-6.952 7.881-6.277 35.555 2.046 41.965 2.607 2.006 10.214 6.016 10.214 6.016h-40.034s7.112-4.07 9.579-6.016c8.275-6.457 8.516-34.091 1.537-41.965-3.582-4.011-14.599-5.347-21.985-5.735a4.914 4.914 0 0 1-4.646-4.913z" fill="#00696B"/>
        <path opacity=".3" d="M132.906 183.65h71.083a4.876 4.876 0 0 1-4.679 4.873c-7.64.341-19.385 1.551-23.115 5.775-6.952 7.881-6.277 35.555 2.046 41.965 2.607 2.006 10.214 6.016 10.214 6.016h-40.034s7.112-4.07 9.579-6.016c8.275-6.457 8.516-34.091 1.537-41.965-3.582-4.011-14.599-5.347-21.985-5.735a4.914 4.914 0 0 1-4.646-4.913z" fill="#fff"/>
        <path opacity=".2" d="M195.186 188.777c-7.219.581-15.876 2.005-18.971 5.521a13.832 13.832 0 0 0-2.353 4.071h-11.938a14.327 14.327 0 0 0-2.387-4.071c-3.115-3.496-11.838-4.933-18.923-5.521h54.572z" fill="#000"/>
        <path d="m197.171 165.067-3.737 16.952a1.263 1.263 0 0 1-1.209.962h-24.151a.827.827 0 0 1-.769-1.069l3.73-16.805a1.17 1.17 0 0 1 1.216-.829h24.151c.549-.007.889.241.769.789z" fill="#263238"/>
        <path opacity=".6" d="m197.171 165.067-3.737 16.952a1.263 1.263 0 0 1-1.209.962h-24.151a.827.827 0 0 1-.769-1.069l3.73-16.805a1.17 1.17 0 0 1 1.216-.829h24.151c.549-.007.889.241.769.789z" fill="#fff"/>
        <path opacity=".2" d="m196.483 165.067-3.75 16.952a1.28 1.28 0 0 1-1.217.962h-23.442a.826.826 0 0 1-.769-1.069l3.736-16.805a1.16 1.16 0 0 1 1.21-.829h23.456c.548-.007.896.241.776.789z" fill="#000"/>
        <path d="M152.144 181.083v1.885c0 .481.569.668 1.05.668h37.647c.488 0 1.069-.2 1.069-.668v-1.885h-39.766z" fill="#263238"/>
        <path opacity=".6" d="M152.144 181.083v1.885c0 .481.569.668 1.05.668h37.647c.488 0 1.069-.2 1.069-.668v-1.885h-39.766z" fill="#fff"/>
        <path opacity=".2" d="M152.144 181.083v1.885c0 .481.569.668 1.05.668h24.833c.481 0 1.056-.2 1.056-.668v-1.885h-26.939z" fill="#fff"/>
        <path d="M192.586 179.432h-24.138l3.142-14.165h24.144l-3.148 14.165z" fill="#00696B"/>
        <path d="M176.275 178.255h-1.718l.656-2.834h1.717l-.655 2.834zM179.063 178.255h-1.718l1.13-4.893h1.717l-1.129 4.893zM181.85 178.255h-1.724l.956-4.124h1.717l-.949 4.124zM184.631 178.255h-1.718l1.431-6.183h1.717l-1.43 6.183zM187.418 178.255h-1.717l1.905-8.242h1.717l-1.905 8.242z" fill="#00696B"/>
        <path d="M176.275 178.255h-1.718l.656-2.834h1.717l-.655 2.834zM179.063 178.255h-1.718l1.13-4.893h1.717l-1.129 4.893zM181.85 178.255h-1.724l.956-4.124h1.717l-.949 4.124zM184.631 178.255h-1.718l1.431-6.183h1.717l-1.43 6.183zM187.418 178.255h-1.717l1.905-8.242h1.717l-1.905 8.242z" fill="#fff" opacity=".5"/>
        <path d="M189.624 178.65h-17.52l.181-.789h17.52l-.181.789zM173.528 175.956l-.421-.361 6.684-4.358 2.414 1.557 8.877-6.143.441.348-9.385 6.49-2.433-1.564-6.177 4.031z" fill="#fff"/>
        <path d="m191.777 166.451-1.183.173.962.689.221-.862z" fill="#fff"/>
        <path d="M267.713 236.664h-79.172v5.201h79.172v-5.201z" fill="#263238"/>
        <path opacity=".4" d="M267.713 236.664h-79.172v5.201h79.172v-5.201z" fill="#fff"/>
        <path opacity=".2" d="M233.428 236.664h-44.887v5.201h44.887v-5.201z" fill="#fff"/>
        <path d="M212.619 207.079h58.422l8.904-45.983a8.146 8.146 0 0 0-8.021-9.692h-41.805a8.134 8.134 0 0 0-8.021 6.597l-9.479 49.078z" fill="#00696B"/>
        <path opacity=".6" d="M212.619 207.079h58.422l8.904-45.983a8.146 8.146 0 0 0-8.021-9.692h-41.805a8.134 8.134 0 0 0-8.021 6.597l-9.479 49.078z" fill="#fff"/>
        <path opacity=".2" d="M254.451 207.079h16.59l8.904-45.983a8.146 8.146 0 0 0-8.021-9.692 8.139 8.139 0 0 0-8.022 6.597l-9.451 49.078z" fill="#000"/>
        <path d="M269.15 206.511h-82.768a4.104 4.104 0 0 0-4.104 4.104v23.376a4.105 4.105 0 0 0 4.104 4.104h82.768a4.105 4.105 0 0 0 4.104-4.104v-23.376a4.104 4.104 0 0 0-4.104-4.104z" fill="#00696B"/>
        <path opacity=".6" d="M269.15 206.511h-82.768a4.104 4.104 0 0 0-4.104 4.104v23.376a4.105 4.105 0 0 0 4.104 4.104h82.768a4.105 4.105 0 0 0 4.104-4.104v-23.376a4.104 4.104 0 0 0-4.104-4.104z" fill="#fff"/>
        <path opacity=".2" d="M269.15 206.511h-35.421a4.104 4.104 0 0 0-4.105 4.104v23.376a4.105 4.105 0 0 0 4.105 4.104h35.421a4.105 4.105 0 0 0 4.104-4.104v-23.376a4.104 4.104 0 0 0-4.104-4.104z" fill="#000"/>
        <path d="m201.028 154.372-5.622-1.491 2.073-4.679s4.097.488 4.953 3.783l-1.404 2.387zM192.325 150.06l2.38-3.108 2.747 1.263-2.072 4.666-3.055-2.821z" fill="#E4897B"/>
        <path d="M223.374 152.406s-4.538 2.955-11.103 7.928l-9.96-9.438-2.225 3.255s8.85 12.64 11.23 13.068c2.379.428 13.883-7.6 13.883-7.6l-1.825-7.213z" fill="#263238"/>
        <path opacity=".4" d="M225.166 159.619s-2.52 1.758-5.441 3.583c-3.343 2.079-7.18 4.251-8.443 4.011-2.38-.428-11.23-13.069-11.23-13.069l2.26-3.235 9.959 9.439c6.565-4.974 11.103-7.928 11.103-7.928l1.184 4.746.608 2.453z" fill="#fff"/>
        <path opacity=".2" d="M225.166 159.619s-2.52 1.758-5.441 3.583a20.91 20.91 0 0 1 4.832-6.016l.609 2.433z" fill="#000"/>
        <path d="M202.813 198.616c-.167.635 1.698 11.959 3.375 21.839a5266.65 5266.65 0 0 0 2.541 14.705l-3.563.328s-2.728-5.421-5.802-12.614a166.299 166.299 0 0 1-6.016-16.083c-2.186-7.078-3.343-13.569-1.758-16.871a3.901 3.901 0 0 1 1.457-1.691l.247-.161c2.34-1.337 6.083-2.092 10.368-2.446 7.707-.629 17.159 0 23.289.581 3.83.361 6.356.702 6.356.702l5.007 18.65a88.746 88.746 0 0 1-4.866-.301c-17.814-1.544-30.368-7.674-30.635-6.638z" fill="#E4897B"/>
        <path opacity=".2" d="M206.188 220.455a49.51 49.51 0 0 1-6.824 2.426 166.299 166.299 0 0 1-6.016-16.083c1.45-2.674 7.787-11.41 16.169-14.499a27.977 27.977 0 0 0-5.855-6.684c7.707-.628 17.159 0 23.289.582l6.497 19.05c-17.788-1.55-30.341-7.68-30.608-6.644-.194.648 1.671 11.958 3.348 21.852z" fill="#000"/>
        <path d="M224.337 190.996s.454-6.243.668-7.513c.177-1.262.436-2.51.776-3.737 1.383-4.164 19.926.729 19.926.729s10.969 16.517 3.302 24.311c-1.698 1.725-5.026 2.5-8.435 2.473 0 0-10.395.508-29.726-.394 0 0-8.617 12.186-32.213 28.302l-4.372-.601s29.004-36.137 29.887-36.852c7.707-6.23 20.187-6.718 20.187-6.718z" fill="#E4897B"/>
        <path d="M178.615 241.618h-.956l-.267-1.184-3.169 1.431h-8.021s-1.277-1.283 2.547-2.306c.187-.051.368-.12.541-.207 2.039-.956 4.94-4.185 4.94-4.185h4.405c.134.204.255.416.361.635.475.969 1.31 3.001-.381 5.816z" fill="#263238"/>
        <path d="M178.989 235.802c-.581-.668-3.228 2.199-5.167 3.169-1.731.862-3.676 1.243-4.539.367 2.039-.956 5.248-5.133 5.248-5.133h3.543s.708 1.183.915 1.597z" fill="#E4897B"/>
        <path d="M208.715 241.618h-.956l-.267-1.184-3.168 1.431h-8.022s-1.277-1.283 2.547-2.306c.187-.051.368-.12.541-.207 2.039-.956 4.94-4.185 4.94-4.185h4.405c.134.204.255.416.361.635.475.969 1.31 3.001-.381 5.816z" fill="#263238"/>
        <path d="M209.09 235.802c-.582-.668-3.229 2.199-5.168 3.169-1.731.862-3.676 1.243-4.538.367 2.038-.956 5.247-5.133 5.247-5.133h3.543s.708 1.183.916 1.597z" fill="#E4897B"/>
        <path d="M202.693 185.689s13.609 5.554 16.885 9.959c3.275 4.405 1.25 10.595-1.217 11.511 0 0 3.93.568 17.079.568 13.148 0 16.851-2.907 16.765-9.96-.087-7.052-6.504-17.286-6.504-17.286l-20.575.107-2.006 4.786s-10.501-1.27-20.427.315z" fill="#263238"/>
        <path d="M247.338 156.731c-1.825 5.502-1.912 17.915-1.263 24.773l-20.722-.134a70.809 70.809 0 0 1-2.059-26.49 5.35 5.35 0 0 1 .976-2.708s4.231-1.751 7.914-1.724c2.852.101 5.693.4 8.503.896 2.088.347 4.155.814 6.19 1.397a1.64 1.64 0 0 1 1.11 2.112c-.241.648-.442 1.27-.649 1.878z" fill="#00696B"/>
        <path opacity=".1" d="m225.333 181.37 12.507.087 8.235.047a103.478 103.478 0 0 1 .167-19.191c.183-1.89.551-3.757 1.096-5.575.201-.608.408-1.243.629-1.885a1.651 1.651 0 0 0-.094-1.289 1.648 1.648 0 0 0-.996-.823 55.539 55.539 0 0 0-6.19-1.397c-2.814-.5-5.66-.799-8.516-.896-3.683 0-7.914 1.724-7.914 1.724a9.505 9.505 0 0 0-.976 2.708c-.395 3.202-1.518 12.807 2.052 26.49z" fill="#fff"/>
        <path d="m225.761 181.197-2.674 4.171s.481-3.911.475-6.551c-.007-2.641-2.761-12.233-.127-26.437a30.323 30.323 0 0 1 4.512-1.518 8.365 8.365 0 0 1 1.504-.2s-3.156 7.76-3.797 19.793a85.375 85.375 0 0 0 .107 10.742z" fill="#263238"/>
        <path opacity=".4" d="m225.761 181.197-2.674 4.171s.481-3.911.475-6.551c-.007-2.641-2.761-12.233-.127-26.437a30.594 30.594 0 0 1 4.512-1.518 7.255 7.255 0 0 1 1.504-.2s-3.156 7.76-3.797 19.793a85.375 85.375 0 0 0 .107 10.742z" fill="#fff"/>
        <path d="M247.445 176.698c.669 6.257 1.852 9.358 1.852 9.358a13.83 13.83 0 0 1-8.964-8.021 13.188 13.188 0 0 1-.762-4.359c-.354-8.475 3.175-22.359 3.175-22.359l.702.187c4.733 1.29 6.049 2.674 6.049 2.674s-2.76 16.277-2.052 22.52z" fill="#263238"/>
        <path opacity=".4" d="M248.328 182.333a28.07 28.07 0 0 0 .969 3.73 13.83 13.83 0 0 1-8.964-8.022 8.822 8.822 0 0 1-.501-1.798 18.013 18.013 0 0 1-.261-2.56c-.354-8.476 3.175-22.359 3.175-22.359l.702.187c4.733 1.29 6.049 2.674 6.049 2.674s-.668 3.883-1.25 8.582c-.621 4.9-1.163 10.696-.802 13.891.261 2.346.582 4.218.883 5.675z" fill="#fff"/>
        <path opacity=".2" d="m242.418 159.091 1.431 2.908s-2.888 7.306-4.278 11.724c-.354-8.476 3.175-22.359 3.175-22.359l.702.187c.615 1.524 1.597 4.726 1.838 9.96l-2.868-2.42zM229.451 150.662s-3.156 7.76-3.797 19.793c-1.758-4.011-1.07-13.771-1.07-13.771l1.257-1.677-2.279.742c1.129-2.674 3.008-3.904 4.385-4.86a7.887 7.887 0 0 0 1.504-.227z" fill="#fff"/>
        <path opacity=".2" d="M248.328 182.333a20.195 20.195 0 0 1-3.53 1.491 13.439 13.439 0 0 1-4.465-5.756 8.84 8.84 0 0 1-.501-1.798l1.865-2.052s.407-6.531 2.827-11.016c.809-1.497 2.239-1.497 3.723-.395-.621 4.9-1.163 10.696-.802 13.891.261 2.306.582 4.178.883 5.635z" fill="#000"/>
        <path d="M236.77 149.472s3.416.073 4.913 1.872c1.337 1.624.421 4.324.421 4.324l-4.679.529-6.156 5.782-.863-5.495-3.001-.816s1.484-6.196 9.365-6.196z" fill="#00696B"/>
        <path d="M236.77 149.472s3.416.073 4.913 1.872c1.337 1.624.421 4.324.421 4.324l-4.679.529-6.156 5.782-.863-5.495-3.001-.816s1.484-6.196 9.365-6.196z" fill="#fff" opacity=".4"/>
        <path d="M240.467 152.039a61.186 61.186 0 0 0-8.79 8.389s-2.213-7.888 1.39-9.171c0 0 1.009-.314 1.223-1.919a7.63 7.63 0 0 0-.428-3.342 22.217 22.217 0 0 0-.173-.541l5.895-3.69s-2.065 7.48.883 10.274z" fill="#E4897B"/>
        <path opacity=".2" d="M238.254 143.91s-.314 4.218-3.964 5.435a7.63 7.63 0 0 0-.428-3.342 67.697 67.697 0 0 1 4.392-2.093z" fill="#000"/>
        <path d="M242.418 132.848a6.866 6.866 0 0 1 7.079-1.103c4.118 1.671 2.794 9.465-.728 12.754-3.523 3.288-.715 3.716-.715 3.716s-2.875.395-1.698-3.803c1.176-4.198 1.457-8.022-2.427-7.6-3.884.421-1.511-3.964-1.511-3.964z" fill="#263238"/>
        <path d="M241.449 128.743s-7.045-4.01-11.544-.822c-4.499 3.189-2.821 12.079 0 14.385 2.821 2.306 10.207 1.711 10.207 1.711s4.011-.668 5.174-6.544c.969-4.799-1.457-8.375-3.837-8.73z" fill="#263238"/>
        <path d="M236.703 129.806c-4.866-.461-6.684 2.006-7.507 6.985-1.029 6.224-.06 10.809 6.15 10.027 8.436-1.029 9.439-16.256 1.357-17.012z" fill="#E4897B"/>
        <path d="M232.372 136.812c-.459.691-1 1.324-1.611 1.885a1.333 1.333 0 0 0 1.236.668l.375-2.553z" fill="#DE5753"/>
        <path d="M235.386 136.691c-.046.401.134.749.395.782.26.034.521-.267.568-.668.047-.401-.134-.749-.394-.776-.261-.026-.522.268-.569.662z" fill="#263238"/>
        <path d="m236.061 136.063-.828-.448s.347.782.828.448zM230.433 136.029c-.047.401.134.749.401.776.268.027.515-.268.568-.669.054-.401-.133-.748-.401-.782-.267-.033-.521.274-.568.675z" fill="#263238"/>
        <path d="m231.108 135.394-.822-.441s.341.782.822.441zM237.793 134.479a.21.21 0 0 1-.174-.094 2.365 2.365 0 0 0-1.865-.842.204.204 0 0 1-.146-.061.206.206 0 0 1 0-.293.204.204 0 0 1 .146-.061 2.74 2.74 0 0 1 2.226 1.03.21.21 0 0 1 .027.155.21.21 0 0 1-.087.132.227.227 0 0 1-.127.034zM230.253 133.229a.192.192 0 0 1-.181-.114.21.21 0 0 1-.018-.157.217.217 0 0 1 .098-.124 2.483 2.483 0 0 1 2.166-.22.21.21 0 0 1 .073.044.22.22 0 0 1 .049.071.199.199 0 0 1-.004.167.214.214 0 0 1-.051.069.193.193 0 0 1-.074.041.206.206 0 0 1-.167-.018 2.081 2.081 0 0 0-1.791.214.291.291 0 0 1-.1.027z" fill="#263238"/>
        <path d="M241.255 138.503s-1.905-4.212-1.27-7.266c0 0-9.278-4.84-10.695 4.906 0 0-.127-8.783 8.255-8.195 8.383.588 7.206 12.827 2.541 16.043.026.026 2.339-2.855 1.169-5.488z" fill="#263238"/>
        <path d="M240.36 139.459a2.136 2.136 0 0 1 .886-1.403 2.158 2.158 0 0 1 1.62-.355c1.491.307 1.919 3.469-1.905 3.863-.568.08-.822-.474-.601-2.105z" fill="#E4897B"/>
        <path d="M231.242 141.25c.218.541.397 1.097.535 1.664h.307c1.391-.12 2.006-.635 2.246-1.169.118-.263.17-.549.154-.836a1.708 1.708 0 0 0-.087-.481 6.516 6.516 0 0 1-2.674.795c-.294.014-.481.027-.481.027z" fill="#263238"/>
        <path d="m231.717 141.197.173.488c1.337-.114 2.213-.375 2.594-.803a1.721 1.721 0 0 0-.087-.481 6.529 6.529 0 0 1-2.68.796z" fill="#fff"/>
        <path d="M232.084 142.888c1.391-.121 2.006-.635 2.246-1.17a4.574 4.574 0 0 0-1.517.441 1.738 1.738 0 0 0-.729.729z" fill="#DE5753"/>
        <path d="m230.774 186.651-5.795.755 1.464 4.893s4.124.047 5.387-3.114l-1.056-2.534zM221.59 189.82l1.965 3.389 2.888-.903-1.464-4.9-3.389 2.414z" fill="#E4897B"/>
        <path d="M248.535 153.743c-5.087-1.383-4.606 14.078-5.782 21.11l-13.924 11.21 3.442 3.863s16.832-8.623 17.888-12.259c.969-3.429 4.071-22.386-1.624-23.924z" fill="#263238"/>
        <path opacity=".4" d="M248.535 153.743c-5.087-1.383-4.606 14.078-5.782 21.11l-13.924 11.21 3.442 3.863s16.832-8.623 17.888-12.259c.969-3.429 4.071-22.386-1.624-23.924z" fill="#fff"/>
        <path d="M238.007 216.143h17.399l-2.045 8.222-13.028-3.062-2.326-5.16z" fill="#263238"/>
        <path d="M239.009 218.57v-6.17l16.752.441v2.112h1.771l-1.009 9.412-17.514-5.795z" fill="#00696B"/>
        <path opacity=".2" d="M255.761 214.953h-14.987l-.441 3.429-1.324.188v-6.17l16.752.441v2.112z" fill="#000"/>
        <path d="m240.333 241.865-2.326-25.722 1.825 1.457h17.7l1.751 20.742.923 3.523h-19.873z" fill="#263238"/>
        <path opacity=".2" d="m240.333 241.865-2.326-25.722 1.825 1.457h17.7l1.751 20.742.923 3.523h-19.873z" fill="#fff"/>
        <path d="M250.38 223.93c-4.225 0-5.294-5.441-5.308-5.494a.332.332 0 0 1 .268-.388.319.319 0 0 1 .387.261c.04.22 1.063 5.347 5.107 4.933a3.294 3.294 0 0 0 2.487-1.263c1.023-1.404.575-3.51.568-3.536a.338.338 0 0 1 .046-.25.337.337 0 0 1 .556-.011.316.316 0 0 1 .053.12c0 .094.515 2.413-.668 4.064a3.93 3.93 0 0 1-2.988 1.564c-.17.01-.339.01-.508 0z" fill="#fff"/>
        <path opacity=".2" d="m239.832 217.6 1.47 22.754.615 1.511h-1.584l-2.326-25.722 1.825 1.457z" fill="#000"/>
        <path d="M67.586 241.865h79.171v-5.201H67.586v5.201z" fill="#263238"/>
        <path opacity=".4" d="M67.586 241.865h79.171v-5.201H67.586v5.201z" fill="#fff"/>
        <path opacity=".2" d="M101.864 241.865h44.886v-5.201h-44.886v5.201z" fill="#fff"/>
        <path d="M122.679 207.079H64.25l-8.904-45.983a8.144 8.144 0 0 1 4.542-8.921 8.143 8.143 0 0 1 3.48-.771h41.798a8.15 8.15 0 0 1 8.021 6.597l9.492 49.078z" fill="#00696B"/>
        <path opacity=".6" d="M122.679 207.079H64.25l-8.904-45.983a8.144 8.144 0 0 1 4.542-8.921 8.143 8.143 0 0 1 3.48-.771h41.798a8.15 8.15 0 0 1 8.021 6.597l9.492 49.078z" fill="#fff"/>
        <path opacity=".2" d="M80.848 207.079H64.25l-8.904-45.983a8.144 8.144 0 0 1 4.542-8.921 8.143 8.143 0 0 1 3.48-.771 8.15 8.15 0 0 1 8.021 6.597l9.459 49.078z" fill="#000"/>
        <path d="M148.909 206.511H66.142a4.104 4.104 0 0 0-4.105 4.104v23.376a4.105 4.105 0 0 0 4.105 4.104h82.767a4.104 4.104 0 0 0 4.104-4.104v-23.376a4.103 4.103 0 0 0-4.104-4.104z" fill="#00696B"/>
        <path opacity=".6" d="M148.909 206.511H66.142a4.104 4.104 0 0 0-4.105 4.104v23.376a4.105 4.105 0 0 0 4.105 4.104h82.767a4.104 4.104 0 0 0 4.104-4.104v-23.376a4.103 4.103 0 0 0-4.104-4.104z" fill="#fff"/>
        <path opacity=".2" d="M101.563 206.511H66.142a4.104 4.104 0 0 0-4.105 4.104v23.376a4.105 4.105 0 0 0 4.105 4.104h35.421a4.104 4.104 0 0 0 4.104-4.104v-23.376a4.103 4.103 0 0 0-4.104-4.104z" fill="#000"/>
        <path d="M120.259 158.549a14.715 14.715 0 0 1-10.695-5.521c-4.966-6.377-3.295-11.176-3.295-11.176h.046a10.191 10.191 0 0 1 3.109-.234c5.414.307 11.965 3.616 11.965 3.616 1.237 1.979 1.618 9.131-1.13 13.315z" fill="#00696B"/>
        <path opacity=".5" d="M120.259 158.549a14.715 14.715 0 0 1-10.695-5.521c-4.966-6.377-3.295-11.176-3.295-11.176h.046a10.191 10.191 0 0 1 3.109-.234c5.414.307 11.965 3.616 11.965 3.616 1.237 1.979 1.618 9.131-1.13 13.315z" fill="#fff"/>
        <path d="m147.82 228.215 8.482.622-.261 10.027-7.085-.502-1.136-10.147z" fill="#B55B52"/>
        <path opacity=".2" d="m147.826 228.222 8.483.615-.147 5.622-7.707-.555-.629-5.682z" fill="#000"/>
        <path d="M147.947 241.865h1.851l.495-.749.976.756h11.149a4.956 4.956 0 0 0-.474-2.554s-3.342-.301-4.626-1.958a.415.415 0 0 0-.414-.167c-1.11.233-5.522 1.076-7.948.207a.398.398 0 0 0-.5.182.398.398 0 0 0-.048.185 27.242 27.242 0 0 1-.461 4.098zM101.342 184.846s-12.627 23.55 2.353 23.55c18.85 0 36.765-4.746 36.765-4.746s-1.03 10.026 6.257 29.124l10.18-.087s3.964-40.962-3.63-47.841c-6.116-5.534-27.834-3.756-27.834-3.756l-24.091 3.756z" fill="#263238"/>
        <path opacity=".4" d="m156.924 232.687-10.181.08a114.407 114.407 0 0 1-4.405-14.037c-2.373-9.927-1.851-15.074-1.851-15.074s-17.948 4.746-36.798 4.746c-9.111 0-8.022-8.689-5.742-15.534a56.92 56.92 0 0 1 3.395-8.022l14.639-2.279 9.479-1.477s3.904-.321 8.87-.268c6.745.074 15.441.836 18.964 4.011 7.6 6.892 3.63 47.854 3.63 47.854z" fill="#fff"/>
        <path opacity=".2" d="M142.726 217.246c-.127.495-.254.983-.388 1.457-2.373-9.926-1.851-15.073-1.851-15.073s-17.948 4.746-36.798 4.746c-9.111 0-8.022-8.69-5.742-15.535 6.423-4.078 13.201-7.774 18.048-10.294l9.478-1.477s3.904-.321 8.871-.268c7.332 3.302 14.391 12.34 8.382 36.444z" fill="#000"/>
        <path d="m113.508 137.36-1.13 3.395c-2.373 2.921-5.595-.782-5.595-.782l-3.342-1.611a1.904 1.904 0 0 1-.802-2.326l.769-2.38a2.004 2.004 0 0 1 2.359-1.437l3.162 1.137c.626.19 1.194.535 1.651 1.002l2.928 3.002z" fill="#B55B52"/>
        <path d="M124.898 181.417c-10.955 6.056-38.83 1.665-43.816.816-.622-8.249-1.458-18.717-4.085-28.476a7.976 7.976 0 0 1 6.016-9.92 107.254 107.254 0 0 1 23.49-1.965c2.767.1 5.742 1.444 6.631 4.071 4.104 12.098 10.575 21.931 11.764 35.474z" fill="#00696B"/>
        <path d="M117.733 143.409c.254-.047.668-.093.976-.134.307-.04.668-.066 1.049-.1.668-.053 1.404-.127 2.106-.154l1.049-.073 1.029-.047 2.006-.114-2.286 1.197c-.319.3-.579.655-.769 1.049a4.323 4.323 0 0 0-.441 2.387c.032.342.114.677.24.996.039.112.086.222.141.327l.134.241.073.1.047.06.1.114a.867.867 0 0 0 .107.094c.087.033 0-.134-.22-.308a7.476 7.476 0 0 0-.756-.608 38.5 38.5 0 0 0-4.465-2.607 149.898 149.898 0 0 0-5.087-2.507c-1.745-.829-3.509-1.644-5.221-2.486l-.08-.041a3.111 3.111 0 0 1-1.636-3.636 3.12 3.12 0 0 1 3.281-2.266c2.085.181 4.057.488 6.082.849 2.026.361 4.011.829 6.017 1.384a58.76 58.76 0 0 1 3.061.969c1.089.38 2.154.826 3.189 1.337.607.281 1.198.595 1.771.942.726.453 1.399.987 2.005 1.591.174.167.395.428.589.669.193.24.207.274.307.414l.154.214.167.261c.11.182.21.369.301.561.107.221.2.441.294.669.201.554.333 1.131.394 1.718a6.826 6.826 0 0 1-.742 3.796 7.837 7.837 0 0 1-1.698 2.186 3.916 3.916 0 0 1-1.243.789l-1.049.408c-.856.327-1.705.668-2.547.882-.83.267-1.674.49-2.527.669a27.65 27.65 0 0 1-2.52.434c-.421.047-.842.107-1.27.127-.428.02-.829.054-1.337.054a6.205 6.205 0 0 1-1.237-12.287l.462-.12z" fill="#B65B52"/>
        <path opacity=".7" d="M124.898 181.417c-10.955 6.056-38.83 1.665-43.816.816a502.912 502.912 0 0 0-.569-6.939c-.347-3.79-.795-7.827-1.47-11.905-.528-3.222-1.197-6.464-2.046-9.632a7.976 7.976 0 0 1 6.016-9.92 107.254 107.254 0 0 1 23.49-1.965c2.767.1 5.742 1.444 6.631 4.071 4.104 12.098 10.575 21.931 11.764 35.474z" fill="#fff"/>
        <path d="M102.913 143.489a5.022 5.022 0 0 0-2.533-2.092 4.619 4.619 0 0 1-.288-3.095l-11.865-2.914c1.197 3.776 2.14 6.758.836 8.69 2.38 1.243 6.731 3.462 11.283 3.021 4.552-.441 3.416-2.046 2.567-3.61z" fill="#B55B52"/>
        <path opacity=".2" d="m100.025 138.663-8.75.08c2.921 2.728 7.126 3.543 8.931 2.233a4.622 4.622 0 0 1-.181-2.313z" fill="#000"/>
        <path d="m100.62 147.099-2.005-1.444-2.447 1.444s1.732 1.41 4.452 0z" fill="#00696B"/>
        <path opacity=".5" d="m100.62 147.099-2.005-1.444-2.447 1.444s1.732 1.41 4.452 0z" fill="#fff"/>
        <path d="M89.684 141.464s4.051 4.291 8.944 4.191c-2.747 1.538-3.014 4.759-3.014 4.759s-6.21-1.443-7.794-7.84a2.362 2.362 0 0 1 1.865-1.11zM100.62 147.099l2.006-2.059 2.774.628s-1.899 2.46-4.78 1.431z" fill="#00696B"/>
        <path opacity=".5" d="m100.62 147.099 2.006-2.059 2.774.628s-1.899 2.46-4.78 1.431z" fill="#fff"/>
        <path d="M100.38 141.397s2.045 2.066 2.246 3.643c2.326.495 3.649 3.763 3.649 3.763s.094-4.806-3.663-7.145a3.817 3.817 0 0 0-2.232-.261z" fill="#00696B"/>
        <path opacity=".8" d="M89.684 141.464s4.051 4.291 8.944 4.191c-2.747 1.538-3.014 4.759-3.014 4.759s-6.21-1.443-7.794-7.84a2.362 2.362 0 0 1 1.865-1.11zM100.38 141.397s2.045 2.066 2.246 3.643c2.326.495 3.649 3.763 3.649 3.763s.094-4.806-3.663-7.145a3.817 3.817 0 0 0-2.232-.261z" fill="#fff"/>
        <path d="M91.743 123.155c-.1-3.576 3.229-5.434 6.337-3.763 3.108 1.671 3.784 7.353 1.758 10.521-2.025 3.169-8.095-6.758-8.095-6.758z" fill="#263238"/>
        <path d="M85.567 129.679c1.725 4.907 3.008 8.202 6.725 9.566 7.352 2.707 10.36-.896 10.26-6.19-.093-4.76-2.894-11.979-8.73-12.701-5.835-.722-9.98 4.405-8.255 9.325z" fill="#B55B52"/>
        <path d="M89.364 126.791c1.644 1.337 2.673 7.821.354 7.875a34.875 34.875 0 0 1-4.78-.294s-3.048-.923-1.724-5.488c1.323-4.566 6.15-2.093 6.15-2.093z" fill="#263238"/>
        <path d="M84.932 135.588a5.29 5.29 0 0 0 3.783 1.424c1.858-.08 2.226-1.885 1.244-3.342-.883-1.337-2.922-2.854-4.56-2.066-1.637.789-1.704 2.794-.467 3.984z" fill="#B55B52"/>
        <path d="M95.266 128.342c.114.441.434.736.722.669.287-.067.428-.495.314-.936-.114-.441-.434-.729-.722-.669-.287.061-.441.495-.314.936zM99.818 127.286c.114.441.435.735.722.669.288-.067.428-.502.314-.936-.113-.435-.434-.736-.722-.669-.287.067-.407.495-.314.936z" fill="#263238"/>
        <path d="m98.414 128.028.923 3.703c.458-.021.909-.116 1.337-.28a.5.5 0 0 0 .242-.681.502.502 0 0 0-.182-.195 8.904 8.904 0 0 1-2.32-2.547z" fill="#A02724"/>
        <path d="M92.606 127.674a.302.302 0 0 1-.134 0 .267.267 0 0 1-.147-.348 2.67 2.67 0 0 1 1.825-1.631.265.265 0 0 1 .201.042.264.264 0 0 1 .113.172.273.273 0 0 1-.214.314 2.116 2.116 0 0 0-1.43 1.304.262.262 0 0 1-.214.147zM101.282 125.668a.264.264 0 0 1-.241-.06 2.089 2.089 0 0 0-1.831-.575.265.265 0 0 1-.32-.193.265.265 0 0 1 .194-.321 2.598 2.598 0 0 1 2.318.668.273.273 0 0 1 0 .381.202.202 0 0 1-.12.1zM100.186 133.737a.22.22 0 0 1-.114 0c-1.684-.836-4.01-.335-4.057-.335a.25.25 0 0 1-.189-.032.255.255 0 0 1-.112-.155.254.254 0 0 1 .194-.301c.1 0 2.547-.534 4.385.375a.247.247 0 0 1-.107.474v-.026zM82.88 132.052c-1.237-2.112-3.155-9.318 2.994-13.021 6.15-3.703 12.487-1.919 12.527.595.04 2.513-6.25 7.707-10.174 7.52-3.924-.187-5.347 5.24-5.347 5.24" fill="#263238"/>
        <path d="M120.259 158.549a14.715 14.715 0 0 1-10.695-5.521c-4.966-6.377-3.295-11.176-3.295-11.176h.046a11.06 11.06 0 0 1 2.641-.261l.267.147c.99.535 4.76 2.326 7.774 3.469a14.846 14.846 0 0 0 3.262 13.342z" fill="#00696B"/>
        <path opacity=".7" d="M120.259 158.549a14.715 14.715 0 0 1-10.695-5.521c-4.966-6.377-3.295-11.176-3.295-11.176h.046a11.06 11.06 0 0 1 2.641-.261l.267.147c.99.535 4.76 2.326 7.774 3.469a14.846 14.846 0 0 0 3.262 13.342z" fill="#fff"/>
        <path d="m131.57 229.017 8.455-.875 1.504 9.92-7.065.748-2.894-9.793z" fill="#B55B52"/>
        <path opacity=".2" d="m131.57 229.024 8.462-.882.836 5.561-7.681.802-1.617-5.481z" fill="#000"/>
        <path d="M133.241 241.865h1.845l.501-.749.969.756h11.157a5.003 5.003 0 0 0-.482-2.554s-3.342-.301-4.619-1.958a.415.415 0 0 0-.414-.167c-1.11.233-5.522 1.076-7.955.207a.4.4 0 0 0-.541.367 27.242 27.242 0 0 1-.461 4.098zM81.275 184.846s-5.274 17.413 8.917 22.206c14.192 4.793 28.216-3.663 28.216-3.663s0 3.663 12.64 30.602l10.481-2.006s-3.696-40.314-8.295-47.165c-4.599-6.852-27.834-3.757-27.834-3.757l-24.125 3.783z" fill="#263238"/>
        <path opacity=".4" d="M81.275 184.846s-5.274 17.413 8.917 22.206c14.192 4.793 28.216-3.663 28.216-3.663s0 3.663 12.64 30.602l10.481-2.006s-3.696-40.314-8.295-47.165c-4.599-6.852-27.834-3.757-27.834-3.757l-24.125 3.783z" fill="#fff"/>
        <path opacity=".2" d="M80.513 175.294c-.347-3.79-.795-7.827-1.47-11.905 3.81-2.507 7.506-4.398 7.506-4.398s5.06 15.053-6.036 16.303z" fill="#000"/>
        <path d="m86.041 156.798-.528 2.48-.508 2.607a111.83 111.83 0 0 0-.855 5.187 61.745 61.745 0 0 0-.502 5.074 33.783 33.783 0 0 0 .067 4.679l-.942-2.219a1.788 1.788 0 0 0-.448-.442c-.054-.033-.094 0-.047 0 .16.146.334.274.521.381.644.368 1.314.685 2.006.95a60.07 60.07 0 0 0 5.067 1.711c1.771.515 3.61 1.049 5.448 1.557 1.838.508 3.723 1.003 5.541 1.538h.087a3.12 3.12 0 0 1-.602 6.103c-2.065.18-4.05.227-6.076.227-2.025 0-4.05-.1-6.103-.267a50.024 50.024 0 0 1-6.317-.929 25.127 25.127 0 0 1-3.482-1.03 12.765 12.765 0 0 1-2.06-.983c-.429-.256-.84-.542-1.23-.855a8.749 8.749 0 0 1-1.443-1.504 4.762 4.762 0 0 1-.842-1.798l-.1-.421a35.437 35.437 0 0 1-.89-6.685 57.539 57.539 0 0 1-.046-3.215c.013-1.063.087-2.106.16-3.149.147-2.078.421-4.117.762-6.136.18-1.009.361-2.005.588-3.021.114-.502.228-1.003.355-1.504l.427-1.585a6.196 6.196 0 0 1 12.032 2.888l-.04.361z" fill="#B65B52"/>
        <path d="m99.497 180.688-.982 3.443c.314 3.75 5.06 2.513 5.06 2.513l2.527.321a1.888 1.888 0 0 0 1.972-1.464l.701-2.399a2.007 2.007 0 0 0-1.136-2.514l-2.126-.668a3.832 3.832 0 0 0-1.905-.087l-4.11.855z" fill="#B55B52"/>
        <path d="M81.576 144.278c-7.159 1.564-10.822 12.139-11.684 22.48 0 0 6.303 2.453 15.695 1.544 0 0 1.624-11.183.983-16.885-.642-5.702-4.994-7.139-4.994-7.139z" fill="#00696B"/>
        <path opacity=".7" d="M81.576 144.278c-7.159 1.564-10.822 12.139-11.684 22.48 0 0 6.303 2.453 15.695 1.544 0 0 1.624-11.183.983-16.885-.642-5.702-4.994-7.139-4.994-7.139z" fill="#fff"/>
        <path opacity=".2" d="M118.074 158.269s-3.109-3.737-4.633-4.867c0 0 4.706 1.01 4.633 4.867z" fill="#000"/>
        <path d="M222.886 91.27h-28.563a5.918 5.918 0 0 0-5.915 5.916v16.711a5.916 5.916 0 0 0 5.915 5.916h18.984l8.69 9.291-4.679-9.291h5.602a5.914 5.914 0 0 0 5.916-5.916V97.186a5.923 5.923 0 0 0-1.745-4.195 5.916 5.916 0 0 0-4.205-1.72z" fill="#00696B"/>
        <path opacity=".7" d="M222.886 91.27h-28.563a5.918 5.918 0 0 0-5.915 5.916v16.711a5.916 5.916 0 0 0 5.915 5.916h18.984l8.69 9.291-4.679-9.291h5.602a5.914 5.914 0 0 0 5.916-5.916V97.186a5.923 5.923 0 0 0-1.745-4.195 5.916 5.916 0 0 0-4.205-1.72z" fill="#fff"/>
        <path d="M210.419 113.97c6.603-2.735 9.738-10.306 7.003-16.909-2.735-6.603-10.305-9.739-16.908-7.003-6.603 2.735-9.739 10.305-7.004 16.908 2.735 6.603 10.305 9.739 16.909 7.004z" fill="#00696B"/>
        <path opacity=".3" d="M209.692 112.216c5.635-2.334 8.31-8.794 5.976-14.428-2.333-5.635-8.793-8.31-14.428-5.977-5.634 2.334-8.31 8.794-5.976 14.429 2.334 5.634 8.794 8.31 14.428 5.976z" fill="#fff"/>
        <path d="M206.262 107.968v1.865h-1.337v-1.845a7.281 7.281 0 0 1-4.077-1.384l.748-1.678a6.388 6.388 0 0 0 3.343 1.264v-3.342c-1.852-.448-3.831-1.05-3.831-3.343 0-1.697 1.23-3.175 3.831-3.422v-1.885h1.336v1.852a7.126 7.126 0 0 1 3.376 1.009l-.668 1.684a6.913 6.913 0 0 0-2.674-.902v3.342c1.845.448 3.857 1.036 3.857 3.342-.054 1.718-1.29 3.182-3.904 3.443zm-1.337-7.119v-2.961c-1.183.18-1.684.782-1.684 1.51 0 .729.688 1.17 1.657 1.451h.027zm3.095 3.843c0-.815-.735-1.196-1.731-1.483v2.947c1.183-.18 1.704-.748 1.704-1.464h.027zM221.115 102.34h-6.491v1.136h6.491v-1.136zM221.115 104.158h-6.491v.615h6.491v-.615zM214.624 102.025h6.484v-7.774h2.594l-5.836-8.021-5.835 8.021h2.593v7.774zM221.115 105.628h-6.491v.308h6.491v-.308z" fill="#00696B"/>
        <g opacity=".3" fill="#000">
            <path d="M221.115 102.34h-6.491v1.136h6.491v-1.136zM221.115 104.158h-6.491v.615h6.491v-.615zM214.624 102.025h6.484v-7.774h2.594l-5.836-8.021-5.835 8.021h2.593v7.774zM221.115 105.628h-6.491v.308h6.491v-.308z"/>
        </g>
        <path d="M142.545 91.27h-28.562a5.914 5.914 0 0 0-5.916 5.916v16.711a5.913 5.913 0 0 0 5.916 5.916h5.601l-4.679 9.291 8.69-9.291h18.984a5.913 5.913 0 0 0 5.916-5.916V97.186a5.905 5.905 0 0 0-1.745-4.195 5.922 5.922 0 0 0-4.205-1.72z" fill="#00696B"/>
        <path opacity=".7" d="M142.545 91.27h-28.562a5.914 5.914 0 0 0-5.916 5.916v16.711a5.913 5.913 0 0 0 5.916 5.916h5.601l-4.679 9.291 8.69-9.291h18.984a5.913 5.913 0 0 0 5.916-5.916V97.186a5.905 5.905 0 0 0-1.745-4.195 5.922 5.922 0 0 0-4.205-1.72z" fill="#fff"/>
        <path d="m140.807 94.92 1.244-.355-.455-2.453-1.283.114a6.82 6.82 0 0 0-1.337-2.092l.628-1.13-2.079-1.437-.835.996a6.687 6.687 0 0 0-2.44-.528l-.348-1.237-2.453.448.114 1.29a6.592 6.592 0 0 0-2.092 1.337l-1.137-.628-1.41 2.058.989.83a6.69 6.69 0 0 0-.521 2.44l-1.244.354.455 2.453 1.283-.114a6.919 6.919 0 0 0 1.337 2.092l-.628 1.13 2.052 1.41.836-.989c.772.329 1.6.506 2.439.521l.348 1.244 2.46-.455-.12-1.283a6.504 6.504 0 0 0 2.092-1.337l1.136.635 1.411-2.059-.99-.829c.333-.767.519-1.59.548-2.426zm-6.096 3.168a3.377 3.377 0 0 1-3.98-3.371 3.373 3.373 0 0 1 4.079-3.251 3.374 3.374 0 0 1 2.615 2.685 3.33 3.33 0 0 1-.533 2.532 3.35 3.35 0 0 1-2.181 1.392v.013z" fill="#00696B"/>
        <path opacity=".6" d="M122.017 104.947a4.838 4.838 0 0 0 1.504-.983l.809.454 1.016-1.477-.715-.595a4.73 4.73 0 0 0 .381-1.751l.889-.254-.328-1.765-.922.08a4.804 4.804 0 0 0-.976-1.504l.455-.808-1.478-1.016-.601.715a4.683 4.683 0 0 0-1.752-.381l-.254-.89-1.764.328.087.923a4.735 4.735 0 0 0-1.504.976l-.816-.455-1.016 1.477.715.595a4.851 4.851 0 0 0-.374 1.758l-.896.254.328 1.758.922-.08c.23.558.561 1.068.976 1.504l-.448.816 1.478 1.016.595-.716c.555.233 1.149.36 1.751.375l.254.895 1.765-.327-.081-.922zm-1.383-2.079a2.426 2.426 0 1 1 1.945-2.828 2.418 2.418 0 0 1-1.945 2.854v-.026z" fill="#00696B"/>
        <path opacity=".5" d="m136.717 109.626-.388-2.099-1.083.093a5.747 5.747 0 0 0-1.163-1.791l.541-.963-1.784-1.256-.709.849a5.625 5.625 0 0 0-2.086-.448l-.3-1.063-2.099.388.093 1.096a5.757 5.757 0 0 0-1.784 1.183l-.97-.535-1.21 1.758.849.709a5.664 5.664 0 0 0-.448 2.085l-1.062.308.387 2.099 1.103-.101a5.757 5.757 0 0 0 1.163 1.792l-.541.963 1.758 1.209.709-.849a5.655 5.655 0 0 0 2.092.448l.301 1.063 2.098-.388-.1-1.096a5.595 5.595 0 0 0 1.792-1.17l.969.542 1.21-1.758-.849-.709a5.807 5.807 0 0 0 .448-2.092l1.063-.267zm-6.277 3.014a2.88 2.88 0 0 1-1.67-.185 2.88 2.88 0 0 1-1.748-2.697 2.885 2.885 0 0 1 3.503-2.777 2.882 2.882 0 0 1 2.228 2.317 2.899 2.899 0 0 1-2.313 3.316v.026z" fill="#00696B"/>
        <path d="M278.388 224.706s-.308-17.239 7.807-24.987c8.115-7.747-5.748-1.216-8.77 6.919 0 0 .802-15.428 9.038-24.8 8.235-9.371-5.034-2.934-8.115 7.768 0 0 .668-13.77 4.986-20.722 4.318-6.952-1.591-3.095-4.405 1.256-2.814 4.352-2.567 16.524-2.567 16.524s-.802-22.573-5.835-21.758c-5.034.816 3.97 17.24 4.178 24.92 0 0-3.637-10.982-8.236-9.732s5.916 4.345 7.975 20.053l.381 7.259s-3.209-10.768-7.139-8.322c-3.931 2.447 8.262 10.321 8.476 25.742l2.226-.12z" fill="#00696B"/>
        <path opacity=".2" d="M278.388 224.706s-.308-17.239 7.807-24.987c8.115-7.747-5.748-1.216-8.77 6.919 0 0 .802-15.428 9.038-24.8 8.235-9.371-5.034-2.934-8.115 7.768 0 0 .668-13.77 4.986-20.722 4.318-6.952-1.591-3.095-4.405 1.256-2.814 4.352-2.567 16.524-2.567 16.524s-.802-22.573-5.835-21.758c-5.034.816 3.97 17.24 4.178 24.92 0 0-3.637-10.982-8.236-9.732s5.916 4.345 7.975 20.053l.381 7.259s-3.209-10.768-7.139-8.322c-3.931 2.447 8.262 10.321 8.476 25.742l2.226-.12z" fill="#000"/>
        <path d="M268.301 241.865h20.662l2.747-20.094h-26.157l2.748 20.094z" fill="#263238"/>
        <path opacity=".2" d="M268.301 241.865h20.662l2.747-20.094h-26.157l2.748 20.094z" fill="#fff"/>
        <path d="M277.779 223.931s2.166-13.804-3.489-20.916c-5.655-7.113 4.746-.341 6.27 6.517 0 0 1.063-12.466-4.499-20.902-5.561-8.436 4.359-1.798 5.649 7.132 0 0 .976-11.123-1.705-17.206-2.68-6.083 1.618-2.306 3.396 1.497 1.778 3.804.234 13.55.234 13.55s3.142-18.048 7.086-16.818c3.943 1.23-5.087 13.369-6.11 19.539 0 0 4.138-8.416 7.694-6.899 3.556 1.518-5.234 2.834-8.63 15.227l-1.116 5.789s3.777-8.289 6.684-5.889c2.908 2.4-7.78 7.353-9.659 19.719l-1.805-.34z" fill="#00696B"/>
        <path d="M294.297 220.14v1.912a2.32 2.32 0 0 1-.676 1.638 2.301 2.301 0 0 1-1.637.675h-26.965a2.303 2.303 0 0 1-1.64-.675 2.327 2.327 0 0 1-.68-1.638v-1.912h31.598z" fill="#263238"/>
        <path d="M59.09 220.842h-.635c0-.936.782-23.028 4.625-26.738 3.95-3.843 8.597-.06 8.637 0l-.401.488c-.174-.147-4.252-3.462-7.795 0-3.663 3.483-4.425 25.996-4.431 26.25z" fill="#00696B"/>
        <path d="m58.775 225.267-.635-.06c0-.267 2.487-26.818-7.132-37.854l.475-.414c9.8 11.25 7.313 38.068 7.292 38.328z" fill="#00696B"/>
        <path d="M59.076 222.44c-.08-1.25-1.932-30.749 5.461-37.56l.428.461c-7.172 6.598-5.28 36.765-5.26 37.059l-.629.04zM58.14 222.42c0-.201-.227-20.054-5.488-23.042a3.356 3.356 0 0 0-3.061-.314c-3.082 1.277-4.72 7.159-4.74 7.219l-.608-.167c.074-.254 1.738-6.243 5.107-7.633a3.952 3.952 0 0 1 3.617.347c5.568 3.189 5.802 22.728 5.808 23.59h-.635z" fill="#00696B"/>
        <path d="M60.306 222.44c-.04-.669-.849-15.675 3.41-21.237 1.136-1.477 2.392-2.179 3.756-2.085 3.028.214 5.348 4.318 5.475 4.492l-.549.307c0-.04-2.286-4.011-4.973-4.171-1.13-.08-2.212.541-3.208 1.838-4.118 5.381-3.29 20.662-3.282 20.816l-.629.04z" fill="#00696B"/>
        <path d="m59.457 224.519-.628-.047c0-.361 2.674-36.183-1.738-42.152l.508-.381c4.559 6.163 1.972 41.096 1.858 42.58zM48.127 202.045s2.727 1.003 1.918 3.383c-.808 2.379-9.445 6.283-9.445 6.283s-3.616-3.342-.294-8.69c3.322-5.347 7.748-2.673 7.821-.976z" fill="#00696B"/>
        <path opacity=".2" d="M48.127 202.045s2.727 1.003 1.918 3.383c-.808 2.379-9.445 6.283-9.445 6.283s-3.616-3.342-.294-8.69c3.322-5.347 7.748-2.673 7.821-.976z" fill="#000"/>
        <path d="M59.992 197.52s-2.908-.12-3.075 2.386c-.167 2.507 6.297 9.432 6.297 9.432s4.612-1.664 3.623-7.914c-.99-6.25-6.123-5.441-6.845-3.904z" fill="#00696B"/>
        <path opacity=".2" d="M59.992 197.52s-2.908-.12-3.075 2.386c-.167 2.507 6.297 9.432 6.297 9.432s4.612-1.664 3.623-7.914c-.99-6.25-6.123-5.441-6.845-3.904z" fill="#000"/>
        <path d="M62.452 185.535s-1.939-.207-1.785-1.391c.154-1.183 7.534-4.217 11.885.669 0 0-2.787 4.786-6.811 4.846-4.024.06-3.29-4.124-3.29-4.124z" fill="#00696B"/>
        <path opacity=".2" d="M62.452 185.535s-1.939-.207-1.785-1.391c.154-1.183 7.534-4.217 11.885.669 0 0-2.787 4.786-6.811 4.846-4.024.06-3.29-4.124-3.29-4.124z" fill="#000"/>
        <path d="M58.842 182.667s1.752.849 2.246-.234c.495-1.083-4.164-7.567-10.454-5.702 0 0-.167 5.542 3.222 7.721 3.389 2.179 4.986-1.785 4.986-1.785z" fill="#00696B"/>
        <path opacity=".2" d="M58.842 182.667s1.752.849 2.246-.234c.495-1.083-4.164-7.567-10.454-5.702 0 0-.167 5.542 3.222 7.721 3.389 2.179 4.986-1.785 4.986-1.785z" fill="#000"/>
        <path d="M68.013 201.09s-1.337-1.077.107-1.605 8.523-.381 8.597 6.638c0 0-8.242 1.37-9.265-1.303-1.023-2.674.561-3.73.561-3.73z" fill="#00696B"/>
        <path opacity=".2" d="M68.013 201.09s-1.337-1.077.107-1.605 8.523-.381 8.597 6.638c0 0-8.242 1.37-9.265-1.303-1.023-2.674.561-3.73.561-3.73z" fill="#000"/>
        <path d="M51.195 185.354s1.337-1.076-.107-1.604-8.523-.374-8.596 6.638c0 0 8.249 1.37 9.271-1.304 1.023-2.674-.568-3.73-.568-3.73z" fill="#00696B"/>
        <path opacity=".2" d="M51.195 185.354s1.337-1.076-.107-1.604-8.523-.374-8.596 6.638c0 0 8.249 1.37 9.271-1.304 1.023-2.674-.568-3.73-.568-3.73z" fill="#000"/>
        <path d="M55.553 191.009s.12-1.337-.935-.802c-1.056.535-4.753 4.499-.93 8.282 0 0 5.154-3.817 4.225-5.802-.929-1.985-2.36-1.678-2.36-1.678z" fill="#00696B"/>
        <path opacity=".2" d="M55.553 191.009s.12-1.337-.935-.802c-1.056.535-4.753 4.499-.93 8.282 0 0 5.154-3.817 4.225-5.802-.929-1.985-2.36-1.678-2.36-1.678z" fill="#000"/>
        <path d="M69.21 192.881s-.802-1.049.374-1.183c1.177-.134 6.417 1.277 5.194 6.511 0 0-6.39-.482-6.684-2.674-.294-2.193 1.116-2.654 1.116-2.654z" fill="#00696B"/>
        <path opacity=".2" d="M69.21 192.881s-.802-1.049.374-1.183c1.177-.134 6.417 1.277 5.194 6.511 0 0-6.39-.482-6.684-2.674-.294-2.193 1.116-2.654 1.116-2.654z" fill="#000"/>
        <path d="M48.602 241.865H69.27l2.747-20.094H45.854l2.748 20.094z" fill="#263238"/>
        <path opacity=".2" d="M48.602 241.865H69.27l2.747-20.094H45.854l2.748 20.094z" fill="#fff"/>
        <path d="M74.604 220.14v1.912a2.314 2.314 0 0 1-2.313 2.313H45.32a2.307 2.307 0 0 1-2.143-1.426 2.315 2.315 0 0 1-.177-.887v-1.912h31.604z" fill="#263238"/>
    </g>
    <defs>
        <clipPath id="afg96r0ura">
            <path fill="#fff" transform="translate(.888)" d="M0 0h334.225v250H0z"/>
        </clipPath>
    </defs>
</svg>
