<svg width="199" height="140" viewBox="0 0 199 140" fill="none" xmlns="http://www.w3.org/2000/svg">
<g clip-path="url(#clip0_1144_3671)">
<path d="M101.63 139.703C107.605 139.703 112.449 134.86 112.449 128.885C112.449 122.909 107.605 118.066 101.63 118.066C95.6548 118.066 90.811 122.909 90.811 128.885C90.811 134.86 95.6548 139.703 101.63 139.703Z" fill="#302B6E"/>
<path d="M166.262 139.096C172.314 137.278 178.749 135.382 183.549 131.061C187.838 127.2 190.734 121.303 188.957 115.512C187.184 109.733 181.872 105.88 176.388 103.963C173.278 102.876 170.024 102.273 166.771 101.799C163.235 101.284 159.683 100.862 156.133 100.456C141.759 98.8123 127.33 97.808 112.848 97.4434C105.701 97.2634 98.5566 97.2678 91.4095 97.3715C85.0265 97.4642 78.3041 97.4619 72.3828 94.749C67.7781 92.6394 63.5989 88.8013 62.3158 83.7577C60.8348 77.9356 63.5666 72.0067 67.4853 67.7901C69.5509 65.5676 71.965 63.6969 74.4555 61.9768C77.1572 60.1108 79.9531 58.3769 82.8096 56.7584C88.4356 53.5722 94.3175 50.8606 100.394 48.6517C103.392 47.5617 106.434 46.6214 109.502 45.7538C112.094 45.0213 114.693 44.2877 117.197 43.2896C122.038 41.3602 126.642 38.0919 127.873 32.7339C129.04 27.6558 127.073 22.1431 123.625 18.3707C119.635 14.0063 113.62 12.093 107.853 11.7835C101.378 11.4359 95.053 13.0563 88.9676 15.1128C82.4771 17.3062 76.1265 19.8282 69.4989 21.6048C62.9267 23.3648 56.2274 24.6102 49.4617 25.3294C46.1497 25.6821 42.7375 26.0803 39.4058 25.8103C36.6135 25.5841 33.8355 24.7629 31.7776 22.7812C30.0131 21.082 28.9619 18.7467 29.3233 16.2823C29.389 15.8347 30.0689 16.025 30.0037 16.4699C29.5638 19.4697 31.603 22.2341 34.1158 23.6501C37.02 25.2866 40.5539 25.2888 43.7873 25.1017C50.7981 24.6782 57.7614 23.6716 64.6051 22.0923C71.3298 20.5563 77.8143 18.3606 84.2915 16.0151C90.4431 13.7875 96.7323 11.6134 103.304 11.1309C109.007 10.7122 115.005 11.543 119.973 14.5231C124.339 17.1421 127.55 21.5099 128.573 26.522C129.573 31.4198 128.188 36.3495 124.481 39.7673C120.642 43.3061 115.379 44.819 110.473 46.2124C104.252 47.9797 98.1642 50.0456 92.2714 52.7279C86.2984 55.4391 80.5699 58.6597 75.1495 62.3538C69.9174 65.9293 64.7539 70.4281 63.0992 76.8066C62.3283 79.7778 62.4707 82.9291 63.7604 85.7355C64.9072 88.2309 66.7959 90.3299 68.9962 91.9489C74.2458 95.8118 80.8622 96.6049 87.2033 96.6838C94.3252 96.7724 101.447 96.532 108.572 96.649C123.09 96.8873 137.58 97.771 152.039 99.3002C155.662 99.6837 159.281 100.108 162.895 100.572C166.146 100.99 169.407 101.405 172.603 102.146C178.286 103.465 183.816 106.002 187.348 110.82C188.915 112.908 189.887 115.383 190.158 117.98C190.405 120.691 189.741 123.406 188.516 125.817C185.804 131.154 180.723 134.548 175.328 136.778C172.438 137.973 169.441 138.877 166.449 139.776C166.013 139.907 165.827 139.226 166.262 139.096L166.262 139.096Z" fill="#F2F2F2"/>
<path d="M29.7791 21.9903C32.8965 21.9903 35.4237 19.4632 35.4237 16.3457C35.4237 13.2283 32.8965 10.7012 29.7791 10.7012C26.6617 10.7012 24.1345 13.2283 24.1345 16.3457C24.1345 19.4632 26.6617 21.9903 29.7791 21.9903Z" fill="#F2F2F2"/>
<path d="M68.9383 32.6915C72.0557 32.6915 74.5829 30.1643 74.5829 27.0469C74.5829 23.9295 72.0557 21.4023 68.9383 21.4023C65.8209 21.4023 63.2937 23.9295 63.2937 27.0469C63.2937 30.1643 65.8209 32.6915 68.9383 32.6915Z" fill="#F2F2F2"/>
<path d="M102.1 11.2892C105.218 11.2892 107.745 8.76199 107.745 5.64458C107.745 2.52716 105.218 0 102.1 0C98.9827 0 96.4556 2.52716 96.4556 5.64458C96.4556 8.76199 98.9827 11.2892 102.1 11.2892Z" fill="#F2F2F2"/>
<path d="M122.797 35.2786C125.914 35.2786 128.441 32.7514 128.441 29.634C128.441 26.5166 125.914 23.9894 122.797 23.9894C119.68 23.9894 117.152 26.5166 117.152 29.634C117.152 32.7514 119.68 35.2786 122.797 35.2786Z" fill="#F2F2F2"/>
<path d="M94.8091 63.0311C97.9265 63.0311 100.454 60.5039 100.454 57.3865C100.454 54.2691 97.9265 51.7419 94.8091 51.7419C91.6917 51.7419 89.1646 54.2691 89.1646 57.3865C89.1646 60.5039 91.6917 63.0311 94.8091 63.0311Z" fill="#F2F2F2"/>
<path d="M59.2955 76.437C62.4129 76.437 64.94 73.9098 64.94 70.7924C64.94 67.675 62.4129 65.1478 59.2955 65.1478C56.178 65.1478 53.6509 67.675 53.6509 70.7924C53.6509 73.9098 56.178 76.437 59.2955 76.437Z" fill="#F2F2F2"/>
<path d="M96.9258 97.369C100.043 97.369 102.57 94.8418 102.57 91.7244C102.57 88.607 100.043 86.0798 96.9258 86.0798C93.8084 86.0798 91.2812 88.607 91.2812 91.7244C91.2812 94.8418 93.8084 97.369 96.9258 97.369Z" fill="#F2F2F2"/>
<path d="M137.379 109.129C140.496 109.129 143.023 106.601 143.023 103.484C143.023 100.367 140.496 97.8394 137.379 97.8394C134.261 97.8394 131.734 100.367 131.734 103.484C131.734 106.601 134.261 109.129 137.379 109.129Z" fill="#F2F2F2"/>
<path d="M184.652 106.541C187.77 106.541 190.297 104.014 190.297 100.897C190.297 97.7794 187.77 95.2523 184.652 95.2523C181.535 95.2523 179.008 97.7794 179.008 100.897C179.008 104.014 181.535 106.541 184.652 106.541Z" fill="#F2F2F2"/>
<path d="M100.471 15.9938C83.5625 16.1132 69.7182 29.8536 69.478 46.7606C69.4758 46.9167 69.4747 48.0143 69.4749 49.4498C69.475 51.5546 70.3111 53.5732 71.7994 55.0616C73.2877 56.55 75.3063 57.3863 77.4111 57.3866H77.4111C78.4545 57.3863 79.4877 57.1805 80.4515 56.7809C81.4153 56.3812 82.2909 55.7955 83.0283 55.0573C83.7657 54.3192 84.3504 53.4429 84.749 52.4786C85.1476 51.5144 85.3523 50.481 85.3514 49.4376C85.3506 48.4611 85.3501 47.7852 85.3501 47.7437C85.3496 45.1308 86.0293 42.5627 87.3223 40.2921C88.6153 38.0215 90.4771 36.1265 92.7246 34.7937C94.972 33.4609 97.5278 32.7361 100.14 32.6906C102.753 32.6451 105.332 33.2805 107.625 34.5342C109.917 35.788 111.844 37.6169 113.215 39.8411C114.587 42.0653 115.355 44.6082 115.446 47.2196C115.536 49.831 114.945 52.421 113.731 54.7347C112.517 57.0485 110.721 59.0063 108.521 60.4157L108.524 60.419C108.524 60.419 97.2281 67.691 93.7843 77.6668L93.7873 77.6675C93.1817 79.7112 92.8749 81.8316 92.8762 83.9631C92.8762 84.8393 92.9278 92.5056 93.0274 98.7278C93.0622 100.875 93.9396 102.922 95.4704 104.428C97.0011 105.933 99.0625 106.777 101.21 106.777H101.21C102.289 106.777 103.357 106.563 104.353 106.149C105.349 105.734 106.254 105.127 107.014 104.362C107.775 103.596 108.376 102.688 108.785 101.69C109.193 100.691 109.4 99.6213 109.393 98.5424C109.358 92.844 109.34 86.2086 109.34 85.727C109.34 79.6016 115.249 73.4984 120.103 69.5183C125.692 64.9352 129.715 58.6894 131.33 51.644C131.688 50.1935 131.885 48.7081 131.918 47.2146C131.918 43.0955 131.103 39.0172 129.52 35.2145C127.937 31.4118 125.617 27.96 122.693 25.058C119.77 22.1559 116.302 19.8609 112.488 18.3053C108.674 16.7496 104.59 15.964 100.471 15.9938Z" fill="#302B6E"/>
<path d="M198.55 140H0.450126C0.375996 140 0.304977 139.97 0.252635 139.918C0.200293 139.865 0.170898 139.794 0.170898 139.72C0.170898 139.646 0.200293 139.575 0.252635 139.522C0.304977 139.47 0.375996 139.44 0.450126 139.44H198.55C198.624 139.44 198.695 139.469 198.748 139.522C198.8 139.574 198.83 139.646 198.83 139.72C198.83 139.794 198.8 139.865 198.748 139.918C198.695 139.971 198.624 140 198.55 140Z" fill="#3F3D56"/>
<path d="M147.976 64.2061C151.872 64.2061 155.031 61.0472 155.031 57.1504C155.031 53.2536 151.872 50.0947 147.976 50.0947C144.079 50.0947 140.92 53.2536 140.92 57.1504C140.92 61.0472 144.079 64.2061 147.976 64.2061Z" fill="#2F2E41"/>
<path d="M134.937 136.911H132.054L130.682 125.79H134.938L134.937 136.911Z" fill="#A0616A"/>
<path d="M129.994 136.087H135.555V139.589H126.493C126.493 139.129 126.584 138.674 126.76 138.249C126.936 137.824 127.194 137.438 127.519 137.113C127.844 136.788 128.23 136.53 128.655 136.354C129.079 136.178 129.535 136.087 129.994 136.087Z" fill="#2F2E41"/>
<path d="M157.28 136.911H154.397L153.025 125.79H157.281L157.28 136.911Z" fill="#A0616A"/>
<path d="M152.337 136.087H157.898V139.589H148.836C148.836 139.129 148.927 138.674 149.103 138.249C149.279 137.824 149.537 137.438 149.862 137.113C150.187 136.788 150.573 136.53 150.998 136.354C151.422 136.178 151.878 136.087 152.337 136.087Z" fill="#2F2E41"/>
<path d="M146.903 64.2473C150.094 64.2473 152.68 61.6611 152.68 58.4708C152.68 55.2805 150.094 52.6943 146.903 52.6943C143.713 52.6943 141.127 55.2805 141.127 58.4708C141.127 61.6611 143.713 64.2473 146.903 64.2473Z" fill="#A0616A"/>
<path d="M150.346 82.8826L152.931 76.944C153.559 75.5509 153.739 73.9973 153.446 72.4976C153.153 70.9979 152.402 69.626 151.296 68.5712C151.069 68.3468 150.828 68.137 150.574 67.9433C149.299 66.9456 147.727 66.4018 146.108 66.3981C145.019 66.4023 143.944 66.6414 142.957 67.0989C142.872 67.1366 142.79 67.1766 142.705 67.2165C142.543 67.2942 142.383 67.3788 142.227 67.4658C141.215 68.0472 140.353 68.8584 139.712 69.834C139.07 70.8095 138.667 71.9222 138.535 73.0822L137.394 82.6403C137.107 83.3906 126.872 110.485 130.451 131.17C130.49 131.39 130.597 131.593 130.759 131.749C130.921 131.904 131.128 132.004 131.35 132.033L134.979 132.527C135.244 132.563 135.513 132.497 135.731 132.343C135.95 132.189 136.102 131.958 136.157 131.696L142.246 102.672C142.284 102.491 142.382 102.329 142.523 102.21C142.664 102.092 142.84 102.024 143.025 102.018C143.209 102.011 143.39 102.067 143.539 102.176C143.687 102.285 143.795 102.44 143.846 102.617L152.449 133.141C152.51 133.362 152.642 133.558 152.826 133.697C153.009 133.837 153.232 133.912 153.462 133.912C153.531 133.912 153.6 133.905 153.667 133.893L158.1 133.039C158.358 132.991 158.589 132.848 158.747 132.639C158.904 132.43 158.979 132.169 158.954 131.908C158.303 124.643 154.841 88.252 150.346 82.8826Z" fill="#2F2E41"/>
<path d="M124.454 63.278C124.414 63.6214 124.45 63.9695 124.559 64.2976C124.668 64.6257 124.847 64.926 125.085 65.1772C125.322 65.4284 125.612 65.6245 125.934 65.7516C126.255 65.8787 126.601 65.9338 126.946 65.913L130.175 73.6725L132.617 70.0519L129.177 63.2384C129.103 62.6609 128.82 62.1305 128.382 61.7475C127.944 61.3646 127.38 61.1558 126.798 61.1607C126.216 61.1656 125.656 61.3838 125.224 61.774C124.792 62.1643 124.518 62.6994 124.454 63.278L124.454 63.278Z" fill="#A0616A"/>
<path d="M146.583 90.6957C146.926 90.6547 147.256 90.5389 147.55 90.3565C147.844 90.1741 148.094 89.9295 148.283 89.6399C148.472 89.3503 148.595 89.0229 148.644 88.6806C148.693 88.3383 148.666 87.9895 148.565 87.6587L155.358 82.7106L151.268 81.179L145.444 86.1126C144.9 86.3186 144.45 86.7171 144.179 87.2327C143.909 87.7483 143.838 88.3451 143.978 88.91C144.118 89.475 144.461 89.9688 144.941 90.2979C145.421 90.627 146.005 90.7686 146.583 90.6957Z" fill="#A0616A"/>
<path d="M135.508 78.8456C135.248 78.8453 134.988 78.8197 134.732 78.7691C134.114 78.6515 133.535 78.3837 133.045 77.9893C132.555 77.5949 132.169 77.086 131.922 76.5075L127.399 70.9915C127.303 70.8749 127.233 70.7392 127.195 70.5935C127.156 70.4478 127.148 70.2954 127.173 70.1466C127.198 69.9979 127.254 69.8561 127.338 69.7308C127.422 69.6056 127.532 69.4997 127.66 69.4203L130.878 67.4281C130.997 67.3545 131.13 67.3052 131.267 67.283C131.405 67.2608 131.546 67.2661 131.682 67.2987C131.818 67.3313 131.946 67.3905 132.059 67.4728C132.172 67.5552 132.268 67.6591 132.34 67.7785L135.529 73.0313L141.634 68.5188C142.121 68.2639 142.682 68.1924 143.217 68.3174C143.751 68.4424 144.223 68.7555 144.546 69.1995C144.868 69.6436 145.021 70.1889 144.974 70.7359C144.928 71.2829 144.687 71.795 144.294 72.1787L138.2 77.7379C137.484 78.4477 136.516 78.8459 135.508 78.8456Z" fill="#2F2E41"/>
<path d="M152.007 87.1413C151.999 87.1413 151.99 87.1414 151.982 87.1411C151.834 87.1375 151.688 87.1028 151.554 87.0391C151.419 86.9755 151.3 86.8844 151.203 86.7718L148.342 83.4336C148.245 83.32 148.172 83.1869 148.13 83.0432C148.088 82.8996 148.077 82.7486 148.097 82.6002C148.118 82.4519 148.169 82.3096 148.249 82.1827C148.328 82.0559 148.434 81.9473 148.558 81.8642L153.916 78.2923L149.062 72.4566C148.78 71.9859 148.677 71.4293 148.771 70.8885C148.865 70.3477 149.15 69.8588 149.575 69.5112C150 69.1636 150.536 68.9804 151.084 68.9951C151.633 69.0098 152.158 69.2215 152.564 69.5914L158.463 75.3565C158.928 75.7807 159.282 76.3112 159.496 76.9025C159.71 77.4938 159.778 78.1282 159.693 78.7513C159.608 79.3744 159.373 79.9676 159.008 80.4799C158.643 80.9922 158.16 81.4084 157.599 81.6927L152.777 86.809C152.678 86.9139 152.559 86.9975 152.426 87.0546C152.294 87.1117 152.151 87.1413 152.007 87.1413Z" fill="#2F2E41"/>
<path d="M145.435 74.8411C145.389 74.8411 145.343 74.8382 145.297 74.8324C145.098 74.8081 144.91 74.7273 144.755 74.5993C144.601 74.4714 144.486 74.3018 144.425 74.1106L142.274 67.5184C142.221 67.3517 142.229 67.1712 142.298 67.0101C142.367 66.8491 142.492 66.7185 142.649 66.6424L142.719 66.6094C142.782 66.5793 142.845 66.5496 142.909 66.5211C143.912 66.0561 145.003 65.8136 146.108 65.8101C147.543 65.8128 148.946 66.2343 150.144 67.0229C150.305 67.1299 150.417 67.2957 150.457 67.4846C150.497 67.6735 150.461 67.8704 150.356 68.0329L146.323 74.352C146.228 74.502 146.097 74.6256 145.942 74.7112C145.786 74.7967 145.612 74.8414 145.435 74.8411Z" fill="#E6E6E6"/>
<path d="M153.538 54.0005C154.813 54.0005 155.847 52.9668 155.847 51.6917C155.847 50.4166 154.813 49.3829 153.538 49.3829C152.263 49.3829 151.229 50.4166 151.229 51.6917C151.229 52.9668 152.263 54.0005 153.538 54.0005Z" fill="#2F2E41"/>
<path d="M145.624 49.1539C144.002 49.1539 142.446 49.7982 141.3 50.945C140.153 52.0917 139.509 53.6471 139.509 55.2689V57.856H142.691L144.212 55.2689L144.669 57.856H154.326L151.738 55.2689C151.738 53.6471 151.094 52.0917 149.947 50.945C148.801 49.7982 147.245 49.1539 145.624 49.1539Z" fill="#2F2E41"/>
<path d="M154.725 50.1102C154.98 49.3118 155.509 48.6291 156.218 48.1819C156.927 47.7347 157.771 47.5518 158.601 47.6653C160.072 47.9112 161.236 49.0939 161.929 50.4149C162.622 51.7358 162.942 53.2142 163.408 54.6314C163.874 56.0485 164.535 57.4733 165.711 58.3907C166.888 59.308 168.693 59.5568 169.848 58.6132C169.716 59.5966 169.278 60.5137 168.597 61.2347C167.915 61.9557 167.024 62.4441 166.049 62.6308C165.075 62.8176 164.066 62.6932 163.166 62.2753C162.266 61.8574 161.52 61.1671 161.034 60.3021C160.424 59.2175 160.267 57.9463 160.086 56.7152C159.905 55.4842 159.67 54.2105 158.943 53.2014C158.215 52.1923 156.852 51.5332 155.696 51.9928L154.725 50.1102Z" fill="#2F2E41"/>
<path d="M79.652 53.6325C77.5472 53.6323 75.5286 52.796 74.0403 51.3076C72.552 49.8192 71.7158 47.8006 71.7157 45.6958C71.7156 44.2602 71.7166 43.1626 71.7188 43.0065C71.7857 38.0895 73.024 33.2593 75.3311 28.9166C71.5406 34.1056 69.4564 40.3443 69.3669 46.7696C69.3647 46.9257 69.3637 48.0233 69.3638 49.4588C69.3639 51.5637 70.2001 53.5823 71.6884 55.0707C73.1767 56.559 75.1952 57.3953 77.3001 57.3956C79.0297 57.3949 80.7118 56.8297 82.0909 55.7859C83.47 54.742 84.4707 53.2765 84.9409 51.6121C83.4877 52.9152 81.6039 53.6349 79.652 53.6325Z" fill="#3F3D56"/>
<path d="M101.009 32.7172C103.442 32.8334 105.811 33.5384 107.912 34.7718C110.013 36.0051 111.783 37.7299 113.07 39.7981C114.357 41.8662 115.124 44.2159 115.303 46.6454C115.482 49.0749 115.069 51.5116 114.099 53.7463C115.502 52.0987 116.533 50.168 117.122 48.0857C117.711 46.0035 117.845 43.8188 117.513 41.6804C117.181 39.542 116.392 37.5004 115.2 35.6946C114.007 33.8888 112.439 32.3613 110.603 31.2164C108.767 30.0714 106.706 29.3358 104.559 29.0598C102.413 28.7838 100.232 28.9738 98.1662 29.6168C96.1 30.2599 94.1968 31.341 92.5863 32.7863C90.9758 34.2316 89.6958 36.0072 88.8337 37.992C90.3237 36.2392 92.1964 34.852 94.3073 33.9375C96.4182 33.0229 98.711 32.6054 101.009 32.7172Z" fill="#3F3D56"/>
<path d="M103.45 103.023C101.303 103.023 99.2419 102.179 97.7112 100.674C96.1805 99.1679 95.303 97.1207 95.2682 94.9738C95.1686 88.7515 95.117 81.0852 95.117 80.2091C95.1157 78.0776 95.4225 75.9571 96.0281 73.9135L96.0252 73.9128C96.3828 72.887 96.8147 71.8887 97.3174 70.9257C95.7741 72.9822 94.546 75.2573 93.6733 77.6758L93.6762 77.6765C93.0706 79.7202 92.7638 81.8407 92.7651 83.9721C92.7651 84.8483 92.8167 92.5146 92.9163 98.7368C92.9511 100.884 93.8286 102.931 95.3593 104.437C96.89 105.942 98.9513 106.786 101.099 106.786C102.869 106.785 104.592 106.211 106.008 105.149C107.424 104.087 108.458 102.594 108.954 100.894C107.45 102.266 105.486 103.025 103.45 103.023Z" fill="#3F3D56"/>
<path d="M29.9314 137.019L32.8146 137.018L34.1864 125.897L29.9307 125.897L29.9314 137.019Z" fill="#FFB8B8"/>
<path d="M38.3757 139.696L29.3137 139.696L29.3135 136.195L34.8743 136.195C35.8029 136.195 36.6935 136.563 37.3501 137.22C38.0068 137.877 38.3757 138.767 38.3757 139.696L38.3757 139.696Z" fill="#2F2E41"/>
<path d="M19.583 137.019L22.4662 137.018L23.8381 125.897L19.5823 125.897L19.583 137.019Z" fill="#FFB8B8"/>
<path d="M28.0273 139.696L18.9653 139.696L18.9651 136.195L24.5259 136.195C25.4545 136.195 26.3451 136.563 27.0017 137.22C27.6584 137.877 28.0273 138.767 28.0273 139.696L28.0273 139.696Z" fill="#2F2E41"/>
<path d="M22.1027 133.598L19.2863 133.45C19.1411 133.442 18.9988 133.406 18.8678 133.343C18.7367 133.28 18.6194 133.192 18.5228 133.083C18.4261 132.974 18.352 132.847 18.3047 132.71C18.2574 132.572 18.2378 132.427 18.2471 132.282L21.6133 95.012L37.115 99.195L38.6085 98.7876L33.938 131.781C33.8982 132.029 33.775 132.257 33.5886 132.425C33.4023 132.594 33.1639 132.694 32.913 132.709L29.877 132.85C29.7252 132.859 29.5733 132.836 29.4309 132.782C29.2885 132.729 29.1586 132.647 29.0496 132.541C28.9406 132.435 28.8548 132.307 28.7976 132.167C28.7403 132.026 28.713 131.875 28.7171 131.723L29.2672 111.92C29.2698 111.829 29.238 111.74 29.1781 111.67C29.1181 111.601 29.0344 111.557 28.9434 111.546C28.8525 111.535 28.7608 111.559 28.6865 111.613C28.6122 111.667 28.5607 111.746 28.5421 111.836L23.2369 132.724C23.1869 132.971 23.0524 133.194 22.8564 133.354C22.6605 133.514 22.4151 133.601 22.1623 133.6C22.1426 133.6 22.1227 133.599 22.1027 133.598Z" fill="#2F2E41"/>
<path d="M30.4491 64.5175C33.6394 64.5175 36.2257 61.9312 36.2257 58.7409C36.2257 55.5507 33.6394 52.9644 30.4491 52.9644C27.2588 52.9644 24.6726 55.5507 24.6726 58.7409C24.6726 61.9312 27.2588 64.5175 30.4491 64.5175Z" fill="#FFB8B8"/>
<path d="M20.8317 75.7121L21.4668 89.416L21.6964 94.4017C21.7056 94.6188 21.7792 94.8281 21.9081 95.0031C22.0369 95.178 22.2149 95.3106 22.4195 95.3837L37.3155 100.78C37.4358 100.825 37.5633 100.847 37.6917 100.846C37.8384 100.846 37.9838 100.818 38.1191 100.761C38.2544 100.704 38.3769 100.621 38.4793 100.516C38.5817 100.411 38.6618 100.286 38.715 100.149C38.7681 100.012 38.7931 99.8663 38.7886 99.7196L38.1779 75.0794C38.1377 73.0578 37.3936 71.1135 36.0736 69.5818C34.7537 68.05 32.9407 67.0268 30.9472 66.6884C30.8031 66.6665 30.6566 66.6445 30.51 66.6249C29.2738 66.4715 28.0191 66.5908 26.834 66.9744C25.6489 67.358 24.5623 67.9967 23.6506 68.8454C22.7066 69.7137 21.9648 70.7788 21.4777 71.9653C20.9905 73.1518 20.77 74.4309 20.8317 75.712L20.8317 75.7121Z" fill="#CCCCCC"/>
<path d="M44.4313 98.0453C44.079 97.936 43.7571 97.7458 43.4913 97.49C43.2256 97.2342 43.0233 96.9198 42.9006 96.5719C42.7779 96.224 42.7383 95.8522 42.7848 95.4863C42.8314 95.1203 42.9628 94.7703 43.1686 94.4642L38.1172 87.7471L42.4763 87.4774L46.6049 93.8973C47.0469 94.2391 47.3545 94.7255 47.4736 95.2713C47.5928 95.8172 47.516 96.3875 47.2567 96.8824C46.9974 97.3773 46.5721 97.765 46.0555 97.9777C45.5389 98.1903 44.9638 98.2143 44.4313 98.0453H44.4313Z" fill="#FFB8B8"/>
<path d="M40.8797 93.2487C40.7459 93.1944 40.6241 93.114 40.5215 93.0124C40.419 92.9107 40.3376 92.7897 40.282 92.6564L32.6717 74.5245C32.5224 74.1695 32.4445 73.7885 32.4424 73.4034C32.4404 73.0183 32.5143 72.6365 32.6599 72.28C32.8054 71.9234 33.0198 71.599 33.2908 71.3254C33.5618 71.0517 33.8841 70.8341 34.2392 70.6851C34.5943 70.536 34.9754 70.4584 35.3605 70.4567C35.7456 70.455 36.1273 70.5291 36.4838 70.675C36.8402 70.8208 37.1644 71.0355 37.4379 71.3067C37.7113 71.5779 37.9286 71.9004 38.0774 72.2556L45.6877 90.3877C45.8002 90.6566 45.8015 90.959 45.6912 91.2288C45.581 91.4986 45.3682 91.7136 45.0997 91.8267L41.721 93.2446C41.588 93.3009 41.4452 93.3303 41.3008 93.331C41.1563 93.3317 41.0132 93.3037 40.8797 93.2487L40.8797 93.2487Z" fill="#CCCCCC"/>
<path d="M28.5919 92.6091L35.9015 78.6132C36.0424 78.344 36.2844 78.1417 36.5743 78.0508C36.8642 77.9598 37.1783 77.9875 37.4478 78.1279L48.0576 83.669C48.3268 83.8099 48.5291 84.0519 48.62 84.3418C48.711 84.6317 48.6833 84.9459 48.5429 85.2153L41.2334 99.2113C41.0924 99.4804 40.8504 99.6827 40.5605 99.7737C40.2706 99.8646 39.9565 99.8369 39.687 99.6966L29.0772 94.1554C28.808 94.0145 28.6058 93.7725 28.5148 93.4826C28.4238 93.1927 28.4515 92.8786 28.5919 92.6091Z" fill="#3F3D56"/>
<path d="M33.4938 86.2147C33.3639 85.8695 33.155 85.5594 32.884 85.3092C32.6129 85.059 32.2871 84.8756 31.9325 84.7737C31.578 84.6718 31.2046 84.6542 30.842 84.7222C30.4795 84.7903 30.1378 84.9421 29.8444 85.1657L22.8408 80.5197L22.8289 84.8871L29.4814 88.6295C29.8487 89.0505 30.3524 89.3288 30.9043 89.4155C31.4562 89.5023 32.0211 89.392 32.4998 89.1039C32.9785 88.8158 33.3404 88.3684 33.5222 87.8401C33.704 87.3118 33.6939 86.7363 33.4938 86.2147Z" fill="#FFB8B8"/>
<path d="M24.6391 87.1969L18.9153 82.6629C18.2961 82.455 17.7366 82.0999 17.2848 81.6282C16.8331 81.1564 16.5025 80.5821 16.3216 79.9545C16.1406 79.3269 16.1147 78.6647 16.246 78.0249C16.3772 77.385 16.6618 76.7866 17.0753 76.281L22.2723 69.47C22.6335 69.0286 23.1414 68.732 23.7032 68.6343C24.2651 68.5367 24.8433 68.6444 25.3322 68.938C25.8211 69.2315 26.1881 69.6912 26.366 70.233C26.5439 70.7748 26.5208 71.3625 26.3011 71.8887L22.189 78.6152L28.232 81.4814C28.3725 81.5481 28.4973 81.6438 28.5981 81.7622C28.6989 81.8807 28.7734 82.0192 28.8167 82.1685C28.86 82.3179 28.8712 82.4748 28.8493 82.6288C28.8275 82.7827 28.7733 82.9303 28.6902 83.0618L26.2509 86.9223C26.1684 87.0525 26.0595 87.1641 25.9312 87.2496C25.8029 87.3351 25.6581 87.3928 25.5061 87.4188C25.5001 87.4198 25.494 87.4208 25.4879 87.4217C25.3386 87.4442 25.1862 87.4359 25.0402 87.3972C24.8942 87.3586 24.7577 87.2904 24.6391 87.1969Z" fill="#CCCCCC"/>
<path d="M26.0841 62.609C26.0593 62.5365 26.0515 62.4593 26.0611 62.3833C26.0708 62.3072 26.0977 62.2344 26.1399 62.1704C26.182 62.1065 26.2382 62.053 26.3043 62.014C26.3703 61.9751 26.4443 61.9519 26.5207 61.946C26.6772 61.9545 26.8303 61.9946 26.9708 62.0639C27.1113 62.1333 27.2363 62.2303 27.3383 62.3493C27.5473 62.5904 27.7907 62.7993 28.0606 62.9695C28.34 63.1104 28.719 63.0903 28.8783 62.8218C29.0279 62.5696 28.9254 62.2319 28.8348 61.939C28.6044 61.1938 28.4754 60.4209 28.4515 59.6412C28.4254 58.7709 28.5482 57.8627 29.03 57.1839C29.6518 56.3079 30.7637 55.9753 31.8159 55.9994C32.8682 56.0235 33.9033 56.3483 34.9456 56.5537C35.3055 56.6246 35.7284 56.6608 35.9691 56.3819C36.225 56.0854 36.131 55.6055 36.0221 55.2051C35.7397 54.1662 35.44 53.092 34.7838 52.2529C34.0742 51.381 33.0607 50.8104 31.9472 50.6559C30.8782 50.5235 29.7931 50.6467 28.781 51.0154C27.132 51.5351 25.6811 52.5459 24.6221 53.9126C23.5306 55.366 23.0589 57.1926 23.3102 58.9928C23.5558 60.5607 24.3866 61.9772 25.6353 62.9568L26.0841 62.609Z" fill="#2F2E41"/>
<path d="M99.2461 137.064C97.7093 136.395 96.349 135.378 95.2726 134.093C94.1963 132.808 93.4334 131.29 93.044 129.659C92.6547 128.029 92.6497 126.33 93.0292 124.697C93.4088 123.065 94.1627 121.542 95.2313 120.251C93.9923 121.156 92.9599 122.313 92.2026 123.648C91.4452 124.982 90.9803 126.462 90.8387 127.989C90.697 129.517 90.8819 131.057 91.3811 132.508C91.8802 133.958 92.6821 135.286 93.7337 136.403C94.7853 137.52 96.0624 138.401 97.4803 138.987C98.8982 139.572 100.424 139.85 101.958 139.801C103.491 139.751 104.996 139.377 106.374 138.701C107.751 138.026 108.969 137.065 109.947 135.883C108.422 136.997 106.632 137.693 104.754 137.9C102.877 138.108 100.978 137.819 99.2461 137.064Z" fill="#3F3D56"/>
</g>
<defs>
<clipPath id="clip0_1144_3671">
<rect width="198.66" height="140" fill="white" transform="translate(0.170166)"/>
</clipPath>
</defs>
</svg>
