<svg width="96" height="24" viewBox="0 0 96 24" fill="none" xmlns="http://www.w3.org/2000/svg">
<path d="M11.027 0V2.89946H6.97623V15.9813H4.05072V2.89946H0V0H11.027Z" fill="#302B6E"/>
<path d="M15.3737 16.1639C13.7685 16.1639 12.3957 15.5931 11.2555 14.4516C10.1303 13.2949 9.56771 11.9022 9.56771 10.2737C9.56771 8.6451 10.1303 7.26006 11.2555 6.11854C12.3957 4.9618 13.7685 4.38343 15.3737 4.38343C16.979 4.38343 18.3443 4.9618 19.4695 6.11854C20.5947 7.26006 21.1573 8.6451 21.1573 10.2737V15.9813H18.2317V14.7713C18.0667 15.1518 17.7066 15.479 17.1516 15.753C16.5965 16.0269 16.0038 16.1639 15.3737 16.1639ZM13.3259 12.4197C13.881 12.9829 14.5711 13.2644 15.3962 13.2644C16.2214 13.2644 16.904 12.9829 17.4441 12.4197C17.9842 11.8414 18.2542 11.126 18.2542 10.2737C18.2542 9.42134 17.9842 8.71359 17.4441 8.15044C16.904 7.57207 16.2214 7.28289 15.3962 7.28289C14.5711 7.28289 13.881 7.57207 13.3259 8.15044C12.7708 8.71359 12.4932 9.42134 12.4932 10.2737C12.4932 11.126 12.7708 11.8414 13.3259 12.4197Z" fill="#302B6E"/>
<path d="M32.6969 15.9813H29.3888L27.0709 12.511L24.7305 15.9813H21.3999L25.4056 10.0454L21.7374 4.56608H25.023L27.0484 7.60252L29.0962 4.56608H32.3818L28.7137 10.0454L32.6969 15.9813Z" fill="#302B6E"/>
<path d="M38.1634 20.5473C36.9932 20.5473 35.928 20.2201 34.9678 19.5656C34.0077 18.9264 33.3026 18.074 32.8525 17.0086H36.4081C36.9482 17.4348 37.5333 17.6479 38.1634 17.6479C38.9436 17.6479 39.6037 17.45 40.1438 17.0543C40.6989 16.6586 40.9764 16.1182 40.9764 15.4333V15.4105C40.1063 15.9128 39.1686 16.1639 38.1634 16.1639C36.5581 16.1639 35.1854 15.5931 34.0452 14.4516C32.92 13.2949 32.3574 11.9022 32.3574 10.2737C32.3574 8.6451 32.92 7.26006 34.0452 6.11854C35.1854 4.9618 36.5581 4.38343 38.1634 4.38343C39.7687 4.38343 41.1339 4.9618 42.2591 6.11854C43.3993 7.26006 43.9694 8.6451 43.9694 10.2737V14.6571C43.9694 16.2857 43.3993 17.6707 42.2591 18.8122C41.1339 19.969 39.7687 20.5473 38.1634 20.5473ZM36.1156 12.4197C36.6707 12.9829 37.3608 13.2644 38.1859 13.2644C39.0111 13.2644 39.6937 12.9829 40.2338 12.4197C40.7739 11.8414 41.0439 11.126 41.0439 10.2737C41.0439 9.42134 40.7739 8.71359 40.2338 8.15044C39.6937 7.57207 39.0111 7.28289 38.1859 7.28289C37.3608 7.28289 36.6707 7.57207 36.1156 8.15044C35.5605 8.71359 35.2829 9.42134 35.2829 10.2737C35.2829 11.126 35.5605 11.8414 36.1156 12.4197Z" fill="#302B6E"/>
<path d="M48.2517 15.9813H45.3262V0H48.2517V15.9813Z" fill="#302B6E"/>
<path d="M67.4059 10.2737V0H70.3539V5.25099C71.149 4.67262 72.0942 4.38343 73.1894 4.38343C74.7947 4.38343 76.1599 4.9618 77.2851 6.11854C78.4253 7.26006 78.9954 8.6451 78.9954 10.2737C78.9954 11.9022 78.4253 13.2949 77.2851 14.4516C76.1599 15.5931 74.7947 16.1639 73.1894 16.1639C71.5841 16.1639 70.2189 15.5931 69.0937 14.4516C67.9685 13.2949 67.4059 11.9022 67.4059 10.2737ZM75.2598 8.15044C74.7197 7.57207 74.0371 7.28289 73.2119 7.28289C72.3868 7.28289 71.6966 7.57207 71.1415 8.15044C70.5864 8.71359 70.3089 9.42134 70.3089 10.2737C70.3089 11.126 70.5864 11.8414 71.1415 12.4197C71.6966 12.9829 72.3868 13.2644 73.2119 13.2644C74.0371 13.2644 74.7197 12.9829 75.2598 12.4197C75.7999 11.8414 76.0699 11.126 76.0699 10.2737C76.0699 9.42134 75.7999 8.71359 75.2598 8.15044Z" fill="#302B6E"/>
<path d="M85.7139 16.1639C84.1086 16.1639 82.7359 15.5931 81.5957 14.4516C80.4705 13.2949 79.9079 11.9022 79.9079 10.2737C79.9079 8.6451 80.4705 7.26006 81.5957 6.11854C82.7359 4.9618 84.1086 4.38343 85.7139 4.38343C87.3192 4.38343 88.6844 4.9618 89.8096 6.11854C90.9348 7.26006 91.4974 8.6451 91.4974 10.2737V15.9813H88.5719V14.7713C88.4069 15.1518 88.0468 15.479 87.4917 15.753C86.9366 16.0269 86.344 16.1639 85.7139 16.1639ZM83.6661 12.4197C84.2212 12.9829 84.9113 13.2644 85.7364 13.2644C86.5616 13.2644 87.2442 12.9829 87.7843 12.4197C88.3244 11.8414 88.5944 11.126 88.5944 10.2737C88.5944 9.42134 88.3244 8.71359 87.7843 8.15044C87.2442 7.57207 86.5616 7.28289 85.7364 7.28289C84.9113 7.28289 84.2212 7.57207 83.6661 8.15044C83.111 8.71359 82.8334 9.42134 82.8334 10.2737C82.8334 11.126 83.111 11.8414 83.6661 12.4197Z" fill="#302B6E"/>
<path d="M96 15.9813H93.0745V0H96V15.9813Z" fill="#302B6E"/>
<path fill-rule="evenodd" clip-rule="evenodd" d="M51.5183 10.2397C51.5183 7.07315 54.0485 4.50618 57.1698 4.50618C60.291 4.50618 62.8213 7.07315 62.8213 10.2397C62.8213 13.4061 60.291 15.9731 57.1698 15.9731C54.0485 15.9731 51.5183 13.4061 51.5183 10.2397ZM57.1698 13.6797C55.297 13.6797 53.7789 12.1396 53.7789 10.2397C53.7789 8.33975 55.297 6.79957 57.1698 6.79957C59.0425 6.79957 60.5607 8.33975 60.5607 10.2397C60.5607 12.1396 59.0425 13.6797 57.1698 13.6797Z" fill="#302B6E"/>
<path d="M49.4235 14.9748C50.8388 17.3527 53.2879 19.0261 56.1391 19.3543V21.7066H53.7789V24H60.5607V21.7066H58.3997V19.3291C62.8118 18.7204 66.2121 14.8829 66.2121 10.2397C66.2121 8.44666 65.7051 6.77379 64.8285 5.3606L62.9027 6.5625C63.567 7.62615 63.9515 8.88734 63.9515 10.2397C63.9515 14.0395 60.9153 17.1198 57.1697 17.1198C54.6976 17.1198 52.5345 15.778 51.3493 13.773L49.4235 14.9748Z" fill="#302B6E"/>
</svg>
