<svg width="16" height="16" viewBox="0 0 16 16" fill="none" xmlns="http://www.w3.org/2000/svg">
<g clip-path="url(#clip0_320_883)">
<path d="M4.66671 14.6667H2.66671C2.31309 14.6667 1.97395 14.5262 1.7239 14.2761C1.47385 14.0261 1.33337 13.687 1.33337 13.3333V8.66666C1.33337 8.31304 1.47385 7.9739 1.7239 7.72385C1.97395 7.4738 2.31309 7.33333 2.66671 7.33333H4.66671M9.33337 6V3.33333C9.33337 2.8029 9.12266 2.29419 8.74759 1.91911C8.37252 1.54404 7.86381 1.33333 7.33337 1.33333L4.66671 7.33333V14.6667H12.1867C12.5083 14.6703 12.8203 14.5576 13.0653 14.3493C13.3103 14.1411 13.4718 13.8513 13.52 13.5333L14.44 7.53333C14.469 7.34223 14.4562 7.14712 14.4023 6.9615C14.3484 6.77588 14.2548 6.60419 14.1279 6.45834C14.0011 6.31248 13.8441 6.19595 13.6678 6.11681C13.4914 6.03766 13.3 5.99781 13.1067 6H9.33337Z" stroke="#302B6E" stroke-width="2" stroke-linecap="round" stroke-linejoin="round"/>
</g>
<defs>
<clipPath id="clip0_320_883">
<rect width="16" height="16" fill="white"/>
</clipPath>
</defs>
</svg>
