<svg width="48" height="48" viewBox="0 0 48 48" fill="none" xmlns="http://www.w3.org/2000/svg">
<path d="M2.46154 8.61536H45.5385C46.898 8.61536 48 9.71745 48 11.0769V36.923C48 38.2826 46.898 39.3846 45.5385 39.3846H2.46154C1.10209 39.3846 0 38.2826 0 36.923V11.0769C0 9.71745 1.10209 8.61536 2.46154 8.61536Z" fill="#0E4595"/>
<path d="M18.0429 30.0756L20.0959 18.0289H23.3796L21.3251 30.0756H18.0429ZM33.1881 18.2886C32.5377 18.0445 31.5181 17.7826 30.2452 17.7826C27.0006 17.7826 24.7151 19.4164 24.6957 21.7582C24.6773 23.4892 26.3273 24.4549 27.5727 25.0311C28.8509 25.6216 29.2805 25.9982 29.2745 26.5255C29.2665 27.3329 28.2538 27.7019 27.3101 27.7019C25.9958 27.7019 25.2976 27.5193 24.2192 27.0695L23.7961 26.8781L23.3352 29.5749C24.1021 29.9111 25.5204 30.2025 26.9929 30.2175C30.4446 30.2175 32.6852 28.6024 32.7108 26.1017C32.7231 24.7313 31.8483 23.6884 29.9538 22.8286C28.8061 22.2714 28.1033 21.8995 28.1107 21.3352C28.1107 20.8345 28.7057 20.299 29.9911 20.299C31.0649 20.2823 31.8428 20.5165 32.4489 20.7605L32.7431 20.8996L33.1881 18.2886ZM41.638 18.0287H39.1006C38.3146 18.0287 37.7263 18.2433 37.3812 19.0277L32.5046 30.0677H35.9527C35.9527 30.0677 36.5164 28.5832 36.6439 28.2574C37.0208 28.2574 40.3703 28.2625 40.8493 28.2625C40.9475 28.6843 41.2487 30.0677 41.2487 30.0677H44.2957L41.638 18.0283V18.0287ZM37.6122 25.8078C37.8837 25.1137 38.9205 22.4402 38.9205 22.4402C38.9011 22.4723 39.19 21.7427 39.3559 21.2904L39.5777 22.3291C39.5777 22.3291 40.2066 25.2047 40.338 25.8078H37.6122ZM15.2553 18.0287L12.0405 26.2441L11.698 24.5745C11.0995 22.65 9.23488 20.565 7.15039 19.5211L10.0898 30.0565L13.5641 30.0526L18.7335 18.0286H15.2553" fill="white"/>
<path d="M9.04084 18.0283H3.74601L3.7041 18.279C7.82336 19.2761 10.549 21.6859 11.6807 24.5811L10.5293 19.0451C10.3306 18.2824 9.75413 18.0547 9.04096 18.0281" fill="#F2AE14"/>
</svg>
