<?xml version="1.0" encoding="utf-8"?>
<!-- Generator: Adobe Illustrator 27.0.1, SVG Export Plug-In . SVG Version: 6.00 Build 0)  -->
<svg version="1.0" id="chat-icon" xmlns="http://www.w3.org/2000/svg" xmlns:xlink="http://www.w3.org/1999/xlink" x="0px" y="0px"
	 viewBox="0 0 20 20" enable-background="new 0 0 20 20" xml:space="preserve">
<path id="path" fill-rule="evenodd" clip-rule="evenodd" fill="#FFFFFF" d="M10,0C4.5,0,0,4.5,0,10c0,1.7,0.4,3.4,1.3,4.9l-1.2,3
	c-0.5,1.2,0.7,2.4,1.9,1.9l3-1.2c1.6,0.9,3.3,1.4,5,1.4c5.5,0,10-4.5,10-10S15.5,0,10,0z M5.3,9.3C5.5,9.1,5.7,9,6,9
	s0.5,0.1,0.7,0.3C6.9,9.5,7,9.7,7,10s-0.1,0.5-0.3,0.7C6.5,10.9,6.3,11,6,11s-0.5-0.1-0.7-0.3C5.1,10.5,5,10.3,5,10S5.1,9.5,5.3,9.3
	z M9.3,9.3C9.5,9.1,9.7,9,10,9s0.5,0.1,0.7,0.3S11,9.7,11,10s-0.1,0.5-0.3,0.7S10.3,11,10,11s-0.5-0.1-0.7-0.3S9,10.3,9,10
	S9.1,9.5,9.3,9.3z M14,9c-0.3,0-0.5,0.1-0.7,0.3S13,9.7,13,10s0.1,0.5,0.3,0.7S13.7,11,14,11s0.5-0.1,0.7-0.3S15,10.3,15,10
	s-0.1-0.5-0.3-0.7S14.3,9,14,9z"/>
</svg>
